<svg width="180" height="53" viewBox="0 0 180 53" fill="none" xmlns="http://www.w3.org/2000/svg">
<path d="M179 46.7289C179 49.5001 176.709 51.7448 173.874 51.7448H6.13243C3.2995 51.7448 1 49.5001 1 46.7289V6.7294C1 3.95957 3.2995 1.70703 6.13243 1.70703H173.873C176.709 1.70703 178.999 3.95957 178.999 6.7294L179 46.7289Z" fill="black"/>
<path d="M173.333 1.76819C176.42 1.76819 178.932 4.21706 178.932 7.22657V46.2266C178.932 49.2361 176.42 51.6849 173.333 51.6849H6.66667C3.58 51.6849 1.06833 49.2361 1.06833 46.2266V7.22657C1.06833 4.21706 3.58 1.76819 6.66667 1.76819H173.333ZM173.333 0.726565H6.66667C3.00167 0.726565 0 3.65319 0 7.22657V46.2266C0 49.7999 3.00167 52.7266 6.66667 52.7266H173.333C176.998 52.7266 180 49.7999 180 46.2266V7.22657C180 3.65319 176.998 0.726565 173.333 0.726565Z" fill="#A6A6A6"/>
<path d="M40.1714 26.4457C40.1328 22.2558 43.6901 20.2174 43.8528 20.1225C41.8381 17.2586 38.7154 16.8673 37.6181 16.8361C34.9954 16.567 32.4514 18.3662 31.1154 18.3662C29.7528 18.3662 27.6954 16.8621 25.4781 16.9063C22.6248 16.9492 19.9554 18.5599 18.4914 21.0611C15.4701 26.161 17.7234 33.6555 20.6181 37.7778C22.0661 39.7967 23.7581 42.0509 25.9728 41.9716C28.1394 41.8845 28.9488 40.6248 31.5634 40.6248C34.1541 40.6248 34.9141 41.9716 37.1728 41.9209C39.4981 41.8845 40.9621 39.8929 42.3594 37.8558C44.0328 35.5418 44.7048 33.2629 44.7314 33.1459C44.6768 33.1277 40.2154 31.4676 40.1714 26.4457Z" fill="white"/>
<path d="M35.9048 14.1243C37.0701 12.7034 37.8674 10.7703 37.6461 8.80859C35.9594 8.88139 33.8501 9.94609 32.6354 11.3358C31.5608 12.5604 30.6008 14.5676 30.8488 16.4552C32.7434 16.593 34.6888 15.5231 35.9048 14.1243Z" fill="white"/>
<path d="M71.5269 41.6813H68.4989L66.8402 36.5996H61.0749L59.4949 41.6813H56.5469L62.2589 24.3809H65.7869L71.5269 41.6813ZM66.3402 34.4676L64.8402 29.9501C64.6815 29.4886 64.3842 28.4018 63.9455 26.691H63.8922C63.7175 27.4268 63.4362 28.5136 63.0495 29.9501L61.5762 34.4676H66.3402Z" fill="white"/>
<path d="M86.2159 35.2893C86.2159 37.4109 85.6279 39.0879 84.4519 40.319C83.3985 41.4149 82.0905 41.9622 80.5292 41.9622C78.8439 41.9622 77.6332 41.372 76.8959 40.1916H76.8425V46.7631H73.9999V33.312C73.9999 31.9782 73.9639 30.6093 73.8945 29.2053H76.3945L76.5532 31.1826H76.6065C77.5545 29.6928 78.9932 28.9492 80.9239 28.9492C82.4332 28.9492 83.6932 29.5303 84.7012 30.6938C85.7119 31.8586 86.2159 33.39 86.2159 35.2893ZM83.3199 35.3907C83.3199 34.1765 83.0399 33.1755 82.4772 32.3877C81.8625 31.5661 81.0372 31.1553 80.0025 31.1553C79.3012 31.1553 78.6639 31.3841 78.0945 31.8352C77.5239 32.2902 77.1505 32.8843 76.9759 33.6201C76.8879 33.9633 76.8439 34.2441 76.8439 34.4651V36.5451C76.8439 37.4525 77.1292 38.2182 77.6999 38.8435C78.2705 39.4688 79.0119 39.7808 79.9239 39.7808C80.9945 39.7808 81.8279 39.3778 82.4239 38.5744C83.0212 37.7697 83.3199 36.7089 83.3199 35.3907Z" fill="white"/>
<path d="M100.931 35.2893C100.931 37.4109 100.343 39.0879 99.166 40.319C98.114 41.4149 96.806 41.9622 95.2447 41.9622C93.5593 41.9622 92.3487 41.372 91.6127 40.1916H91.5593V46.7631H88.7167V33.312C88.7167 31.9782 88.6807 30.6093 88.6113 29.2053H91.1113L91.27 31.1826H91.3233C92.27 29.6928 93.7087 28.9492 95.6407 28.9492C97.1487 28.9492 98.4087 29.5303 99.4193 30.6938C100.426 31.8586 100.931 33.39 100.931 35.2893ZM98.0353 35.3907C98.0353 34.1765 97.754 33.1755 97.1913 32.3877C96.5767 31.5661 95.754 31.1553 94.718 31.1553C94.0153 31.1553 93.3793 31.3841 92.8087 31.8352C92.238 32.2902 91.866 32.8843 91.6913 33.6201C91.6047 33.9633 91.5593 34.2441 91.5593 34.4651V36.5451C91.5593 37.4525 91.8447 38.2182 92.4127 38.8435C92.9833 39.4675 93.7247 39.7808 94.6393 39.7808C95.71 39.7808 96.5433 39.3778 97.1393 38.5744C97.7367 37.7697 98.0353 36.7089 98.0353 35.3907Z" fill="white"/>
<path d="M117.385 36.8293C117.385 38.3009 116.861 39.4982 115.809 40.4225C114.653 41.4326 113.044 41.937 110.976 41.937C109.066 41.937 107.536 41.5782 106.377 40.8593L107.036 38.5492C108.284 39.285 109.653 39.6542 111.145 39.6542C112.216 39.6542 113.049 39.4176 113.648 38.947C114.244 38.4764 114.541 37.8446 114.541 37.0568C114.541 36.3548 114.296 35.7633 113.804 35.2836C113.314 34.8039 112.497 34.358 111.356 33.9459C108.249 32.8162 106.697 31.1613 106.697 28.9851C106.697 27.5629 107.241 26.3968 108.33 25.4894C109.416 24.5807 110.864 24.127 112.674 24.127C114.289 24.127 115.63 24.4013 116.701 24.9486L115.99 27.208C114.99 26.6776 113.86 26.4124 112.594 26.4124C111.594 26.4124 110.813 26.6529 110.253 27.1313C109.78 27.559 109.542 28.0803 109.542 28.6978C109.542 29.3816 109.813 29.9471 110.357 30.3917C110.83 30.8025 111.69 31.2471 112.938 31.7268C114.465 32.3261 115.586 33.0268 116.308 33.8302C117.026 34.631 117.385 35.6333 117.385 36.8293Z" fill="white"/>
<path d="M126.784 31.286H123.651V37.3427C123.651 38.8832 124.203 39.6528 125.31 39.6528C125.818 39.6528 126.239 39.6099 126.572 39.5241L126.651 41.6288C126.091 41.8329 125.354 41.9356 124.44 41.9356C123.318 41.9356 122.44 41.6015 121.807 40.9346C121.176 40.2664 120.859 39.1458 120.859 37.5715V31.2834H118.992V29.2034H120.859V26.9193L123.651 26.0977V29.2034H126.784V31.286Z" fill="white"/>
<path d="M140.921 35.3407C140.921 37.2582 140.358 38.8325 139.235 40.0636C138.058 41.3311 136.495 41.9629 134.547 41.9629C132.67 41.9629 131.175 41.3558 130.061 40.1416C128.946 38.9274 128.389 37.3947 128.389 35.5474C128.389 33.6143 128.962 32.0309 130.113 30.7998C131.261 29.5674 132.81 28.9512 134.758 28.9512C136.635 28.9512 138.146 29.5583 139.286 30.7738C140.377 31.9529 140.921 33.4752 140.921 35.3407ZM137.971 35.4304C137.971 34.2799 137.719 33.2932 137.209 32.4703C136.613 31.4745 135.761 30.9779 134.657 30.9779C133.514 30.9779 132.646 31.4758 132.05 32.4703C131.539 33.2945 131.287 34.2968 131.287 35.4824C131.287 36.6329 131.539 37.6196 132.05 38.4412C132.665 39.437 133.523 39.9336 134.631 39.9336C135.717 39.9336 136.569 39.4266 137.183 38.4152C137.707 37.5767 137.971 36.5796 137.971 35.4304Z" fill="white"/>
<path d="M150.162 31.6428C149.88 31.5921 149.58 31.5661 149.266 31.5661C148.266 31.5661 147.492 31.934 146.948 32.6711C146.475 33.3211 146.238 34.1427 146.238 35.1346V41.6801H143.396L143.423 33.1339C143.423 31.6961 143.387 30.387 143.316 29.2066H145.792L145.896 31.5934H145.975C146.275 30.7731 146.748 30.1127 147.396 29.6174C148.03 29.1715 148.714 28.9492 149.451 28.9492C149.714 28.9492 149.951 28.9674 150.162 28.9999V31.6428Z" fill="white"/>
<path d="M162.875 34.8525C162.875 35.3491 162.841 35.7677 162.771 36.1096H154.243C154.276 37.342 154.688 38.2845 155.48 38.9345C156.199 39.5156 157.128 39.8068 158.269 39.8068C159.532 39.8068 160.684 39.6105 161.72 39.2166L162.165 41.1406C160.955 41.6554 159.525 41.9115 157.876 41.9115C155.892 41.9115 154.335 41.3421 153.201 40.2046C152.071 39.0671 151.504 37.5396 151.504 35.6234C151.504 33.7423 152.031 32.1758 153.085 30.9265C154.189 29.5927 155.681 28.9258 157.559 28.9258C159.403 28.9258 160.799 29.5927 161.747 30.9265C162.497 31.986 162.875 33.2964 162.875 34.8525ZM160.164 34.1336C160.183 33.312 159.997 32.6022 159.612 32.0029C159.12 31.232 158.364 30.8472 157.347 30.8472C156.417 30.8472 155.661 31.2229 155.084 31.9769C154.611 32.5762 154.329 33.2951 154.243 34.1323H160.164V34.1336Z" fill="white"/>
<path d="M62.892 12.4026C62.892 13.1226 62.484 13.7706 61.272 13.7706H59.892V14.7546H61.26C62.7 14.7546 63.216 15.3786 63.216 16.2906C63.216 17.2986 62.364 17.8986 61.104 17.8986C59.82 17.8986 58.968 17.3946 58.692 16.3746H57.564C57.816 17.8986 58.98 18.8826 61.092 18.8826C63.204 18.8826 64.32 17.6706 64.32 16.3146C64.32 15.1266 63.768 14.5626 63.084 14.2746V14.0106C63.576 13.7346 63.984 13.2306 63.984 12.2706C63.984 11.0466 62.988 10.0026 61.032 10.0026C59.256 10.0026 58.116 10.9026 57.924 12.3306H59.028C59.22 11.4786 59.832 10.9866 61.032 10.9866C62.088 10.9866 62.892 11.4786 62.892 12.4026ZM69.7462 18.7266H70.7062V14.6106C70.7062 13.2546 69.7342 12.5226 68.2102 12.5226C66.8542 12.5226 65.8942 13.1706 65.8102 14.2866H66.8302C66.8782 13.7586 67.3342 13.4106 68.2342 13.4106C69.2902 13.4106 69.7102 13.9386 69.7102 14.6706V14.9106H67.7422C66.0622 14.9106 65.4262 15.9426 65.4262 16.9146C65.4262 17.9466 66.2062 18.8826 67.5982 18.8826C68.4622 18.8826 69.1102 18.5586 69.4822 18.0906H69.7462V18.7266ZM67.8502 17.9946C66.9502 17.9946 66.4462 17.5626 66.4462 16.8786C66.4462 16.1586 66.9022 15.7266 67.8982 15.7266H69.7102V16.2786C69.7102 17.2386 68.8582 17.9946 67.8502 17.9946ZM72.5738 18.7266H73.5938V13.5666H77.1098V12.6786H72.5738V18.7266ZM81.3724 13.4106C82.5844 13.4106 83.2324 14.3586 83.2324 15.7026C83.2324 17.0466 82.5844 17.9946 81.3724 17.9946C80.0284 17.9946 79.4764 16.8906 79.4764 15.7026C79.4764 14.5146 80.0284 13.4106 81.3724 13.4106ZM78.4684 12.6786V21.1266H79.4884V18.0786H79.7524C80.0764 18.5106 80.6404 18.8826 81.6004 18.8826C83.2684 18.8826 84.2524 17.5266 84.2524 15.7026C84.2524 13.9146 83.2684 12.5226 81.6004 12.5226C80.6404 12.5226 80.0524 12.9066 79.7164 13.3266H79.4524V12.6786H78.4684ZM87.3426 21.1266L90.9666 12.6786H89.8986L88.2186 16.6626H87.9186L86.0706 12.6786H84.9786L87.5586 18.1626L86.3106 21.1266H87.3426ZM95.4598 14.3346C95.4598 14.8026 95.1478 15.1986 94.2838 15.1986H93.2638V16.0866H94.3318C95.3278 16.0866 95.6638 16.4346 95.6638 17.0226C95.6638 17.6826 95.0398 17.9946 94.1758 17.9946C93.3478 17.9946 92.6638 17.7666 92.4358 17.0106H91.4518C91.6318 18.1506 92.5078 18.8826 94.1758 18.8826C95.8078 18.8826 96.6838 18.0546 96.6838 17.0586C96.6838 16.2306 96.2638 15.8226 95.8198 15.6906V15.4266C96.1678 15.2946 96.4678 14.8746 96.4678 14.2026C96.4678 13.2906 95.6518 12.5226 94.1518 12.5226C92.7478 12.5226 91.7998 13.1946 91.6918 14.3466H92.6638C92.8078 13.6866 93.2638 13.4106 94.1278 13.4106C94.9078 13.4106 95.4598 13.7226 95.4598 14.3346ZM99.7599 18.7266L102.46 14.0466H102.724V18.7266H103.72V12.6786H102.232L99.5799 17.3586H99.3159V12.6786H98.3199V18.7266H99.7599ZM105.067 13.5666H107.167V18.7266H108.187V13.5666H110.275V12.6786H105.067V13.5666ZM116.771 15.3426C116.735 13.8546 115.871 12.5226 114.071 12.5226C112.235 12.5226 111.155 13.7826 111.155 15.6426C111.155 17.5026 112.211 18.8826 114.095 18.8826C115.595 18.8826 116.471 18.0906 116.663 17.0586H115.631C115.451 17.6346 114.947 17.9946 114.095 17.9946C112.847 17.9946 112.199 17.1306 112.163 15.6906H116.771V15.3426ZM114.047 13.4106C115.067 13.4106 115.655 14.0706 115.715 14.8386H112.223C112.355 14.0706 112.955 13.4106 114.047 13.4106ZM125.959 15.3906C126.295 15.2106 126.607 14.7906 126.607 14.2026C126.607 13.2426 125.911 12.6786 124.699 12.6786H121.699V18.7266H124.807C126.187 18.7266 126.943 18.1746 126.943 17.0706C126.943 16.2906 126.523 15.7986 125.959 15.6546V15.3906ZM122.707 17.8626V16.0506H124.747C125.623 16.0506 125.923 16.4466 125.923 16.9626C125.923 17.4786 125.623 17.8626 124.747 17.8626H122.707ZM122.707 13.5426H124.603C125.335 13.5426 125.587 13.9026 125.587 14.3706C125.587 14.8026 125.335 15.1866 124.603 15.1866H122.707V13.5426Z" fill="white"/>
</svg>
