<svg width="300" height="236" viewBox="0 0 300 236" fill="none" xmlns="http://www.w3.org/2000/svg">
<g filter="url(#filter0_i_6626_85035)">
<path d="M71.7567 208.405C56.2816 192.93 45.743 173.214 41.4734 151.749C37.2039 130.285 39.3952 108.036 47.7702 87.8172C56.1452 67.5981 70.3279 50.3165 88.5246 38.1579C106.721 25.9992 128.115 19.5095 150 19.5095C171.885 19.5095 193.278 25.9992 211.475 38.1579C229.672 50.3165 243.855 67.5981 252.23 87.8172C260.605 108.036 262.796 130.285 258.526 151.749C254.257 173.214 243.718 192.93 228.243 208.405L200.858 181.02C210.917 170.961 217.767 158.146 220.542 144.194C223.317 130.242 221.893 115.78 216.449 102.638C211.005 89.4955 201.787 78.2625 189.959 70.3594C178.131 62.4562 164.225 58.238 150 58.238C135.775 58.238 121.869 62.4562 110.041 70.3594C98.2131 78.2625 88.9944 89.4955 83.5506 102.638C78.1068 115.78 76.6825 130.242 79.4577 144.194C82.2329 158.146 89.083 170.961 99.1418 181.02L71.7567 208.405Z" fill="white"/>
</g>
<mask id="path-2-inside-1_6626_85035" fill="white">
<path d="M232.308 212.722C248.637 196.393 259.757 175.589 264.262 152.94C268.767 130.292 266.455 106.816 257.618 85.4813C248.781 64.1468 233.816 45.9119 214.615 33.0825C195.414 20.2531 172.841 13.4054 149.748 13.4054C126.656 13.4054 104.082 20.2531 84.8819 33.0825C65.6813 45.9119 50.7163 64.1468 41.8793 85.4813C33.0422 106.816 30.7301 130.292 35.2351 152.94C39.7402 175.589 50.8602 196.393 67.189 212.722L69.6657 210.245C53.8269 194.406 43.0405 174.226 38.6705 152.257C34.3006 130.288 36.5434 107.516 45.1154 86.8217C53.6873 66.1272 68.2033 48.4394 86.8279 35.9949C105.452 23.5503 127.349 16.9081 149.748 16.9081C172.148 16.9081 194.045 23.5503 212.669 35.9949C231.294 48.4394 245.81 66.1272 254.382 86.8217C262.953 107.516 265.196 130.288 260.826 152.257C256.456 174.226 245.67 194.406 229.831 210.245L232.308 212.722Z"/>
</mask>
<path d="M232.308 212.722C248.637 196.393 259.757 175.589 264.262 152.94C268.767 130.292 266.455 106.816 257.618 85.4813C248.781 64.1468 233.816 45.9119 214.615 33.0825C195.414 20.2531 172.841 13.4054 149.748 13.4054C126.656 13.4054 104.082 20.2531 84.8819 33.0825C65.6813 45.9119 50.7163 64.1468 41.8793 85.4813C33.0422 106.816 30.7301 130.292 35.2351 152.94C39.7402 175.589 50.8602 196.393 67.189 212.722L69.6657 210.245C53.8269 194.406 43.0405 174.226 38.6705 152.257C34.3006 130.288 36.5434 107.516 45.1154 86.8217C53.6873 66.1272 68.2033 48.4394 86.8279 35.9949C105.452 23.5503 127.349 16.9081 149.748 16.9081C172.148 16.9081 194.045 23.5503 212.669 35.9949C231.294 48.4394 245.81 66.1272 254.382 86.8217C262.953 107.516 265.196 130.288 260.826 152.257C256.456 174.226 245.67 194.406 229.831 210.245L232.308 212.722Z" stroke="#FF0029" stroke-width="87.5676" mask="url(#path-2-inside-1_6626_85035)"/>
<mask id="path-3-inside-2_6626_85035" fill="white">
<path d="M232.308 212.722C245.666 199.364 255.583 182.965 261.208 164.931C266.834 146.898 267.999 127.769 264.605 109.186C261.212 90.6024 253.359 73.1203 241.723 58.2394C230.086 43.3585 215.012 31.5234 197.796 23.7497C180.579 15.976 161.733 12.4958 142.875 13.6079C124.017 14.72 105.711 20.3911 89.527 30.1346C73.3431 39.8781 59.7651 53.4029 49.9582 69.5483C40.1512 85.6938 34.4082 103.978 33.2221 122.831L36.7179 123.051C37.8684 104.763 43.4391 87.0278 52.9519 71.3667C62.4646 55.7057 75.6353 42.5866 91.3336 33.1354C107.032 23.6843 124.789 18.1833 143.081 17.1045C161.373 16.0258 179.654 19.4015 196.354 26.9421C213.055 34.4826 227.676 45.9627 238.963 60.3971C250.251 74.8315 257.868 91.7892 261.16 109.815C264.452 127.841 263.321 146.396 257.864 163.888C252.408 181.381 242.788 197.288 229.831 210.245L232.308 212.722Z"/>
</mask>
<path d="M232.308 212.722C245.666 199.364 255.583 182.965 261.208 164.931C266.834 146.898 267.999 127.769 264.605 109.186C261.212 90.6024 253.359 73.1203 241.723 58.2394C230.086 43.3585 215.012 31.5234 197.796 23.7497C180.579 15.976 161.733 12.4958 142.875 13.6079C124.017 14.72 105.711 20.3911 89.527 30.1346C73.3431 39.8781 59.7651 53.4029 49.9582 69.5483C40.1512 85.6938 34.4082 103.978 33.2221 122.831L36.7179 123.051C37.8684 104.763 43.4391 87.0278 52.9519 71.3667C62.4646 55.7057 75.6353 42.5866 91.3336 33.1354C107.032 23.6843 124.789 18.1833 143.081 17.1045C161.373 16.0258 179.654 19.4015 196.354 26.9421C213.055 34.4826 227.676 45.9627 238.963 60.3971C250.251 74.8315 257.868 91.7892 261.16 109.815C264.452 127.841 263.321 146.396 257.864 163.888C252.408 181.381 242.788 197.288 229.831 210.245L232.308 212.722Z" stroke="#FAF354" stroke-width="87.5676" mask="url(#path-3-inside-2_6626_85035)"/>
<mask id="path-4-inside-3_6626_85035" fill="white">
<path d="M232.308 212.722C245.008 200.022 254.607 184.563 260.358 167.548C266.109 150.533 267.857 132.42 265.466 114.619C263.075 96.8185 256.61 79.8093 246.573 64.9149C236.536 50.0204 223.198 37.6423 207.597 28.7436L205.861 31.7861C220.994 40.4179 233.932 52.4247 243.668 66.8723C253.404 81.3199 259.675 97.8189 261.995 115.086C264.314 132.352 262.618 149.921 257.04 166.426C251.461 182.931 242.15 197.926 229.831 210.245L232.308 212.722Z"/>
</mask>
<path d="M232.308 212.722C245.008 200.022 254.607 184.563 260.358 167.548C266.109 150.533 267.857 132.42 265.466 114.619C263.075 96.8185 256.61 79.8093 246.573 64.9149C236.536 50.0204 223.198 37.6423 207.597 28.7436L205.861 31.7861C220.994 40.4179 233.932 52.4247 243.668 66.8723C253.404 81.3199 259.675 97.8189 261.995 115.086C264.314 132.352 262.618 149.921 257.04 166.426C251.461 182.931 242.15 197.926 229.831 210.245L232.308 212.722Z" stroke="#6BFA54" stroke-width="87.5676" mask="url(#path-4-inside-3_6626_85035)"/>
<mask id="path-5-inside-4_6626_85035" fill="white">
<path d="M232.308 212.722C244.023 201.006 253.111 186.931 258.968 171.433L255.691 170.195C250.011 185.228 241.195 198.881 229.831 210.245L232.308 212.722Z"/>
</mask>
<path d="M232.308 212.722C244.023 201.006 253.111 186.931 258.968 171.433L255.691 170.195C250.011 185.228 241.195 198.881 229.831 210.245L232.308 212.722Z" stroke="#56C048" stroke-width="87.5676" mask="url(#path-5-inside-4_6626_85035)"/>
<path d="M53.6533 221.243H59.4084V220.358H57.2517V213.297H56.0371L54.1982 214.489V215.533L56.0484 214.342H56.2528V220.358H53.6533V221.243Z" fill="#7B7794"/>
<path d="M235.564 214.76C235.167 214.76 234.804 214.828 234.474 214.964C234.134 215.101 233.85 215.282 233.612 215.521C233.373 215.77 233.192 216.054 233.055 216.383C232.919 216.724 232.863 217.087 232.863 217.496C232.863 217.859 232.919 218.199 233.044 218.517C233.169 218.835 233.339 219.108 233.566 219.335C233.793 219.573 234.054 219.755 234.372 219.891C234.69 220.027 235.031 220.084 235.417 220.084C235.666 220.084 235.893 220.061 236.075 220.004C236.234 219.97 236.404 219.914 236.574 219.845C236.733 219.777 236.881 219.675 237.017 219.562C237.119 219.482 237.21 219.391 237.29 219.301H237.517C237.505 219.63 237.46 219.959 237.392 220.288C237.324 220.629 237.21 220.924 237.051 221.196C236.892 221.469 236.688 221.696 236.438 221.866C236.177 222.048 235.848 222.127 235.462 222.127C234.735 222.127 234.27 221.798 234.066 221.117H233.078C233.18 221.73 233.453 222.195 233.895 222.524C234.327 222.854 234.849 223.012 235.462 223.012C236.041 223.012 236.529 222.888 236.915 222.615C237.301 222.343 237.619 222.002 237.846 221.582C238.073 221.162 238.243 220.697 238.334 220.175C238.425 219.664 238.481 219.164 238.481 218.665C238.481 218.188 238.436 217.711 238.357 217.235C238.266 216.769 238.118 216.349 237.903 215.986C237.687 215.623 237.392 215.328 237.017 215.101C236.631 214.874 236.154 214.76 235.564 214.76ZM235.598 219.21C235.076 219.21 234.656 219.062 234.338 218.744C234.02 218.426 233.861 217.995 233.861 217.45C233.861 217.201 233.895 216.962 233.975 216.735C234.043 216.519 234.157 216.326 234.304 216.168C234.44 216.009 234.622 215.872 234.838 215.782C235.053 215.691 235.303 215.645 235.575 215.645C236.109 215.645 236.529 215.816 236.847 216.145C237.165 216.485 237.324 216.917 237.324 217.462C237.324 217.984 237.165 218.404 236.858 218.722C236.552 219.051 236.132 219.21 235.598 219.21ZM242.714 214.76C242.317 214.76 241.954 214.828 241.624 214.964C241.284 215.101 241 215.282 240.762 215.521C240.523 215.77 240.342 216.054 240.206 216.383C240.069 216.724 240.013 217.087 240.013 217.496C240.013 217.859 240.069 218.199 240.194 218.517C240.319 218.835 240.489 219.108 240.716 219.335C240.943 219.573 241.204 219.755 241.522 219.891C241.84 220.027 242.181 220.084 242.567 220.084C242.816 220.084 243.043 220.061 243.225 220.004C243.384 219.97 243.554 219.914 243.724 219.845C243.883 219.777 244.031 219.675 244.167 219.562C244.269 219.482 244.36 219.391 244.44 219.301H244.667C244.655 219.63 244.61 219.959 244.542 220.288C244.474 220.629 244.36 220.924 244.201 221.196C244.042 221.469 243.838 221.696 243.588 221.866C243.327 222.048 242.998 222.127 242.612 222.127C241.886 222.127 241.42 221.798 241.216 221.117H240.228C240.33 221.73 240.603 222.195 241.046 222.524C241.477 222.854 241.999 223.012 242.612 223.012C243.191 223.012 243.679 222.888 244.065 222.615C244.451 222.343 244.769 222.002 244.996 221.582C245.223 221.162 245.393 220.697 245.484 220.175C245.575 219.664 245.631 219.164 245.631 218.665C245.631 218.188 245.586 217.711 245.507 217.235C245.416 216.769 245.268 216.349 245.053 215.986C244.837 215.623 244.542 215.328 244.167 215.101C243.781 214.874 243.304 214.76 242.714 214.76ZM242.748 219.21C242.226 219.21 241.806 219.062 241.488 218.744C241.17 218.426 241.011 217.995 241.011 217.45C241.011 217.201 241.046 216.962 241.125 216.735C241.193 216.519 241.307 216.326 241.454 216.168C241.59 216.009 241.772 215.872 241.988 215.782C242.203 215.691 242.453 215.645 242.726 215.645C243.259 215.645 243.679 215.816 243.997 216.145C244.315 216.485 244.474 216.917 244.474 217.462C244.474 217.984 244.315 218.404 244.008 218.722C243.702 219.051 243.282 219.21 242.748 219.21ZM249.864 214.76C249.467 214.76 249.104 214.828 248.774 214.964C248.434 215.101 248.15 215.282 247.912 215.521C247.673 215.77 247.492 216.054 247.356 216.383C247.219 216.724 247.163 217.087 247.163 217.496C247.163 217.859 247.219 218.199 247.344 218.517C247.469 218.835 247.639 219.108 247.866 219.335C248.093 219.573 248.354 219.755 248.672 219.891C248.99 220.027 249.331 220.084 249.717 220.084C249.966 220.084 250.193 220.061 250.375 220.004C250.534 219.97 250.704 219.914 250.874 219.845C251.033 219.777 251.181 219.675 251.317 219.562C251.419 219.482 251.51 219.391 251.59 219.301H251.817C251.805 219.63 251.76 219.959 251.692 220.288C251.624 220.629 251.51 220.924 251.351 221.196C251.192 221.469 250.988 221.696 250.738 221.866C250.477 222.048 250.148 222.127 249.762 222.127C249.036 222.127 248.57 221.798 248.366 221.117H247.378C247.48 221.73 247.753 222.195 248.196 222.524C248.627 222.854 249.149 223.012 249.762 223.012C250.341 223.012 250.829 222.888 251.215 222.615C251.601 222.343 251.919 222.002 252.146 221.582C252.373 221.162 252.543 220.697 252.634 220.175C252.725 219.664 252.781 219.164 252.781 218.665C252.781 218.188 252.736 217.711 252.657 217.235C252.566 216.769 252.418 216.349 252.203 215.986C251.987 215.623 251.692 215.328 251.317 215.101C250.931 214.874 250.454 214.76 249.864 214.76ZM249.898 219.21C249.376 219.21 248.956 219.062 248.638 218.744C248.32 218.426 248.161 217.995 248.161 217.45C248.161 217.201 248.196 216.962 248.275 216.735C248.343 216.519 248.457 216.326 248.604 216.168C248.74 216.009 248.922 215.872 249.138 215.782C249.353 215.691 249.603 215.645 249.876 215.645C250.409 215.645 250.829 215.816 251.147 216.145C251.465 216.485 251.624 216.917 251.624 217.462C251.624 217.984 251.465 218.404 251.158 218.722C250.852 219.051 250.432 219.21 249.898 219.21Z" fill="#7B7794"/>
<path d="M4.85485 126.568H10.61V125.682H8.45323V118.622H7.23863L5.39972 119.814V120.858L7.24999 119.666H7.45431V125.682H4.85485V126.568ZM13.0038 126.568H14.0481L17.4876 119.711V118.622H12.4249V119.484H16.4546V119.711L13.0038 126.568ZM22.0268 118.463C21.6295 118.463 21.2662 118.531 20.9371 118.667C20.5965 118.803 20.3127 118.985 20.0744 119.223C19.836 119.473 19.6544 119.757 19.5181 120.086C19.3819 120.426 19.3252 120.79 19.3252 121.198C19.3252 121.562 19.3819 121.902 19.5068 122.22C19.6316 122.538 19.8019 122.81 20.0289 123.037C20.256 123.276 20.5171 123.457 20.8349 123.594C21.1527 123.73 21.4933 123.786 21.8792 123.786C22.1289 123.786 22.356 123.764 22.5376 123.707C22.6965 123.673 22.8668 123.616 23.0371 123.548C23.196 123.48 23.3435 123.378 23.4798 123.264C23.5819 123.185 23.6727 123.094 23.7522 123.003H23.9792C23.9679 123.332 23.9225 123.662 23.8544 123.991C23.7862 124.331 23.6727 124.626 23.5138 124.899C23.3549 125.171 23.1506 125.398 22.9008 125.569C22.6398 125.75 22.3106 125.83 21.9246 125.83C21.1981 125.83 20.7327 125.501 20.5284 124.819H19.5408C19.643 125.432 19.9154 125.898 20.3581 126.227C20.7895 126.556 21.3116 126.715 21.9246 126.715C22.5035 126.715 22.9916 126.59 23.3776 126.318C23.7635 126.045 24.0814 125.705 24.3084 125.285C24.5354 124.865 24.7057 124.399 24.7965 123.877C24.8873 123.366 24.9441 122.867 24.9441 122.368C24.9441 121.891 24.8987 121.414 24.8192 120.937C24.7284 120.472 24.5808 120.052 24.3652 119.689C24.1495 119.325 23.8544 119.03 23.4798 118.803C23.0938 118.576 22.6171 118.463 22.0268 118.463ZM22.0608 122.912C21.5387 122.912 21.1187 122.765 20.8008 122.447C20.483 122.129 20.3241 121.698 20.3241 121.153C20.3241 120.903 20.3581 120.665 20.4376 120.438C20.5057 120.222 20.6192 120.029 20.7668 119.87C20.903 119.711 21.0846 119.575 21.3003 119.484C21.516 119.394 21.7657 119.348 22.0381 119.348C22.5716 119.348 22.9916 119.518 23.3095 119.848C23.6273 120.188 23.7862 120.619 23.7862 121.164C23.7862 121.686 23.6273 122.106 23.3208 122.424C23.0144 122.754 22.5944 122.912 22.0608 122.912Z" fill="#7B7794"/>
<path d="M207.379 12.2465C206.789 12.2465 206.301 12.3827 205.915 12.6551C205.529 12.9276 205.211 13.2681 204.984 13.6881C204.757 14.1081 204.587 14.5735 204.496 15.0843C204.405 15.6065 204.36 16.1059 204.36 16.5941C204.36 17.0708 204.394 17.5476 204.485 18.013C204.564 18.4897 204.712 18.9097 204.939 19.273C205.154 19.6362 205.449 19.9313 205.835 20.1584C206.21 20.3854 206.687 20.4989 207.277 20.4989C207.674 20.4989 208.038 20.4422 208.367 20.3059C208.696 20.1697 208.98 19.9881 209.218 19.7384C209.456 19.5 209.638 19.2162 209.774 18.8757C209.911 18.5465 209.979 18.1719 209.979 17.7632C209.979 17.4 209.911 17.0595 209.786 16.7416C209.661 16.4238 209.491 16.1513 209.264 15.9243C209.036 15.6973 208.775 15.5157 208.458 15.3795C208.14 15.2432 207.799 15.1751 207.425 15.1751C207.175 15.1751 206.959 15.1978 206.766 15.2432C206.585 15.3 206.426 15.3568 206.267 15.4249C206.108 15.493 205.96 15.5838 205.824 15.6859C205.711 15.7881 205.62 15.8789 205.552 15.9584H205.325C205.336 15.6405 205.381 15.3227 205.449 14.9822C205.518 14.6416 205.631 14.3351 205.79 14.0627C205.949 13.7903 206.153 13.5746 206.414 13.393C206.664 13.2227 206.993 13.1319 207.379 13.1319C207.754 13.1319 208.049 13.2113 208.276 13.3703C208.492 13.5292 208.662 13.7789 208.775 14.1422H209.763C209.706 13.847 209.604 13.5746 209.468 13.3362C209.332 13.1092 209.15 12.9049 208.946 12.7459C208.741 12.587 208.503 12.4622 208.242 12.3713C207.969 12.2919 207.686 12.2465 207.379 12.2465ZM205.518 17.7973C205.518 17.2865 205.665 16.8665 205.972 16.5373C206.278 16.2195 206.698 16.0492 207.243 16.0492C207.776 16.0492 208.196 16.2081 208.514 16.5146C208.821 16.8324 208.98 17.2638 208.98 17.8086C208.98 18.0697 208.934 18.3081 208.866 18.5238C208.787 18.7508 208.673 18.9438 208.537 19.1027C208.389 19.2616 208.208 19.3865 208.004 19.4773C207.788 19.5681 207.538 19.6135 207.266 19.6135C206.993 19.6135 206.755 19.5681 206.539 19.4773C206.324 19.3865 206.142 19.2616 205.994 19.1027C205.835 18.9438 205.722 18.7622 205.642 18.5351C205.552 18.3081 205.518 18.0697 205.518 17.7973ZM211.601 14.5962H212.599C212.656 14.1195 212.815 13.7562 213.088 13.5065C213.36 13.2568 213.735 13.1319 214.223 13.1319C214.722 13.1319 215.108 13.2681 215.392 13.5178C215.676 13.7789 215.823 14.1649 215.823 14.6643C215.823 15.1184 215.676 15.5384 215.392 15.913C215.301 16.0378 215.199 16.1627 215.085 16.2876C214.972 16.4124 214.847 16.5373 214.722 16.6508C214.586 16.7643 214.461 16.8778 214.325 16.9913C214.189 17.1049 214.075 17.207 213.962 17.2978L211.623 19.2389V20.3513H217.027V19.4659H213.076V19.2389L214.756 17.82C214.995 17.6157 215.233 17.4 215.483 17.173C215.732 16.9459 215.948 16.7076 216.152 16.4578C216.345 16.2081 216.504 15.9243 216.629 15.6292C216.754 15.3341 216.822 15.0162 216.822 14.6643C216.822 14.3238 216.765 13.9946 216.663 13.6995C216.55 13.4043 216.379 13.1319 216.13 12.8822C215.857 12.6551 215.562 12.4849 215.244 12.3941C214.927 12.3032 214.586 12.2465 214.245 12.2465C213.882 12.2465 213.542 12.3032 213.235 12.3941C212.917 12.4962 212.645 12.6438 212.418 12.8481C212.179 13.0524 211.987 13.2908 211.85 13.5859C211.703 13.8811 211.623 14.2103 211.601 14.5962ZM218.648 18.1265C218.671 18.5011 218.762 18.8303 218.921 19.1254C219.08 19.4205 219.284 19.6703 219.534 19.8746C219.784 20.0789 220.067 20.2378 220.397 20.34C220.714 20.4535 221.066 20.4989 221.429 20.4989C221.815 20.4989 222.19 20.4422 222.531 20.3286C222.871 20.2151 223.166 20.0562 223.416 19.8292C223.666 19.6022 223.87 19.3297 224.018 19.0005C224.154 18.6827 224.233 18.3081 224.233 17.8768C224.233 17.1616 224.029 16.5827 223.62 16.1513C223.212 15.72 222.644 15.493 221.895 15.4589V15.2432L223.859 13.4951V12.4054H219.216V13.2681H222.667V13.4951L220.748 15.2205V16.2535C220.93 16.2081 221.157 16.1854 221.441 16.1854C221.986 16.1854 222.417 16.333 222.746 16.6054C223.064 16.8892 223.234 17.3092 223.234 17.8768C223.234 18.433 223.064 18.8643 222.735 19.1595C222.406 19.4659 221.974 19.6135 221.429 19.6135C221.202 19.6135 220.987 19.5908 220.782 19.5227C220.578 19.4546 220.397 19.3638 220.238 19.2276C220.079 19.1027 219.942 18.9438 219.84 18.7622C219.727 18.5805 219.67 18.3649 219.647 18.1265H218.648Z" fill="#7B7794"/>
<path d="M266.376 168.733C265.978 168.733 265.615 168.801 265.286 168.937C264.945 169.074 264.662 169.255 264.423 169.494C264.185 169.743 264.003 170.027 263.867 170.356C263.731 170.697 263.674 171.06 263.674 171.469C263.674 171.832 263.731 172.172 263.856 172.49C263.981 172.808 264.151 173.081 264.378 173.308C264.605 173.546 264.866 173.728 265.184 173.864C265.502 174 265.842 174.057 266.228 174.057C266.478 174.057 266.705 174.034 266.886 173.977C267.045 173.943 267.216 173.886 267.386 173.818C267.545 173.75 267.692 173.648 267.829 173.535C267.931 173.455 268.022 173.364 268.101 173.274H268.328C268.317 173.603 268.271 173.932 268.203 174.261C268.135 174.602 268.022 174.897 267.863 175.169C267.704 175.442 267.499 175.669 267.25 175.839C266.989 176.021 266.659 176.1 266.274 176.1C265.547 176.1 265.082 175.771 264.877 175.09H263.89C263.992 175.703 264.264 176.168 264.707 176.497C265.138 176.826 265.661 176.985 266.274 176.985C266.852 176.985 267.341 176.861 267.726 176.588C268.112 176.316 268.43 175.975 268.657 175.555C268.884 175.135 269.055 174.67 269.145 174.148C269.236 173.637 269.293 173.137 269.293 172.638C269.293 172.161 269.248 171.684 269.168 171.208C269.077 170.742 268.93 170.322 268.714 169.959C268.498 169.596 268.203 169.301 267.829 169.074C267.443 168.846 266.966 168.733 266.376 168.733ZM266.41 173.183C265.888 173.183 265.468 173.035 265.15 172.717C264.832 172.399 264.673 171.968 264.673 171.423C264.673 171.174 264.707 170.935 264.786 170.708C264.855 170.492 264.968 170.299 265.116 170.141C265.252 169.982 265.434 169.845 265.649 169.755C265.865 169.664 266.115 169.618 266.387 169.618C266.921 169.618 267.341 169.789 267.658 170.118C267.976 170.458 268.135 170.89 268.135 171.435C268.135 171.957 267.976 172.377 267.67 172.695C267.363 173.024 266.943 173.183 266.41 173.183ZM270.654 176.838H276.409V175.952H274.252V168.892H273.038L271.199 170.084V171.128L273.049 169.936H273.253V175.952H270.654V176.838ZM277.94 171.083H278.939C278.996 170.606 279.155 170.243 279.427 169.993C279.699 169.743 280.074 169.618 280.562 169.618C281.062 169.618 281.448 169.755 281.731 170.004C282.015 170.265 282.163 170.651 282.163 171.151C282.163 171.605 282.015 172.025 281.731 172.399C281.641 172.524 281.538 172.649 281.425 172.774C281.311 172.899 281.187 173.024 281.062 173.137C280.925 173.251 280.801 173.364 280.664 173.478C280.528 173.591 280.415 173.694 280.301 173.784L277.963 175.725V176.838H283.366V175.952H279.416V175.725L281.096 174.306C281.334 174.102 281.572 173.886 281.822 173.659C282.072 173.432 282.288 173.194 282.492 172.944C282.685 172.695 282.844 172.411 282.969 172.116C283.094 171.821 283.162 171.503 283.162 171.151C283.162 170.81 283.105 170.481 283.003 170.186C282.889 169.891 282.719 169.618 282.469 169.369C282.197 169.142 281.902 168.971 281.584 168.881C281.266 168.79 280.925 168.733 280.585 168.733C280.222 168.733 279.881 168.79 279.575 168.881C279.257 168.983 278.984 169.13 278.757 169.335C278.519 169.539 278.326 169.777 278.19 170.072C278.042 170.368 277.963 170.697 277.94 171.083Z" fill="#7B7794"/>
<defs>
<filter id="filter0_i_6626_85035" x="39.3472" y="19.5095" width="221.305" height="188.896" filterUnits="userSpaceOnUse" color-interpolation-filters="sRGB">
<feFlood flood-opacity="0" result="BackgroundImageFix"/>
<feBlend mode="normal" in="SourceGraphic" in2="BackgroundImageFix" result="shape"/>
<feColorMatrix in="SourceAlpha" type="matrix" values="0 0 0 0 0 0 0 0 0 0 0 0 0 0 0 0 0 0 127 0" result="hardAlpha"/>
<feOffset/>
<feGaussianBlur stdDeviation="6.08108"/>
<feComposite in2="hardAlpha" operator="arithmetic" k2="-1" k3="1"/>
<feColorMatrix type="matrix" values="0 0 0 0 0.92549 0 0 0 0 0.933333 0 0 0 0 0.964706 0 0 0 1 0"/>
<feBlend mode="normal" in2="shape" result="effect1_innerShadow_6626_85035"/>
</filter>
</defs>
</svg>
