<svg width="25" height="24" viewBox="0 0 25 24" fill="none" xmlns="http://www.w3.org/2000/svg">
<path fill-rule="evenodd" clip-rule="evenodd" d="M2.24805 6C2.24805 4.93913 2.66947 3.92172 3.41962 3.17157C4.16977 2.42143 5.18718 2 6.24805 2H18.248C19.3089 2 20.3263 2.42143 21.0765 3.17157C21.8266 3.92172 22.248 4.93913 22.248 6V18C22.248 19.0609 21.8266 20.0783 21.0765 20.8284C20.3263 21.5786 19.3089 22 18.248 22H6.24805C5.18718 22 4.16977 21.5786 3.41962 20.8284C2.66947 20.0783 2.24805 19.0609 2.24805 18V6ZM6.24805 4C5.71761 4 5.20891 4.21071 4.83383 4.58579C4.45876 4.96086 4.24805 5.46957 4.24805 6V18C4.24805 18.5304 4.45876 19.0391 4.83383 19.4142C5.20891 19.7893 5.71761 20 6.24805 20H12.248V13H11.248C10.9828 13 10.7285 12.8946 10.5409 12.7071C10.3534 12.5196 10.248 12.2652 10.248 12C10.248 11.7348 10.3534 11.4804 10.5409 11.2929C10.7285 11.1054 10.9828 11 11.248 11H12.248V9.5C12.248 8.57174 12.6168 7.6815 13.2732 7.02513C13.9296 6.36875 14.8198 6 15.748 6H16.348C16.6133 6 16.8676 6.10536 17.0552 6.29289C17.2427 6.48043 17.348 6.73478 17.348 7C17.348 7.26522 17.2427 7.51957 17.0552 7.70711C16.8676 7.89464 16.6133 8 16.348 8H15.748C15.5511 8 15.356 8.0388 15.174 8.11418C14.992 8.18956 14.8267 8.30005 14.6874 8.43934C14.5481 8.57863 14.4376 8.74399 14.3622 8.92597C14.2868 9.10796 14.248 9.30302 14.248 9.5V11H16.348C16.6133 11 16.8676 11.1054 17.0552 11.2929C17.2427 11.4804 17.348 11.7348 17.348 12C17.348 12.2652 17.2427 12.5196 17.0552 12.7071C16.8676 12.8946 16.6133 13 16.348 13H14.248V20H18.248C18.7785 20 19.2872 19.7893 19.6623 19.4142C20.0373 19.0391 20.248 18.5304 20.248 18V6C20.248 5.46957 20.0373 4.96086 19.6623 4.58579C19.2872 4.21071 18.7785 4 18.248 4H6.24805Z" fill="#AEB5D1"/>
</svg>
