<svg width="25" height="24" viewBox="0 0 25 24" fill="none" xmlns="http://www.w3.org/2000/svg">
<path fill-rule="evenodd" clip-rule="evenodd" d="M2.24805 6C2.24805 4.93913 2.66947 3.92172 3.41962 3.17157C4.16977 2.42143 5.18718 2 6.24805 2H18.248C19.3089 2 20.3263 2.42143 21.0765 3.17157C21.8266 3.92172 22.248 4.93913 22.248 6V18C22.248 19.0609 21.8266 20.0783 21.0765 20.8284C20.3263 21.5786 19.3089 22 18.248 22H6.24805C5.18718 22 4.16977 21.5786 3.41962 20.8284C2.66947 20.0783 2.24805 19.0609 2.24805 18V6ZM6.24805 4C5.71761 4 5.20891 4.21071 4.83383 4.58579C4.45876 4.96086 4.24805 5.46957 4.24805 6V18C4.24805 18.5304 4.45876 19.0391 4.83383 19.4142C5.20891 19.7893 5.71761 20 6.24805 20H18.248C18.7785 20 19.2872 19.7893 19.6623 19.4142C20.0373 19.0391 20.248 18.5304 20.248 18V6C20.248 5.46957 20.0373 4.96086 19.6623 4.58579C19.2872 4.21071 18.7785 4 18.248 4H6.24805ZM12.248 9C11.4524 9 10.6893 9.31607 10.1267 9.87868C9.56412 10.4413 9.24805 11.2044 9.24805 12C9.24805 12.7956 9.56412 13.5587 10.1267 14.1213C10.6893 14.6839 11.4524 15 12.248 15C13.0437 15 13.8068 14.6839 14.3694 14.1213C14.932 13.5587 15.248 12.7956 15.248 12C15.248 11.2044 14.932 10.4413 14.3694 9.87868C13.8068 9.31607 13.0437 9 12.248 9ZM7.24805 12C7.24805 10.6739 7.77483 9.40215 8.71251 8.46447C9.6502 7.52678 10.922 7 12.248 7C13.5741 7 14.8459 7.52678 15.7836 8.46447C16.7213 9.40215 17.248 10.6739 17.248 12C17.248 13.3261 16.7213 14.5979 15.7836 15.5355C14.8459 16.4732 13.5741 17 12.248 17C10.922 17 9.6502 16.4732 8.71251 15.5355C7.77483 14.5979 7.24805 13.3261 7.24805 12ZM17.748 8C18.1459 8 18.5274 7.84196 18.8087 7.56066C19.09 7.27936 19.248 6.89782 19.248 6.5C19.248 6.10218 19.09 5.72064 18.8087 5.43934C18.5274 5.15804 18.1459 5 17.748 5C17.3502 5 16.9687 5.15804 16.6874 5.43934C16.4061 5.72064 16.248 6.10218 16.248 6.5C16.248 6.89782 16.4061 7.27936 16.6874 7.56066C16.9687 7.84196 17.3502 8 17.748 8Z" fill="#AEB5D1"/>
</svg>
