<svg width="72" height="72" viewBox="0 0 72 72" fill="none" xmlns="http://www.w3.org/2000/svg">
<g clip-path="url(#clip0_175_20965)">
<path d="M69.582 14.0625H22.0508C20.4758 14.0625 19.2383 15.3 19.2383 16.875V17.7188H64.2945C66.7695 17.7188 68.7945 19.7437 68.7945 22.2188V46.0125H69.6383C71.2133 46.0125 72.4508 44.775 72.4508 43.2V16.875C72.3945 15.3 71.1008 14.0625 69.582 14.0625Z" fill="#4563FF"/>
<path d="M64.2383 51.8621H16.707C14.8508 51.8621 13.332 50.3434 13.332 48.4871V22.1621C13.332 20.3059 14.8508 18.7871 16.707 18.7871H64.2383C66.0945 18.7871 67.6133 20.3059 67.6133 22.1621V48.4309C67.6133 50.3434 66.0945 51.8621 64.2383 51.8621ZM16.707 19.9121C15.4695 19.9121 14.457 20.9246 14.457 22.1621V48.4309C14.457 49.6684 15.4695 50.6809 16.707 50.6809H64.2383C65.4758 50.6809 66.4883 49.6684 66.4883 48.4309V22.1621C66.4883 20.9246 65.4758 19.9121 64.2383 19.9121H16.707Z" fill="#4563FF"/>
<path d="M47.082 25.875C48.657 25.875 49.8945 27.1125 49.8945 28.6875C49.8945 30.2625 48.657 31.5 47.082 31.5C45.507 31.5 44.2695 30.2625 44.2695 28.6875C44.2695 27.1125 45.5633 25.875 47.082 25.875ZM47.082 24.75C44.8883 24.75 43.1445 26.4937 43.1445 28.6875C43.1445 30.8813 44.8883 32.625 47.082 32.625C49.2758 32.625 51.0195 30.8813 51.0195 28.6875C51.0195 26.4937 49.2758 24.75 47.082 24.75Z" fill="#4563FF"/>
<path d="M57.7695 32.625C59.9442 32.625 61.707 30.8621 61.707 28.6875C61.707 26.5129 59.9442 24.75 57.7695 24.75C55.5949 24.75 53.832 26.5129 53.832 28.6875C53.832 30.8621 55.5949 32.625 57.7695 32.625Z" fill="#FF0029"/>
<path d="M16.1445 61.8184C12.9945 61.8184 10.0133 60.5809 7.81954 58.3309C7.59454 58.1059 7.59454 57.7684 7.81954 57.5434C8.04454 57.3184 8.38202 57.3184 8.60702 57.5434C10.632 59.5684 13.332 60.6934 16.1445 60.6934C22.0508 60.6934 26.832 55.9121 26.832 50.0059C26.832 44.0996 22.0508 39.3184 16.1445 39.3184C10.2383 39.3184 5.45703 44.0996 5.45703 50.0059V51.6934C5.45703 52.0309 5.23203 52.2559 4.89453 52.2559C4.55703 52.2559 4.33203 52.0309 4.33203 51.6934V50.0059C4.33203 43.4809 9.61953 38.1934 16.1445 38.1934C22.6695 38.1934 27.957 43.4809 27.957 50.0059C27.957 56.5309 22.6133 61.8184 16.1445 61.8184Z" fill="#4563FF"/>
<path d="M4.89454 53.0434L0.000781257 48.1496C-0.224219 47.9246 -0.224219 47.5871 0.000781257 47.3621C0.225781 47.1371 0.563278 47.1371 0.788278 47.3621L4.89454 51.4684L9.00078 47.3621C9.22578 47.1371 9.56329 47.1371 9.78829 47.3621C10.0133 47.5871 10.0133 47.9246 9.78829 48.1496L4.89454 53.0434Z" fill="#4563FF"/>
</g>
<defs>
<clipPath id="clip0_175_20965">
<rect width="72" height="72" fill="white"/>
</clipPath>
</defs>
</svg>
