<svg width="60" height="60" viewBox="0 0 60 60" fill="none" xmlns="http://www.w3.org/2000/svg">
<g clip-path="url(#clip0_6006_33571)">
<rect width="60" height="60" rx="30" fill="white"/>
<path d="M35.9477 1.75977V16.6795H29.9473C22.3672 16.6795 16.2598 22.5664 16.2598 29.8748C16.2598 37.1804 22.3672 43.0673 29.9445 43.0673H35.9477V57.987C49.6324 55.4499 59.848 43.8799 59.848 29.872C59.848 15.9688 49.6352 4.39882 35.9477 1.75977Z" fill="#003791"/>
<path d="M29.947 47.7332C19.7341 47.7332 11.4135 39.7169 11.4135 29.8742C11.4135 20.0315 19.7313 12.0124 29.9413 12.0124H31.1014V1.15039H29.9441C13.5225 1.15039 0.150391 14.0399 0.150391 29.8714C0.150391 45.8077 13.5225 58.6971 29.947 58.6971H31.1042V47.7387H29.947V47.7332Z" fill="#FF4B5F"/>
</g>
<defs>
<clipPath id="clip0_6006_33571">
<rect width="60" height="60" fill="white"/>
</clipPath>
</defs>
</svg>
