<svg width="227" height="146" viewBox="0 0 227 146" fill="none" xmlns="http://www.w3.org/2000/svg">
<path d="M115.033 0.125C84.0981 0.125 56.106 12.5917 35.8164 32.7878L65.6245 62.4586C78.2742 49.8672 95.7458 42.0755 115.033 42.0755C153.609 42.0755 184.857 73.18 184.857 111.577H227.002C227.002 50.0542 176.841 0.125 115.033 0.125Z" fill="#4563FF"/>
<path d="M3 111.639H45.1447C45.1447 92.4404 52.9725 75.0493 65.6221 62.4579L35.814 32.7871C15.5244 52.9832 3 80.8463 3 111.639Z" fill="#FF0029"/>
<rect x="2.2592" y="64.5044" width="16" height="16" rx="8" transform="rotate(-24.6104 2.2592 64.5044)" fill="white" stroke="black" stroke-width="2"/>
<path d="M14.2247 130.211H19.7327V130.607L16.6547 133.271V134.945C16.9427 134.873 17.3027 134.837 17.7527 134.837C19.5707 134.837 20.5967 135.863 20.5967 137.519C20.5967 139.229 19.4627 140.273 17.7347 140.273C16.9607 140.273 16.3127 140.057 15.7907 139.625C15.2687 139.193 14.9627 138.617 14.9087 137.915H13.3247C13.3787 139.013 13.8107 139.913 14.6207 140.615C15.4307 141.317 16.4747 141.677 17.7347 141.677C19.0487 141.677 20.1107 141.299 20.9387 140.561C21.7667 139.823 22.1807 138.797 22.1807 137.519C22.1807 135.143 20.6687 133.739 18.4367 133.685V133.307L21.5867 130.607V128.843H14.2247V130.211ZM24.5006 135.143C24.5006 139.481 26.3186 141.677 29.1266 141.677C31.9346 141.677 33.7706 139.481 33.7706 135.143C33.7706 130.805 31.9346 128.591 29.1266 128.591C26.3186 128.591 24.5006 130.769 24.5006 135.143ZM26.0846 135.143C26.0846 131.903 27.0926 129.995 29.1266 129.995C29.7386 129.995 30.2786 130.175 30.7286 130.535L26.7326 138.707C26.3006 137.861 26.0846 136.673 26.0846 135.143ZM29.1266 140.273C28.5146 140.273 27.9926 140.093 27.5426 139.751L31.5386 131.597C31.9706 132.479 32.1866 133.649 32.1866 135.143C32.1866 138.365 31.1606 140.273 29.1266 140.273ZM35.8385 135.143C35.8385 139.481 37.6565 141.677 40.4645 141.677C43.2725 141.677 45.1085 139.481 45.1085 135.143C45.1085 130.805 43.2725 128.591 40.4645 128.591C37.6565 128.591 35.8385 130.769 35.8385 135.143ZM37.4225 135.143C37.4225 131.903 38.4305 129.995 40.4645 129.995C41.0765 129.995 41.6165 130.175 42.0665 130.535L38.0705 138.707C37.6385 137.861 37.4225 136.673 37.4225 135.143ZM40.4645 140.273C39.8525 140.273 39.3305 140.093 38.8805 139.751L42.8765 131.597C43.3085 132.479 43.5245 133.649 43.5245 135.143C43.5245 138.365 42.4985 140.273 40.4645 140.273Z" fill="black"/>
<path d="M194.457 134.601C195.249 134.223 196.041 133.251 196.041 131.955C196.041 130.965 195.645 130.155 194.871 129.525C194.097 128.895 193.089 128.589 191.865 128.589C190.641 128.589 189.633 128.895 188.859 129.525C188.085 130.155 187.689 130.965 187.689 131.955C187.689 133.269 188.463 134.223 189.273 134.601V134.997C188.265 135.357 187.311 136.473 187.311 138.003C187.311 139.065 187.725 139.929 188.553 140.631C189.399 141.333 190.497 141.675 191.865 141.675C193.233 141.675 194.331 141.333 195.159 140.631C196.005 139.929 196.419 139.065 196.419 138.003C196.419 137.229 196.221 136.581 195.807 136.059C195.393 135.537 194.943 135.177 194.457 134.997V134.601ZM193.737 130.515C194.241 130.875 194.493 131.379 194.493 132.027C194.493 132.675 194.241 133.179 193.737 133.557C193.233 133.935 192.603 134.115 191.865 134.115C191.127 134.115 190.497 133.935 189.993 133.557C189.489 133.179 189.237 132.675 189.237 132.027C189.237 131.379 189.489 130.875 189.993 130.515C190.497 130.137 191.127 129.957 191.865 129.957C192.603 129.957 193.233 130.137 193.737 130.515ZM189.687 139.623C189.147 139.173 188.877 138.597 188.877 137.859C188.877 137.121 189.147 136.545 189.669 136.131C190.209 135.699 190.947 135.483 191.865 135.483C192.783 135.483 193.521 135.699 194.043 136.131C194.583 136.545 194.853 137.121 194.853 137.859C194.853 138.597 194.583 139.173 194.043 139.623C193.503 140.055 192.783 140.271 191.865 140.271C190.947 140.271 190.227 140.055 189.687 139.623ZM203.581 132.963C202.609 132.963 201.799 133.251 201.151 133.845H200.755L201.043 130.209H206.965V128.841H199.765L199.207 135.483H200.791C201.331 134.691 202.159 134.295 203.293 134.295C204.967 134.295 206.047 135.501 206.047 137.247C206.047 139.101 204.913 140.271 203.239 140.271C201.673 140.271 200.647 139.443 200.485 137.913H198.919C199.063 140.145 200.647 141.675 203.311 141.675C204.589 141.675 205.633 141.261 206.425 140.451C207.235 139.623 207.631 138.525 207.631 137.175C207.631 135.969 207.271 134.961 206.533 134.169C205.795 133.359 204.823 132.963 203.581 132.963ZM209.897 135.141C209.897 139.479 211.715 141.675 214.523 141.675C217.331 141.675 219.167 139.479 219.167 135.141C219.167 130.803 217.331 128.589 214.523 128.589C211.715 128.589 209.897 130.767 209.897 135.141ZM211.481 135.141C211.481 131.901 212.489 129.993 214.523 129.993C215.135 129.993 215.675 130.173 216.125 130.533L212.129 138.705C211.697 137.859 211.481 136.671 211.481 135.141ZM214.523 140.271C213.911 140.271 213.389 140.091 212.939 139.749L216.935 131.595C217.367 132.477 217.583 133.647 217.583 135.141C217.583 138.363 216.557 140.271 214.523 140.271Z" fill="black"/>
<path d="M113.745 84.672C111.105 84.672 108.985 85.392 107.425 86.832C105.865 88.272 105.025 90.312 104.905 92.952H108.345C108.465 91.192 108.945 89.872 109.785 88.992C110.625 88.112 111.945 87.632 113.785 87.632C114.825 87.632 115.785 87.872 116.625 88.352C117.465 88.832 118.105 89.592 118.585 90.592C118.785 91.232 118.905 91.832 118.905 92.392C118.905 93.072 118.825 93.672 118.665 94.192C118.345 95.032 117.865 95.752 117.225 96.312C116.585 96.912 115.945 97.472 115.265 97.952C114.625 98.432 114.065 98.912 113.585 99.352C113.105 99.792 112.705 100.272 112.385 100.752C112.065 101.232 111.825 101.792 111.665 102.432C111.505 103.072 111.425 103.872 111.425 104.752V105.312H114.865V104.752C114.865 104.072 114.905 103.512 115.025 103.112C115.065 102.752 115.225 102.392 115.465 101.992C115.705 101.632 115.945 101.312 116.265 101.072C116.585 100.792 116.985 100.472 117.465 100.112C118.185 99.592 118.825 99.072 119.425 98.592C119.985 98.112 120.505 97.552 120.945 96.952C121.385 96.352 121.745 95.672 121.985 94.952C122.225 94.232 122.345 93.352 122.345 92.392C122.345 91.152 122.105 90.032 121.665 89.072C121.225 88.112 120.625 87.312 119.865 86.672C119.065 86.032 118.185 85.512 117.145 85.192C116.105 84.872 114.945 84.672 113.745 84.672ZM110.505 108.312V113.752H115.825V108.312H110.505Z" fill="black"/>
</svg>
