<svg width="113" height="110" viewBox="0 0 113 110" fill="none" xmlns="http://www.w3.org/2000/svg">
<path d="M39.2637 20.4287C38.5801 23.0571 37.2344 25.4185 35.416 27.3237H41.625C44.9375 27.3237 47.625 30.0103 47.625 33.3237V78.0186C47.625 81.3325 44.9375 84.0186 41.625 84.0186H6.49023C3.17578 84.0186 0.490234 81.3325 0.490234 78.0186V33.3237C0.490234 30.0103 3.17578 27.3237 6.49023 27.3237H12.6602C10.8418 25.4185 9.49609 23.0571 8.8125 20.4287H39.2637Z" fill="#344CCC"/>
<path d="M39.2676 12.5098C37.5137 5.73584 31.3594 0.732422 24.0391 0.732422C16.7168 0.732422 10.5625 5.73584 8.80859 12.5098H39.2676Z" fill="#344CCC"/>
<path d="M26.7129 16.3782C26.7129 18.1486 28.1754 19.6112 29.9459 19.6112C31.7163 19.6112 33.1788 18.1486 33.1788 16.3782C33.1788 14.6077 31.7163 13.1452 29.9459 13.1452C28.1754 13.0394 26.7129 14.6077 26.7129 16.3782Z" fill="#344CCC"/>
<path d="M14.9375 16.3782C14.9375 18.1486 16.4 19.6112 18.1705 19.6112C19.9409 19.6112 21.4035 18.1486 21.4035 16.3782C21.4035 14.6077 19.9409 13.1452 18.1705 13.1452C16.4 13.0394 14.9375 14.6077 14.9375 16.3782Z" fill="#344CCC"/>
<rect x="23.2852" y="45.2051" width="89.2055" height="54.403" rx="6" fill="#344CCC"/>
<rect x="15.5879" y="55.0098" width="89.2055" height="54.403" rx="6" fill="white"/>
<path d="M88.5426 77.8549C92.1701 77.8549 95.1048 74.9202 95.1048 71.2927C95.1048 67.6652 92.1701 64.7305 88.5426 64.7305C84.9151 64.7305 81.9805 67.6652 81.9805 71.2927C81.9805 74.9202 84.9151 77.8549 88.5426 77.8549Z" fill="#FF0029"/>
<path d="M71.0289 77.8549C74.6564 77.8549 77.5912 74.9202 77.5912 71.2927C77.5912 67.6652 74.6564 64.7305 71.0289 64.7305C67.4015 64.7305 64.4668 67.6652 64.4668 71.2927C64.4668 74.9202 67.4015 77.8549 71.0289 77.8549Z" fill="#4C6AFF"/>
</svg>
