<svg width="64" height="61" viewBox="0 0 64 61" fill="none" xmlns="http://www.w3.org/2000/svg">
<path d="M13.9703 0C9.87647 0 6.42538 2.8084 5.43164 6.61054H22.5089C21.5151 2.803 18.1234 0 13.9703 0Z" fill="#4563FF"/>
<path d="M15.4336 8.82922C15.4336 9.82296 16.2545 10.6439 17.2482 10.6439C18.242 10.6439 19.0629 9.82296 19.0629 8.82922C19.0629 7.83548 18.242 7.01456 17.2482 7.01456C16.2545 6.95515 15.4336 7.83548 15.4336 8.82922Z" fill="#4563FF"/>
<path d="M60.641 26.1965H27.2427V18.36C27.2427 16.7235 25.9573 15.4382 24.3209 15.4382H19.8167C21.102 14.2662 22.0958 12.7486 22.5062 11.0527H5.429C5.89887 12.808 6.83319 14.3256 8.11858 15.4382H3.67375C2.03732 15.4382 0.751953 16.7235 0.751953 18.36V43.8624C0.751953 45.4988 2.03732 46.7842 3.67375 46.7842H8.05918V33.9736C8.05918 31.4028 10.1655 29.2965 12.7363 29.2965H55.7858C58.3565 29.2965 60.4628 31.4028 60.4628 33.9736V55.4957H60.6951C62.3315 55.4957 63.6169 54.2103 63.6169 52.5738V29.1237C63.5683 27.4819 62.2775 26.1965 60.641 26.1965Z" fill="#4563FF"/>
<path d="M8.81641 8.82922C8.81641 9.82296 9.63732 10.6439 10.6311 10.6439C11.6248 10.6439 12.4457 9.82296 12.4457 8.82922C12.4457 7.83548 11.6248 7.01456 10.6311 7.01456C9.63732 6.95515 8.81641 7.83548 8.81641 8.82922Z" fill="#4563FF"/>
<path d="M55.7866 61.0008H12.7371C10.809 61.0008 9.22656 59.4238 9.22656 57.4903V33.9753C9.22656 32.0473 10.8036 30.4648 12.7371 30.4648H55.7866C57.7146 30.4648 59.2971 32.0419 59.2971 33.9753V57.4849C59.2971 59.4184 57.72 61.0008 55.7866 61.0008ZM12.7424 31.6368C11.4571 31.6368 10.4039 32.69 10.4039 33.9753V57.4849C10.4039 58.7703 11.4571 59.8234 12.7424 59.8234H55.792C57.0774 59.8234 58.1305 58.7703 58.1305 57.4849V33.9753C58.1305 32.69 57.0774 31.6368 55.792 31.6368H12.7424Z" fill="#4563FF"/>
<path d="M40.3454 37.1334C41.7496 37.1334 42.8622 38.2459 42.8622 39.6501C42.8622 41.0543 41.7496 42.1669 40.3454 42.1669C38.9412 42.1669 37.8287 41.0543 37.8287 39.6501C37.8881 38.2459 39.0006 37.1334 40.3454 37.1334ZM40.3454 35.9668C38.2985 35.9668 36.6621 37.6032 36.6621 39.6501C36.6621 41.697 38.2985 43.3334 40.3454 43.3334C42.3923 43.3334 44.0288 41.697 44.0288 39.6501C44.0288 37.6032 42.3923 35.9668 40.3454 35.9668Z" fill="#4563FF"/>
<path d="M50.1716 43.3334C52.2077 43.3334 53.8549 41.6862 53.8549 39.6501C53.8549 37.614 52.2077 35.9668 50.1716 35.9668C48.1355 35.9668 46.4883 37.614 46.4883 39.6501C46.4883 41.6862 48.1355 43.3334 50.1716 43.3334Z" fill="#FF0029"/>
</svg>
