<svg width="25" height="24" viewBox="0 0 25 24" fill="none" xmlns="http://www.w3.org/2000/svg">
<path fill-rule="evenodd" clip-rule="evenodd" d="M3.41962 3.17157C2.66947 3.92172 2.24805 4.93913 2.24805 6V18C2.24805 19.0609 2.66947 20.0783 3.41962 20.8284C4.16977 21.5786 5.18718 22 6.24805 22H18.248C19.3089 22 20.3263 21.5786 21.0765 20.8284C21.8266 20.0783 22.248 19.0609 22.248 18V6C22.248 4.93913 21.8266 3.92172 21.0765 3.17157C20.3263 2.42143 19.3089 2 18.248 2H6.24805C5.18718 2 4.16977 2.42143 3.41962 3.17157ZM4.83383 4.58579C5.20891 4.21071 5.71761 4 6.24805 4H18.248C18.7785 4 19.2872 4.21071 19.6623 4.58579C20.0373 4.96086 20.248 5.46957 20.248 6V18C20.248 18.5304 20.0373 19.0391 19.6623 19.4142C19.2872 19.7893 18.7785 20 18.248 20H6.24805C5.71761 20 5.20891 19.7893 4.83383 19.4142C4.45876 19.0391 4.24805 18.5304 4.24805 18V6C4.24805 5.46957 4.45876 4.96086 4.83383 4.58579Z" fill="#AEB5D1"/>
<path fill-rule="evenodd" clip-rule="evenodd" d="M8.1955 9.67958L8.19553 9.67966L8.1967 9.68308L8.20293 9.70105C8.20879 9.71781 8.21801 9.74393 8.23048 9.77843C8.25544 9.84748 8.29334 9.94985 8.34326 10.0778C8.44337 10.3343 8.59046 10.6902 8.77714 11.0845C9.16278 11.899 9.67045 12.7757 10.223 13.3203C10.6053 13.6971 10.964 13.8671 11.2483 13.9425V10.0003C11.2483 9.44799 11.696 9.00027 12.2483 9.00027C12.8006 9.00027 13.2483 9.44799 13.2483 10.0003V12.4366L13.5578 12.1412L16.5578 9.27698C16.9572 8.8956 17.5902 8.91027 17.9716 9.30973C18.353 9.70919 18.3383 10.3422 17.9389 10.7236L15.8144 12.7519L17.8283 14.1856C18.2782 14.5059 18.3833 15.1303 18.063 15.5802C17.7426 16.0302 17.1183 16.1352 16.6683 15.8149L13.6683 13.6791L13.2483 13.3801V14.9286C13.2483 15.3606 12.9709 15.7438 12.5605 15.8786L12.2483 14.9286C12.5605 15.8786 12.5599 15.8788 12.5593 15.879L12.5582 15.8794L12.5558 15.8801L12.5505 15.8818L12.5385 15.8856C12.5297 15.8883 12.5194 15.8914 12.5078 15.8947C12.4845 15.9014 12.4556 15.9091 12.4213 15.9174C12.3529 15.9339 12.2626 15.9524 12.1534 15.9678C11.9356 15.9985 11.6381 16.0171 11.2872 15.9786C10.5699 15.9001 9.67357 15.587 8.81906 14.7447C8.008 13.9453 7.37931 12.8059 6.9695 11.9403C6.75845 11.4945 6.59304 11.0943 6.48008 10.8048C6.42347 10.6597 6.37969 10.5416 6.34961 10.4584C6.33456 10.4167 6.32292 10.3838 6.31479 10.3605L6.30524 10.333L6.30246 10.3249L6.30157 10.3222L6.30125 10.3213L6.30113 10.3209C6.30107 10.3208 6.30102 10.3206 7.24832 10.0003L6.30102 10.3206C6.12409 9.79745 6.40478 9.2299 6.92796 9.05298C7.45093 8.87611 8.01825 9.15652 8.19541 9.6793L8.19546 9.67945L8.1955 9.67958Z" fill="#AEB5D1"/>
</svg>
