<svg width="25" height="24" viewBox="0 0 25 24" fill="none" xmlns="http://www.w3.org/2000/svg">
<path fill-rule="evenodd" clip-rule="evenodd" d="M8.0928 4.77475C10.6848 4.40775 13.8108 4.40775 16.4028 4.77475C18.7578 5.10875 20.5828 6.76075 20.9308 8.54075C21.3538 10.6958 21.3538 13.3038 20.9308 15.4587C20.5818 17.2387 18.7578 18.8908 16.4028 19.2248C13.8108 19.5918 10.6838 19.5918 8.0928 19.2248C5.7378 18.8908 3.9138 17.2387 3.5648 15.4587C3.1418 13.3038 3.1418 10.6958 3.5648 8.54075C3.9138 6.76075 5.7378 5.10875 8.0928 4.77475ZM16.6828 2.79475C13.9058 2.40175 10.5898 2.40175 7.8128 2.79475C4.7978 3.22175 2.1478 5.37275 1.6028 8.15675C1.1298 10.5658 1.1298 13.4338 1.6028 15.8428C2.1478 18.6268 4.7978 20.7778 7.8128 21.2048C10.5898 21.5977 13.9058 21.5977 16.6828 21.2048C19.6978 20.7778 22.3478 18.6268 22.8928 15.8428C23.3658 13.4338 23.3658 10.5658 22.8928 8.15675C22.3478 5.37275 19.6978 3.22175 16.6828 2.79475ZM10.8028 7.16775C10.6522 7.06727 10.4771 7.00956 10.2963 7.00078C10.1155 6.99199 9.93566 7.03247 9.77603 7.11788C9.6164 7.20329 9.48295 7.33043 9.38992 7.48574C9.29689 7.64105 9.24777 7.81871 9.2478 7.99975V15.9998C9.24777 16.1808 9.29689 16.3584 9.38992 16.5138C9.48295 16.6691 9.6164 16.7962 9.77603 16.8816C9.93566 16.967 10.1155 17.0075 10.2963 16.9987C10.4771 16.9899 10.6522 16.9322 10.8028 16.8318L16.8028 12.8317C16.9398 12.7404 17.052 12.6167 17.1297 12.4716C17.2074 12.3264 17.248 12.1644 17.248 11.9998C17.248 11.8351 17.2074 11.6731 17.1297 11.5279C17.052 11.3828 16.9398 11.2591 16.8028 11.1678L10.8028 7.16775ZM14.4448 11.9998L11.2478 14.1318V9.86875L14.4448 11.9998Z" fill="#AEB5D1"/>
</svg>
