<svg width="158" height="32" viewBox="0 0 158 32" fill="none" xmlns="http://www.w3.org/2000/svg">
<g clip-path="url(#clip0_6003_66386)">
<path d="M69.1503 0.0878906V32.0001H64.1663V18.0566H49.337V32.0028H44.353V0.0878906H49.337V13.0496H64.1663V0.0878906H69.1503Z" fill="black"/>
<path d="M89.1726 12.6479C95.6526 12.6479 99.3077 16.2236 99.3077 22.3027C99.3077 28.3819 95.6526 32.0028 89.1726 32.0028H75.8394V0.0878906H96.8562V4.95919H80.8234V12.6479H89.1726V12.6479ZM88.3006 27.2618C92.7442 27.2618 94.2819 25.3835 94.2819 22.167C94.2819 18.9931 92.6632 17.1175 88.3006 17.1175H80.8234V27.2645H88.3006V27.2618Z" fill="black"/>
<path d="M104.218 0.0878906H109.202V13.1401H117.219L122.911 0.0878906H128.062L121.415 15.5984L128.435 32.0028H123.284L117.219 18.0114H109.202V32.0001H104.218V0.0878906Z" fill="black"/>
<path d="M137.688 0.0878906V24.9392H138.685L150.938 0.0878906H158V32.0001H153.264V7.14875H152.267L140.014 32.0001H132.952V0.0878906H137.688Z" fill="black"/>
<path d="M5.40421 24.4138C6.48748 24.4138 7.36933 25.3556 7.36933 26.5156C7.36933 27.6755 6.48748 28.6173 5.40421 28.6173C4.32094 28.6173 3.4391 27.6755 3.4391 26.5156C3.4391 25.3583 4.32094 24.4138 5.40421 24.4138ZM5.40421 23.3496C3.77563 23.3496 2.45654 24.7676 2.45654 26.5156C2.45654 28.2635 3.77563 29.6815 5.40421 29.6815C7.0328 29.6815 8.35188 28.2635 8.35188 26.5156C8.35188 24.7676 7.0328 23.3496 5.40421 23.3496Z" fill="#4563FF"/>
<path d="M10.0713 31.9255H19.8969V0H10.0713V31.9255ZM14.9841 29.7971C13.3555 29.7971 12.0364 28.3685 12.0364 26.6046C12.0364 24.8407 13.3555 23.412 14.9841 23.412C16.6127 23.412 17.9317 24.8407 17.9317 26.6046C17.9317 28.3685 16.6127 29.7971 14.9841 29.7971Z" fill="#4563FF"/>
<path d="M27.2661 0H19.897V31.9255H27.2661C28.6221 31.9255 29.7225 30.7336 29.7225 29.265V2.66046C29.7225 1.19189 28.6221 0 27.2661 0ZM24.8098 29.7971C23.1812 29.7971 21.8621 28.3685 21.8621 26.6046C21.8621 24.8407 23.1812 23.412 24.8098 23.412C26.4383 23.412 27.7574 24.8407 27.7574 26.6046C27.7574 28.3685 26.4383 29.7971 24.8098 29.7971Z" fill="#FF0029"/>
<path d="M10.5625 1.06418V30.8613H2.45639C1.64333 30.8613 0.982557 30.1457 0.982557 29.265V2.66046C0.982557 1.77985 1.64333 1.06418 2.45639 1.06418H10.5625ZM11.545 0H2.45639C1.10046 0 0 1.19189 0 2.66046V29.265C0 30.7336 1.10046 31.9255 2.45639 31.9255H11.545V0Z" fill="#4563FF"/>
</g>
<defs>
<clipPath id="clip0_6003_66386">
<rect width="158" height="32" fill="white"/>
</clipPath>
</defs>
</svg>
