<svg width="105" height="97" viewBox="0 0 105 97" fill="none" xmlns="http://www.w3.org/2000/svg">
<path d="M97.821 94.5566C98.7692 96.2411 100.903 96.838 102.588 95.8899C104.272 94.9418 104.869 92.8076 103.921 91.1231L97.821 94.5566ZM0.95108 91.1231C0.00295258 92.8076 0.599891 94.9418 2.28439 95.8899C3.96889 96.838 6.10305 96.2411 7.05118 94.5566L0.95108 91.1231ZM52.4361 68.0016C71.913 68.0016 88.8958 78.6995 97.821 94.5566L103.921 91.1231C93.8063 73.1525 74.5425 61.0016 52.4361 61.0016L52.4361 68.0016ZM7.05118 94.5566C15.9764 78.6995 32.9593 68.0016 52.4361 68.0016L52.4361 61.0016C30.3297 61.0016 11.0659 73.1525 0.95108 91.1231L7.05118 94.5566Z" fill="#7B7794"/>
<circle cx="16" cy="10" r="10" fill="#7B7794"/>
<circle cx="88" cy="10" r="10" fill="#7B7794"/>
</svg>
