<svg width="180" height="53" viewBox="0 0 180 53" fill="none" xmlns="http://www.w3.org/2000/svg">
<path d="M173.095 52.7266H6.6575C2.99754 52.7266 0 49.7999 0 46.2266V7.22657C0 3.65319 2.99754 0.726565 6.6575 0.726565H173.095C176.755 0.726565 179.753 3.65319 179.753 7.22657V46.2266C179.753 49.7999 176.755 52.7266 173.095 52.7266Z" fill="black"/>
<path d="M173.095 1.76819C176.177 1.76819 178.686 4.21706 178.686 7.22657V46.2266C178.686 49.2361 176.177 51.6849 173.095 51.6849H6.6575C3.57508 51.6849 1.06686 49.2361 1.06686 46.2266V7.22657C1.06686 4.21706 3.57508 1.76819 6.6575 1.76819H173.095ZM173.095 0.726565H6.6575C2.99754 0.726565 0 3.65319 0 7.22657V46.2266C0 49.7999 2.99754 52.7266 6.6575 52.7266H173.095C176.755 52.7266 179.753 49.7999 179.753 46.2266V7.22657C179.753 3.65319 176.755 0.726565 173.095 0.726565Z" fill="#A6A6A6"/>
<path d="M90.7215 29.0048C87.5942 29.0048 85.0394 31.3286 85.0394 34.5347C85.0394 37.7148 87.5942 40.063 90.7215 40.063C93.8555 40.063 96.4104 37.7148 96.4104 34.5347C96.4104 31.3286 93.8555 29.0048 90.7215 29.0048ZM90.7215 37.8855C89.0056 37.8855 87.5293 36.5026 87.5293 34.5347C87.5293 32.5408 89.0056 31.1823 90.7215 31.1823C92.4375 31.1823 93.9205 32.5408 93.9205 34.5347C93.9205 36.5026 92.4375 37.8855 90.7215 37.8855ZM78.3236 29.0048C75.1896 29.0048 72.6414 31.3286 72.6414 34.5347C72.6414 37.7148 75.1896 40.063 78.3236 40.063C81.4559 40.063 84.0058 37.7148 84.0058 34.5347C84.0058 31.3286 81.4559 29.0048 78.3236 29.0048ZM78.3236 37.8855C76.606 37.8855 75.1247 36.5026 75.1247 34.5347C75.1247 32.5408 76.606 31.1823 78.3236 31.1823C80.0396 31.1823 81.5159 32.5408 81.5159 34.5347C81.5159 36.5026 80.0396 37.8855 78.3236 37.8855ZM63.5706 30.6997V33.0495H69.3177C69.1496 34.3625 68.7002 35.3277 68.0111 36.0005C67.1723 36.813 65.8657 37.7148 63.5706 37.7148C60.0338 37.7148 57.2643 34.928 57.2643 31.4748C57.2643 28.0217 60.0338 25.2348 63.5706 25.2348C65.4829 25.2348 66.8744 25.9645 67.9013 26.9102L69.5973 25.2543C68.1609 23.9153 66.2502 22.8867 63.5706 22.8867C58.7206 22.8867 54.6445 26.7396 54.6445 31.4748C54.6445 36.2101 58.7206 40.063 63.5706 40.063C66.192 40.063 68.1609 39.2245 69.7088 37.6515C71.2949 36.1028 71.7893 33.9253 71.7893 32.1671C71.7893 31.6211 71.7427 31.119 71.6594 30.6997H63.5706ZM123.898 32.5213C123.43 31.2847 121.987 29.0048 119.048 29.0048C116.135 29.0048 113.71 31.2457 113.71 34.5347C113.71 37.632 116.11 40.063 119.327 40.063C121.929 40.063 123.43 38.5143 124.047 37.6125L122.117 36.3563C121.473 37.2761 120.595 37.8855 119.327 37.8855C118.067 37.8855 117.163 37.3216 116.584 36.2101L124.159 33.1502L123.898 32.5213ZM116.175 34.3625C116.11 32.2305 117.871 31.1385 119.132 31.1385C120.121 31.1385 120.96 31.6211 121.24 32.3117L116.175 34.3625ZM110.018 39.7266H112.508V23.4766H110.018V39.7266ZM105.941 30.2366H105.857C105.298 29.5898 104.231 29.0048 102.88 29.0048C100.044 29.0048 97.4506 31.4358 97.4506 34.5526C97.4506 37.6515 100.044 40.063 102.88 40.063C104.231 40.063 105.298 39.4731 105.857 38.8068H105.941V39.5998C105.941 41.714 104.784 42.8498 102.918 42.8498C101.397 42.8498 100.453 41.7773 100.064 40.8755L97.8983 41.7578C98.5225 43.2236 100.175 45.0273 102.918 45.0273C105.837 45.0273 108.301 43.3503 108.301 39.27V29.3412H105.941V30.2366ZM103.093 37.8855C101.377 37.8855 99.9405 36.4831 99.9405 34.5526C99.9405 32.6042 101.377 31.1823 103.093 31.1823C104.784 31.1823 106.117 32.6042 106.117 34.5526C106.117 36.4831 104.784 37.8855 103.093 37.8855ZM135.555 23.4766H129.6V39.7266H132.083V33.5695H135.555C138.313 33.5695 141.017 31.6211 141.017 28.5222C141.017 25.425 138.306 23.4766 135.555 23.4766ZM135.62 31.3091H132.083V25.737H135.62C137.474 25.737 138.532 27.2401 138.532 28.5222C138.532 29.78 137.474 31.3091 135.62 31.3091ZM150.97 28.974C149.176 28.974 147.31 29.7475 146.543 31.4618L148.747 32.3637C149.221 31.4618 150.093 31.1693 151.015 31.1693C152.303 31.1693 153.61 31.925 153.63 33.2591V33.4297C153.181 33.1762 152.219 32.8008 151.035 32.8008C148.662 32.8008 146.243 34.0765 146.243 36.4571C146.243 38.6346 148.187 40.037 150.373 40.037C152.044 40.037 152.966 39.3008 153.545 38.4445H153.63V39.7006H156.028V33.4671C156.028 30.586 153.825 28.974 150.97 28.974ZM150.671 37.879C149.858 37.879 148.727 37.4857 148.727 36.5026C148.727 35.2448 150.138 34.7622 151.36 34.7622C152.453 34.7622 152.966 34.9978 153.63 35.3082C153.435 36.813 152.109 37.879 150.671 37.879ZM164.766 29.3298L161.912 36.3742H161.827L158.876 29.3298H156.198L160.632 39.1741L158.102 44.652H160.697L167.529 29.3298H164.766ZM142.382 39.7266H144.872V23.4766H142.382V39.7266Z" fill="white"/>
<path d="M13.8948 10.526C13.5037 10.9258 13.2773 11.5482 13.2773 12.3542V41.1037C13.2773 41.9097 13.5037 42.532 13.8948 42.9318L13.9914 43.0195L30.492 26.9158V26.5355L13.9914 10.4318L13.8948 10.526Z" fill="url(#paint0_linear)"/>
<path d="M35.9863 32.2871L30.4922 26.9165V26.5362L35.9929 21.1656L36.1161 21.2355L42.6305 24.8544C44.4896 25.8814 44.4896 27.5714 42.6305 28.6049L36.1161 32.2172L35.9863 32.2871Z" fill="url(#paint1_linear)"/>
<path d="M36.1156 32.2168L30.4917 26.7259L13.8945 42.932C14.512 43.5658 15.519 43.6422 16.6641 43.0084L36.1156 32.2168Z" fill="url(#paint2_linear)"/>
<path d="M36.1156 21.2357L16.6641 10.4441C15.519 9.81682 14.512 9.89319 13.8945 10.5269L30.4917 26.7266L36.1156 21.2357Z" fill="url(#paint3_linear)"/>
<path d="M62.28 15.9066V9.58656H57.76V11.0266C57.76 13.4066 57.32 14.9366 56.86 15.9066H56.12V18.4766H57.01V16.7266H62.42V18.4766H63.31V15.9066H62.28ZM61.39 15.9066H57.82C58.23 14.9766 58.62 13.3866 58.62 11.1766V10.4066H61.39V15.9066ZM67.9581 9.45656C65.7781 9.45656 64.6281 11.1066 64.6281 13.1566C64.6281 15.2066 65.7781 16.8566 67.9581 16.8566C70.1281 16.8566 71.2881 15.2066 71.2881 13.1566C71.2881 11.1066 70.1281 9.45656 67.9581 9.45656ZM67.9581 16.0366C66.2581 16.0366 65.5381 14.6466 65.5381 13.1566C65.5381 11.6666 66.2581 10.2766 67.9581 10.2766C69.6581 10.2766 70.3781 11.6666 70.3781 13.1566C70.3781 14.6466 69.6581 16.0366 67.9581 16.0366ZM78.0718 14.6966C77.8418 15.5266 77.1918 16.0366 76.1918 16.0366C74.5318 16.0366 73.8018 14.6766 73.8018 13.1566C73.8018 11.6466 74.5418 10.2766 76.2018 10.2766C77.1918 10.2766 77.7218 10.6966 77.9918 11.4566H78.9418C78.6518 10.2266 77.6518 9.45656 76.2018 9.45656C74.0818 9.45656 72.8918 11.0366 72.8918 13.1566C72.8918 15.2766 74.0618 16.8566 76.1918 16.8566C77.7618 16.8566 78.7318 15.9666 79.0218 14.6966H78.0718ZM85.7995 9.58656H80.1995V10.3866H82.5595V16.7266H83.4595V10.3866H85.7995V9.58656ZM89.6163 13.3366L87.6363 9.58656H86.6663L89.3063 14.5866L88.2863 16.7266H89.2163L92.6263 9.58656H91.6863L89.8963 13.3366H89.6163ZM94.2635 9.58656V16.7266H95.1635V10.4066H99.0835V16.7266H99.9835V9.58656H94.2635ZM107.193 9.58656V12.6266H103.203V9.58656H102.303V16.7266H103.203V13.4666H107.193V16.7266H108.093V9.58656H107.193ZM113.38 9.45656C111.2 9.45656 110.05 11.1066 110.05 13.1566C110.05 15.2066 111.2 16.8566 113.38 16.8566C115.55 16.8566 116.71 15.2066 116.71 13.1566C116.71 11.1066 115.55 9.45656 113.38 9.45656ZM113.38 16.0366C111.68 16.0366 110.96 14.6466 110.96 13.1566C110.96 11.6666 111.68 10.2766 113.38 10.2766C115.08 10.2766 115.8 11.6666 115.8 13.1566C115.8 14.6466 115.08 16.0366 113.38 16.0366ZM126.567 12.8466C127.087 12.5666 127.347 12.0366 127.347 11.3966C127.347 10.4166 126.577 9.58656 125.067 9.58656H121.957V16.7266H125.147C126.777 16.7266 127.567 15.8566 127.567 14.7166C127.567 13.9866 127.167 13.3466 126.567 13.0666V12.8466ZM122.857 10.3866H125.027C125.747 10.3866 126.437 10.6666 126.437 11.4766C126.437 12.3566 125.837 12.6166 125.047 12.6166H122.857V10.3866ZM122.857 15.9266V13.4066H125.097C125.937 13.4066 126.657 13.7266 126.657 14.6466C126.657 15.6366 125.897 15.9266 125.087 15.9266H122.857Z" fill="white"/>
<defs>
<linearGradient id="paint0_linear" x1="29.0269" y1="41.403" x2="7.21605" y2="19.0637" gradientUnits="userSpaceOnUse">
<stop stop-color="#00A0FF"/>
<stop offset="0.0066" stop-color="#00A1FF"/>
<stop offset="0.2601" stop-color="#00BEFF"/>
<stop offset="0.5122" stop-color="#00D2FF"/>
<stop offset="0.7604" stop-color="#00DFFF"/>
<stop offset="1" stop-color="#00E3FF"/>
</linearGradient>
<linearGradient id="paint1_linear" x1="45.0513" y1="26.7245" x2="12.8332" y2="26.7245" gradientUnits="userSpaceOnUse">
<stop stop-color="#FFE000"/>
<stop offset="0.4087" stop-color="#FFBD00"/>
<stop offset="0.7754" stop-color="#FFA500"/>
<stop offset="1" stop-color="#FF9C00"/>
</linearGradient>
<linearGradient id="paint2_linear" x1="33.0575" y1="23.741" x2="3.48018" y2="-6.55301" gradientUnits="userSpaceOnUse">
<stop stop-color="#FF3A44"/>
<stop offset="1" stop-color="#C31162"/>
</linearGradient>
<linearGradient id="paint3_linear" x1="9.71668" y1="52.4975" x2="22.9243" y2="38.97" gradientUnits="userSpaceOnUse">
<stop stop-color="#32A071"/>
<stop offset="0.0685" stop-color="#2DA771"/>
<stop offset="0.4762" stop-color="#15CF74"/>
<stop offset="0.8009" stop-color="#06E775"/>
<stop offset="1" stop-color="#00F076"/>
</linearGradient>
</defs>
</svg>
