<svg width="25" height="26" viewBox="0 0 25 26" fill="none" xmlns="http://www.w3.org/2000/svg">
<path d="M11.298 13.108H8.99622C8.97273 13.108 8.96099 13.12 8.94925 13.144C8.89053 14.2117 8.69089 15.3514 8.40904 16.2872C8.40904 16.2992 8.40904 16.3112 8.42079 16.3232C8.43253 16.3352 8.44427 16.3352 8.45602 16.3352H9.24284C9.26632 16.3352 9.27807 16.3232 9.27807 16.3112C9.50119 15.5914 9.67735 14.6556 9.74781 13.8638H10.4994V16.2992C10.4994 16.3232 10.5229 16.3472 10.5464 16.3472H11.298C11.3214 16.3472 11.3449 16.3232 11.3449 16.2992V13.144C11.3449 13.12 11.3214 13.108 11.298 13.108ZM21.0334 13.108H20.2818C20.2583 13.108 20.2348 13.132 20.2348 13.156V15.5914C20.0704 15.6393 19.906 15.6633 19.7181 15.6633C19.2249 15.6633 19.1074 15.5074 19.1074 14.8355V13.156C19.1074 13.132 19.0839 13.108 19.0604 13.108H18.3206C18.2971 13.108 18.2736 13.132 18.2736 13.156V14.9195C18.2736 16.0233 18.6377 16.4431 19.5654 16.4431C20.0939 16.4431 20.6928 16.2992 21.0451 16.1672C21.0569 16.1552 21.0686 16.1432 21.0686 16.1312V13.156C21.0803 13.12 21.0569 13.108 21.0334 13.108ZM5.10911 13.108H4.34577C4.32229 13.108 4.31054 13.12 4.31054 13.144C4.19311 13.6238 3.94649 14.4396 3.61767 15.2914L2.85434 13.144C2.8426 13.132 2.83086 13.12 2.81911 13.12H2.04404C2.03229 13.12 2.02055 13.132 2.00881 13.144C1.99706 13.156 1.99706 13.168 2.00881 13.18L3.15968 16.3952C3.04224 16.6471 2.93655 16.851 2.83086 17.043C2.74865 17.187 2.67819 17.3309 2.60773 17.4749C2.59599 17.4869 2.59599 17.4989 2.60773 17.5109C2.61947 17.5229 2.63122 17.5349 2.64296 17.5349H3.47675C3.4885 17.5349 3.51198 17.5229 3.51198 17.5109C3.65291 17.235 3.82906 16.851 3.99347 16.4551C4.4867 15.2794 4.87423 14.1757 5.16782 13.168C5.16782 13.156 5.16782 13.144 5.15608 13.132C5.13259 13.108 5.12085 13.108 5.10911 13.108ZM7.84535 15.5914C7.84535 15.5794 7.83361 15.5674 7.82187 15.5674H7.78664C7.59874 15.6393 7.25818 15.6873 7.0233 15.6873C6.49484 15.6873 6.24823 15.5434 6.24823 14.7276C6.24823 14.0677 6.33044 13.7678 7.0233 13.7678C7.22295 13.7678 7.3991 13.7918 7.63397 13.8638C7.65746 13.8638 7.6692 13.8638 7.68094 13.8398C7.76315 13.6718 7.86884 13.4679 7.98628 13.2159V13.18C7.98628 13.168 7.97453 13.156 7.96279 13.156C7.65746 13.06 7.29341 13 6.96459 13C5.87244 13 5.37921 13.5279 5.37921 14.7156C5.37921 15.9153 5.87244 16.4551 6.96459 16.4551C7.23469 16.4551 7.78664 16.3952 8.04499 16.2872C8.06848 16.2752 8.08022 16.2512 8.06848 16.2272L7.84535 15.5914ZM14.9972 13.108H14.2338C14.2104 13.108 14.1986 13.12 14.1986 13.144C14.0812 13.6358 13.8346 14.4396 13.5057 15.2914L12.7424 13.144C12.7307 13.132 12.7189 13.12 12.7072 13.12H11.9321C11.9204 13.12 11.9086 13.132 11.8969 13.144C11.8851 13.156 11.8851 13.168 11.8969 13.18L13.0477 16.3952C12.9303 16.6471 12.8246 16.851 12.7189 17.043C12.6367 17.187 12.5663 17.3309 12.4958 17.4869C12.4841 17.4989 12.4841 17.5109 12.4958 17.5229C12.5075 17.5349 12.5193 17.5469 12.531 17.5469H13.3648C13.3766 17.5469 13.4001 17.5349 13.4001 17.5229C13.541 17.2469 13.7171 16.863 13.8815 16.4671C14.363 15.2914 14.7623 14.1877 15.0559 13.18C15.0559 13.168 15.0559 13.156 15.0442 13.144C15.0207 13.108 15.0089 13.108 14.9972 13.108ZM17.8156 13.108H15.5961C15.5726 13.108 15.5491 13.132 15.5491 13.156V16.3112C15.5491 16.3352 15.5726 16.3592 15.5961 16.3592H16.3477C16.3712 16.3592 16.3947 16.3352 16.3947 16.3112V13.8758H17.5573C17.569 13.8758 17.5925 13.8638 17.5925 13.8518C17.6865 13.6358 17.7687 13.4079 17.8626 13.18V13.144C17.8391 13.108 17.8274 13.108 17.8156 13.108Z" fill="white"/>
<path d="M6.00486 8.47628C4.92437 8.47628 4.50157 8.93939 4.50157 10.1087C4.50157 11.3012 4.92437 11.7643 6.00486 11.7643C7.0971 11.7643 7.5199 11.3012 7.5199 10.1087C7.5199 8.92781 7.0971 8.47628 6.00486 8.47628ZM6.00486 11.0813C5.51159 11.0813 5.35892 10.9539 5.35892 10.1203C5.35892 9.24041 5.52334 9.15936 6.00486 9.15936C6.49813 9.15936 6.66255 9.24041 6.66255 10.1203C6.66255 10.9539 6.50987 11.0813 6.00486 11.0813ZM10.5265 10.9539C10.5265 10.9423 10.5147 10.9308 10.503 10.9308H10.4678C10.2798 11.0002 9.93926 11.0465 9.70437 11.0465C9.17587 11.0465 8.92923 10.9076 8.92923 10.1203C8.92923 9.48354 9.01144 9.1941 9.70437 9.1941C9.90402 9.1941 10.0802 9.21725 10.3151 9.28672C10.3386 9.28672 10.3503 9.28672 10.3621 9.26356C10.4443 9.10148 10.55 8.90465 10.6674 8.66152V8.62679C10.6674 8.61521 10.6557 8.60363 10.6439 8.60363C10.3386 8.51101 9.97449 8.45312 9.64564 8.45312C8.55341 8.45312 8.06014 8.96254 8.06014 10.1087C8.06014 11.2665 8.55341 11.7875 9.64564 11.7875C9.91577 11.7875 10.4678 11.7296 10.7261 11.6254C10.7496 11.6138 10.7614 11.5907 10.7496 11.5675L10.5265 10.9539ZM4.26668 8.55732H2.04698C2.02349 8.55732 2 8.58048 2 8.60363V11.6486C2 11.6717 2.02349 11.6949 2.04698 11.6949H2.79862C2.82211 11.6949 2.8456 11.6717 2.8456 11.6486V9.28672H3.99656C4.0083 9.28672 4.03179 9.27514 4.03179 9.26356C4.12575 9.05517 4.20796 8.83519 4.30191 8.61521V8.58048C4.29017 8.5689 4.27843 8.55732 4.26668 8.55732Z" fill="white"/>
<path d="M24.7027 15.9926V15.9468C24.7027 15.924 24.7027 15.8896 24.7146 15.8667C24.7503 15.4433 24.7741 14.9283 24.7979 14.3332V14.2875C24.8099 13.8869 24.8218 13.452 24.8218 13.0057C24.8218 12.5594 24.8099 12.1245 24.7979 11.724V11.6782C24.7741 11.0946 24.7503 10.5681 24.7146 10.1447C24.7146 10.1218 24.7146 10.0875 24.7027 10.0646V10.0188C24.7027 9.97304 24.6908 9.93871 24.6908 9.89293V9.84716C24.655 9.40084 24.6312 9.12618 24.6193 9.10329C24.6193 9.05752 24.6074 9.01174 24.6074 8.97741V8.94308C24.5955 8.86297 24.5836 8.7943 24.5597 8.71419C24.5597 8.70275 24.5597 8.6913 24.5478 8.67986C24.3454 7.75289 23.8094 6.73437 23.1424 5.96761C22.8804 5.67007 22.6065 5.40685 22.3206 5.20086C22.2968 5.17797 21.9633 4.94909 21.4393 4.59433C20.8319 4.19378 19.9624 3.63302 18.9739 3.08371C17.2112 2.08807 15.651 1.38998 15.4366 1.30987C15.4247 1.30987 15.4247 1.29843 15.4247 1.29843C14.9602 1.10388 14.4004 0.966553 13.793 0.909332C13.6739 0.897888 13.5548 0.886444 13.4357 0.886444C13.3166 0.875 13.2094 0.875 13.1022 0.875H12.9355C12.1256 0.897888 11.3753 1.03522 10.7798 1.29843C10.6964 1.33276 9.11236 2.03085 7.31393 3.04937L7.24247 3.08371C5.39641 4.12512 3.95529 5.15509 3.89574 5.20086C3.44316 5.5213 3.03821 5.93328 2.669 6.45971C2.58563 6.57415 2.58563 6.8717 2.94293 6.8717H3.86001C4.25304 6.8717 4.34832 6.64282 4.789 6.33383C5.27731 5.9905 6.24203 5.30386 8.00472 4.29678C9.2791 3.5758 10.4701 3.0036 11.0537 2.74038C11.0656 2.74038 11.0775 2.72894 11.0894 2.72894C11.0894 2.72894 11.1013 2.72894 11.1013 2.7175C11.1013 2.7175 11.1133 2.7175 11.1133 2.70605C11.1252 2.70605 11.1371 2.69461 11.1371 2.69461C11.149 2.69461 11.1609 2.68316 11.1728 2.68316C11.3157 2.6145 11.411 2.58017 11.411 2.58017C11.8159 2.40851 12.3876 2.29407 12.995 2.28262H13.2332C13.4119 2.28262 13.5906 2.29407 13.7573 2.31695C14.1265 2.36273 14.46 2.43139 14.7339 2.54584C14.7577 2.55728 14.7935 2.56872 14.8173 2.58017C14.8173 2.58017 14.8292 2.59161 14.8649 2.60306C15.1389 2.7175 16.6157 3.3927 18.2236 4.29678C19.1764 4.83465 20.022 5.37252 20.6056 5.76162C21.1177 6.10494 21.4274 6.32238 21.4393 6.33383C21.6656 6.49404 21.8919 6.72292 22.1063 6.97469C22.6422 7.63845 23.0829 8.54253 23.1544 9.24062C23.1544 9.25206 23.1901 9.52672 23.2258 9.99593C23.2258 10.0303 23.2258 10.0532 23.2377 10.0875V10.1561C23.2377 10.2019 23.2496 10.2363 23.2496 10.282V10.3278C23.2496 10.3507 23.2496 10.385 23.2615 10.4079C23.2615 10.4651 23.2735 10.5224 23.2735 10.5796C23.2735 10.6139 23.2735 10.6482 23.2854 10.6826V10.7055C23.2854 10.7512 23.2854 10.7856 23.2973 10.8313V10.9229C23.333 11.518 23.3568 12.2275 23.3568 12.9714C23.3568 13.7153 23.333 14.4248 23.2973 15.0199V15.1114C23.2973 15.1572 23.2973 15.1915 23.2854 15.2373V15.2602C23.2854 15.2945 23.2854 15.3289 23.2735 15.3632C23.2735 15.4204 23.2615 15.4776 23.2615 15.5349C23.2615 15.5692 23.2615 15.5921 23.2496 15.615V15.6607C23.2496 15.7065 23.2377 15.7409 23.2377 15.7866V15.8553C23.2377 15.8896 23.2377 15.924 23.2258 15.9468C23.1901 16.4161 23.1544 16.7022 23.1544 16.7022C23.0829 17.4002 22.6422 18.3043 22.1063 18.9681C21.8919 19.2313 21.6656 19.4487 21.4393 19.609C21.4274 19.609 21.1177 19.8378 20.6056 20.1812C20.022 20.5703 19.1645 21.1081 18.2236 21.646C16.6157 22.5615 15.127 23.2253 14.8649 23.3397L14.8173 23.3626C14.7935 23.3741 14.7577 23.3855 14.7339 23.3969C14.46 23.4999 14.1265 23.58 13.7573 23.6258C13.5906 23.6487 13.4119 23.6602 13.2332 23.6602H12.995C12.3876 23.6487 11.8159 23.5457 11.411 23.3626C11.411 23.3626 11.3276 23.3283 11.1728 23.2596C11.1609 23.2482 11.1371 23.2482 11.1252 23.2367C11.1133 23.2253 11.1013 23.2253 11.0894 23.2138C11.0775 23.2138 11.0775 23.2024 11.0656 23.2024C11.0537 23.2024 11.0418 23.191 11.0299 23.191C11.018 23.1795 11.0061 23.1795 10.9822 23.1681H10.9703C10.3629 22.9392 9.21955 22.3899 8.00472 21.7032C6.23012 20.7076 5.27731 20.0095 4.789 19.6662C4.34832 19.3572 4.25304 19.1283 3.86001 19.1283H2.94293C2.58563 19.1283 2.58563 19.4258 2.669 19.5403C3.03821 20.0667 3.44316 20.4787 3.89574 20.7991C3.95529 20.8449 5.40832 21.8749 7.24247 22.9163C7.33775 22.9735 7.43304 23.0307 7.54023 23.0765C9.24337 24.0149 10.7083 24.6558 10.7917 24.7016C11.3753 24.9533 12.1375 25.1021 12.9474 25.125H13.1141C13.2213 25.125 13.3285 25.125 13.4357 25.1136C13.5548 25.1136 13.6739 25.1021 13.793 25.0907C14.4004 25.0334 14.9721 24.8961 15.4247 24.7016C15.4247 24.7016 15.4366 24.7016 15.4366 24.6901C15.6391 24.5986 17.2112 23.9005 18.962 22.9163C19.9505 22.3555 20.82 21.8062 21.4274 21.4057C21.9514 21.0509 22.2849 20.822 22.3087 20.7991C22.5946 20.5931 22.8685 20.3299 23.1305 20.0324C23.7975 19.2656 24.3335 18.2471 24.5359 17.3201C24.5359 17.3087 24.5359 17.2973 24.5478 17.2858C24.5597 17.2057 24.5836 17.1256 24.5955 17.0569V17.0226C24.6074 16.9768 24.6074 16.931 24.6074 16.8967C24.6074 16.8738 24.6431 16.5992 24.6788 16.1528V16.1071C24.7027 16.0727 24.7027 16.0384 24.7027 15.9926Z" fill="white"/>
</svg>
