<svg width="72" height="72" viewBox="0 0 72 72" fill="none" xmlns="http://www.w3.org/2000/svg">
<path d="M71.9441 51.1313C71.9441 51.075 71.9441 50.9625 71.9441 50.9062C71.8879 49.7812 71.7754 48.6 71.6066 47.5312C71.6066 47.475 71.6066 47.3625 71.5504 47.3062C71.3816 46.1812 71.1566 45.1125 70.8754 43.9875C70.8754 43.9312 70.8191 43.8188 70.8191 43.7625C70.5379 42.6938 70.2004 41.625 69.8066 40.6125C69.8066 40.5562 69.7504 40.5 69.7504 40.3875C69.3566 39.375 68.9629 38.3625 68.4566 37.35C68.4004 37.2938 68.4004 37.2375 68.3441 37.125C67.8941 36.1688 67.3316 35.2125 66.7691 34.2563C66.7129 34.2 66.7129 34.1437 66.6566 34.0312C66.0941 33.1313 65.4754 32.2312 64.8566 31.3875C64.8004 31.3312 64.7441 31.275 64.6879 31.1625C64.0691 30.3187 63.3941 29.475 62.6629 28.6875C62.6066 28.6313 62.5504 28.5188 62.4379 28.4625C62.1004 28.0688 61.7629 27.7312 61.3691 27.3375L61.3129 27.2812C60.9191 26.8875 60.5816 26.55 60.1879 26.2125C60.1316 26.1562 60.0191 26.0438 59.9629 25.9875C59.6254 25.65 59.2316 25.3687 58.8941 25.0312C58.8379 24.975 58.8379 24.975 58.7816 24.9187C58.3879 24.5813 57.9941 24.3 57.6004 23.9625C57.4879 23.9062 57.3754 23.7937 57.2629 23.7375C56.9254 23.4562 56.5316 23.2313 56.1941 22.95C56.1379 22.8938 56.0816 22.8375 56.0254 22.8375C55.6316 22.5563 55.1816 22.275 54.7879 22.05C54.6754 22.1062 54.5629 22.05 54.4504 21.9375C54.3379 21.8812 54.2254 21.7688 54.0566 21.7125C48.7691 18.675 42.5816 16.875 36.0004 16.875C29.9254 16.875 24.1879 18.3938 19.1816 21.0375L19.7441 21.9938C24.5816 19.4625 30.1504 18 36.0004 18C42.3566 18 48.3754 19.7437 53.4941 22.725L43.3691 40.275C41.1754 38.9812 38.7004 38.25 36.0004 38.25C33.8066 38.25 31.7254 38.7563 29.8691 39.6L30.4316 40.5562C32.1191 39.7687 34.0316 39.375 36.0004 39.375C38.5316 39.375 40.8941 40.05 42.8629 41.2875C43.0879 41.4 43.2566 41.5687 43.4816 41.6812C43.5379 41.6812 43.5379 41.7375 43.5941 41.7375C43.7629 41.85 43.9879 42.0188 44.1566 42.1313C44.2129 42.1875 44.3254 42.2437 44.3816 42.3C44.4941 42.4125 44.6066 42.525 44.7754 42.5813C44.8316 42.6375 44.9441 42.6937 45.0004 42.8062C45.1129 42.9187 45.2816 43.0312 45.3941 43.2C45.5066 43.3125 45.5629 43.3687 45.6754 43.4812C45.7879 43.5938 45.9004 43.7062 46.0129 43.875C46.0691 43.9875 46.1816 44.0438 46.2379 44.1562C46.2379 44.2125 46.2941 44.2125 46.2941 44.2688L62.8316 39.0938L63.0566 39.7125L38.1379 48.4312C37.5191 47.9812 36.7879 47.7 36.0004 47.7C34.0316 47.7 32.4566 49.275 32.4566 51.2437C32.4566 53.2125 34.0316 54.7875 36.0004 54.7875C37.8566 54.7875 39.3191 53.3812 39.5441 51.6375L48.4879 47.7563C48.4879 47.8125 48.5441 47.8125 48.5441 47.8687C48.6004 48.0375 48.6566 48.15 48.7129 48.3188C48.7691 48.4313 48.7691 48.5438 48.8254 48.6562C48.8816 48.7687 48.8816 48.9375 48.9379 49.05C48.9941 49.1625 48.9941 49.275 49.0504 49.3875C49.1066 49.5562 49.1066 49.725 49.1629 49.8375C49.2191 50.0062 49.2191 50.175 49.2754 50.3438C49.3316 50.5125 49.3316 50.6813 49.3316 50.85C49.3316 50.9625 49.3879 51.075 49.3879 51.2437C49.3879 51.4125 49.4441 51.525 49.4441 51.6938C49.4441 51.8063 49.4441 51.975 49.5004 52.0875C49.5004 52.2562 49.5004 52.425 49.5004 52.5938C49.5004 52.7062 49.5004 52.7625 49.5004 52.875C49.5004 52.9313 49.5004 52.9875 49.5004 53.0438H72.0004C72.0004 52.9875 72.0004 52.9313 72.0004 52.875C72.0004 52.3125 72.0004 51.6938 71.9441 51.1313Z" fill="#4563FF"/>
<path d="M22.5 52.8754C22.5 52.9316 22.5 52.9879 22.5 53.0441H0C0 39.7129 7.2 27.9566 17.9438 21.7129L29.1938 41.2316C25.2 43.5941 22.5 47.9254 22.5 52.8754Z" fill="#FF0029"/>
</svg>
