<svg width="72" height="72" viewBox="0 0 72 72" fill="none" xmlns="http://www.w3.org/2000/svg">
<path d="M33.525 61.8195C30.375 61.8195 27.7875 59.232 27.7875 56.082V13.332H18C15.8062 13.332 14.0625 15.0758 14.0625 17.2695V64.1258C14.0625 66.2633 15.8062 68.0633 18 68.0633H37.35C39.4875 68.0633 41.2875 66.3195 41.2875 64.1258V61.8195H33.525Z" fill="#4563FF"/>
<path d="M52.8758 4.5H33.5258C30.9383 4.5 28.8008 6.6375 28.8008 9.225V56.0812C28.8008 58.6687 30.882 60.8062 33.5258 60.8062H52.8758C55.4633 60.8062 57.6008 58.6687 57.6008 56.0812V9.225C57.6008 6.58125 55.4633 4.5 52.8758 4.5ZM56.532 56.025C56.532 58.05 54.9008 59.6812 52.8758 59.6812H33.5258C31.5008 59.6812 29.8695 58.05 29.8695 56.025V9.225C29.8695 7.2 31.5008 5.56875 33.5258 5.56875H36.3383V7.875C36.3383 8.83125 37.0695 9.5625 38.0258 9.5625H48.1508C49.107 9.5625 49.8383 8.83125 49.8383 7.875V5.5125H52.8758C54.9008 5.5125 56.532 7.14375 56.532 9.16875V56.025Z" fill="#4563FF"/>
<path d="M54.3375 20.1934C54.3375 18.9559 53.325 17.9434 52.0875 17.9434C50.85 17.9434 49.8375 18.9559 49.8375 20.1934C49.8375 21.0371 50.3437 21.7684 51.0187 22.1621L47.8125 35.4934L41.6812 30.0934C41.85 29.6434 41.9625 29.1934 41.9625 28.6871C41.9625 26.4934 40.2187 24.7496 38.025 24.7496C35.8312 24.7496 34.0875 26.4934 34.0875 28.6871C34.0875 30.4871 35.2687 31.9496 36.9 32.4559L34.0312 43.6496C32.7937 43.6496 31.7812 44.6621 31.7812 45.8996C31.7812 47.1371 32.7937 48.1496 34.0312 48.1496C35.2687 48.1496 36.2812 47.1371 36.2812 45.8996C36.2812 45.0559 35.8313 44.3246 35.1 43.9309L38.025 32.6246C39.2625 32.6246 40.3875 32.0059 41.1187 31.1059L48.4875 37.5746L52.1437 22.4434C53.3812 22.4434 54.3375 21.4309 54.3375 20.1934ZM38.025 31.4434C36.45 31.4434 35.2125 30.2059 35.2125 28.6309C35.2125 27.0559 36.45 25.8184 38.025 25.8184C39.6 25.8184 40.8375 27.0559 40.8375 28.6309C40.8375 30.2059 39.6 31.4434 38.025 31.4434Z" fill="#4563FF"/>
<path d="M47.5879 39.8809C49.7625 39.8809 51.5254 38.118 51.5254 35.9434C51.5254 33.7687 49.7625 32.0059 47.5879 32.0059C45.4133 32.0059 43.6504 33.7687 43.6504 35.9434C43.6504 38.118 45.4133 39.8809 47.5879 39.8809Z" fill="#FF0026"/>
</svg>
