<svg width="72" height="72" viewBox="0 0 72 72" fill="none" xmlns="http://www.w3.org/2000/svg">
<g clip-path="url(#clip0_6044_7137)">
<path d="M69.582 14.0625H22.0508C20.4758 14.0625 19.2383 15.3 19.2383 16.875V17.7188H64.2945C66.7695 17.7188 68.7945 19.7437 68.7945 22.2188V46.0125H69.6383C71.2133 46.0125 72.4508 44.775 72.4508 43.2V16.875C72.3945 15.3 71.1008 14.0625 69.582 14.0625Z" fill="#4563FF"/>
<path d="M64.2383 51.8621H16.707C14.8508 51.8621 13.332 50.3434 13.332 48.4871V22.1621C13.332 20.3059 14.8508 18.7871 16.707 18.7871H64.2383C66.0945 18.7871 67.6133 20.3059 67.6133 22.1621V48.4309C67.6133 50.3434 66.0945 51.8621 64.2383 51.8621ZM16.707 19.9121C15.4695 19.9121 14.457 20.9246 14.457 22.1621V48.4309C14.457 49.6684 15.4695 50.6809 16.707 50.6809H64.2383C65.4758 50.6809 66.4883 49.6684 66.4883 48.4309V22.1621C66.4883 20.9246 65.4758 19.9121 64.2383 19.9121H16.707Z" fill="#4563FF"/>
<path d="M47.082 25.875C48.657 25.875 49.8945 27.1125 49.8945 28.6875C49.8945 30.2625 48.657 31.5 47.082 31.5C45.507 31.5 44.2695 30.2625 44.2695 28.6875C44.2695 27.1125 45.5633 25.875 47.082 25.875ZM47.082 24.75C44.8883 24.75 43.1445 26.4937 43.1445 28.6875C43.1445 30.8813 44.8883 32.625 47.082 32.625C49.2758 32.625 51.0195 30.8813 51.0195 28.6875C51.0195 26.4937 49.2758 24.75 47.082 24.75Z" fill="#4563FF"/>
<path d="M57.7695 32.625C59.9442 32.625 61.707 30.8621 61.707 28.6875C61.707 26.5129 59.9442 24.75 57.7695 24.75C55.5949 24.75 53.832 26.5129 53.832 28.6875C53.832 30.8621 55.5949 32.625 57.7695 32.625Z" fill="#FF0029"/>
</g>
<path d="M23.5 51.5C23.5 57.5751 18.5751 62.5 12.5 62.5C6.42487 62.5 1.5 57.5751 1.5 51.5C1.5 45.4249 6.42487 40.5 12.5 40.5C18.5751 40.5 23.5 45.4249 23.5 51.5Z" fill="white" stroke="#4563FF"/>
<path d="M12.4996 46C10.6651 46 8.63526 47.3829 8.63526 49.3814V53L7.89377 53.5627C7.2832 54.0261 7.61091 55 8.37741 55H16.6226C17.3891 55 17.7168 54.0261 17.1062 53.5627L16.3647 53V49.3814C16.3647 47.3829 14.3341 46 12.4996 46Z" fill="#4563FF"/>
<path d="M12.5 57C13.3284 57 14 56.5523 14 56H11C11 56.5523 11.6716 57 12.5 57Z" fill="#4563FF"/>
<defs>
<clipPath id="clip0_6044_7137">
<rect width="72" height="72" fill="white"/>
</clipPath>
</defs>
</svg>
