<svg width="63" height="61" viewBox="0 0 63 61" fill="none" xmlns="http://www.w3.org/2000/svg">
<path d="M13.2183 0C9.12452 0 5.67343 2.8084 4.67969 6.61054H21.7569C20.7632 2.803 17.3715 0 13.2183 0Z" fill="#4563FF"/>
<path d="M14.6816 8.82922C14.6816 9.82296 15.5025 10.6439 16.4963 10.6439C17.49 10.6439 18.3109 9.82296 18.3109 8.82922C18.3109 7.83548 17.49 7.01456 16.4963 7.01456C15.5025 6.95515 14.6816 7.83548 14.6816 8.82922Z" fill="#4563FF"/>
<path d="M59.8891 26.1965H26.4908V18.36C26.4908 16.7235 25.2054 15.4382 23.5689 15.4382H19.0647C20.3501 14.2662 21.3438 12.7486 21.7543 11.0527H4.67705C5.14692 12.808 6.08124 14.3256 7.36662 15.4382H2.9218C1.28537 15.4382 0 16.7235 0 18.36V43.8624C0 45.4988 1.28537 46.7842 2.9218 46.7842H7.30722V33.9736C7.30722 31.4028 9.41354 29.2965 11.9843 29.2965H55.0338C57.6046 29.2965 59.7109 31.4028 59.7109 33.9736V55.4957H59.9431C61.5796 55.4957 62.8649 54.2103 62.8649 52.5738V29.1237C62.8163 27.4819 61.5255 26.1965 59.8891 26.1965Z" fill="#4563FF"/>
<path d="M8.06445 8.82922C8.06445 9.82296 8.88536 10.6439 9.8791 10.6439C10.8728 10.6439 11.6938 9.82296 11.6938 8.82922C11.6938 7.83548 10.8728 7.01456 9.8791 7.01456C8.88536 6.95515 8.06445 7.83548 8.06445 8.82922Z" fill="#4563FF"/>
<path d="M55.0346 61.0008H11.9851C10.057 61.0008 8.47461 59.4238 8.47461 57.4903V33.9753C8.47461 32.0473 10.0516 30.4648 11.9851 30.4648H55.0346C56.9627 30.4648 58.5451 32.0419 58.5451 33.9753V57.4849C58.5451 59.4184 56.9681 61.0008 55.0346 61.0008ZM11.9905 31.6368C10.7051 31.6368 9.65197 32.69 9.65197 33.9753V57.4849C9.65197 58.7703 10.7051 59.8234 11.9905 59.8234H55.04C56.3254 59.8234 57.3786 58.7703 57.3786 57.4849V33.9753C57.3786 32.69 56.3254 31.6368 55.04 31.6368H11.9905Z" fill="#4563FF"/>
<path d="M39.5935 37.1334C40.9977 37.1334 42.1102 38.2459 42.1102 39.6501C42.1102 41.0543 40.9977 42.1669 39.5935 42.1669C38.1893 42.1669 37.0767 41.0543 37.0767 39.6501C37.1361 38.2459 38.2487 37.1334 39.5935 37.1334ZM39.5935 35.9668C37.5466 35.9668 35.9102 37.6032 35.9102 39.6501C35.9102 41.697 37.5466 43.3334 39.5935 43.3334C41.6404 43.3334 43.2768 41.697 43.2768 39.6501C43.2768 37.6032 41.6404 35.9668 39.5935 35.9668Z" fill="#4563FF"/>
<path d="M49.4196 43.3334C51.4557 43.3334 53.103 41.6862 53.103 39.6501C53.103 37.614 51.4557 35.9668 49.4196 35.9668C47.3835 35.9668 45.7363 37.614 45.7363 39.6501C45.7363 41.6862 47.3835 43.3334 49.4196 43.3334Z" fill="#FF0029"/>
</svg>
