<svg width="60" height="60" viewBox="0 0 60 60" fill="none" xmlns="http://www.w3.org/2000/svg">
<rect width="60" height="60" rx="30" fill="#B30064"/>
<path d="M13.125 23.6591V33.6477C14.001 35.2715 15.2914 36.6362 16.866 37.604C18.4405 38.5719 20.2433 39.1086 22.0925 39.1599C18.9998 39.0097 16.5358 36.5375 16.5358 33.5222V22.1221C16.5358 21.3702 17.1478 20.752 17.9024 20.752C16.9155 20.7551 15.9483 21.0277 15.1061 21.5402C14.2638 22.0528 13.5786 22.7856 13.125 23.6591V23.6591Z" fill="white"/>
<path d="M17.9106 17.352C16.6417 17.353 15.4251 17.8558 14.5278 18.75C13.6305 19.6442 13.126 20.8567 13.125 22.1213V23.65C13.5801 22.7766 14.2669 22.0444 15.1108 21.5332C15.9547 21.0221 16.9231 20.7516 17.9106 20.7512H21.3048C21.5295 20.7516 21.7519 20.7078 21.9595 20.6223C22.1671 20.5368 22.3557 20.4113 22.5146 20.253C22.6734 20.0948 22.7993 19.9068 22.8851 19.6999C22.9708 19.493 23.0148 19.2713 23.0144 19.0475C23.0148 18.8236 22.9708 18.6019 22.8851 18.395C22.7993 18.1881 22.6734 18.0002 22.5146 17.8419C22.3557 17.6836 22.1671 17.5581 21.9595 17.4726C21.7519 17.3872 21.5295 17.3434 21.3048 17.3438H17.9106V17.352Z" fill="white"/>
<path d="M28.2609 17.352V33.5222C28.2609 36.6382 25.6302 39.1689 22.4034 39.1689C22.3024 39.1689 22.2021 39.1689 22.1018 39.1599C20.2529 39.1064 18.4507 38.5689 16.8763 37.6013C15.3019 36.6337 14.0108 35.2701 13.1328 33.6477C13.2082 38.5837 17.3313 42.5763 22.4109 42.5763C27.5229 42.5763 31.6882 38.5169 31.6882 33.5222V20.7519H36.9344C36.9683 20.7519 37.0023 20.7519 37.0354 20.7594C37.0942 20.7594 37.1613 20.7519 37.2201 20.7519C39.8515 20.7519 42.299 21.7623 44.1344 23.3991C43.4891 19.9587 40.505 17.3438 36.9352 17.3438H28.2609V17.352Z" fill="white"/>
<path d="M37.2198 20.7598H37.2115C37.1527 20.7598 37.0939 20.7598 37.0352 20.7688C39.1472 20.8184 40.8492 22.6145 40.8492 24.811C40.8492 25.0866 40.8236 25.3541 40.7738 25.6042C40.674 26.1284 40.4717 26.6279 40.1783 27.0743C39.6665 27.8766 39.7924 28.7615 40.5801 29.2047C41.0821 29.48 41.5374 29.8324 41.9293 30.2488C42.8451 31.2412 43.3512 32.5416 43.3464 33.8899C43.3464 36.6047 41.3429 38.8515 38.7861 39.1355C42.466 38.977 45.4833 36.83 46.7655 33.7817C46.7535 32.5618 46.4855 31.358 45.9789 30.2475C45.4722 29.137 44.738 28.1444 43.8235 27.3335C44.1175 26.519 44.2679 25.66 44.2683 24.7944C44.2683 24.3182 44.2178 23.8509 44.1341 23.3995C42.2904 21.7709 39.8429 20.7598 37.2198 20.7598Z" fill="white"/>
<path d="M32.6939 42.5762H38.2175C42.9195 42.5762 46.7411 38.6926 46.7576 33.915V33.7812C45.4755 36.8296 42.4665 38.9765 38.779 39.135C38.5944 39.1515 38.4097 39.1681 38.2175 39.1681H32.6939C32.241 39.17 31.8072 39.3503 31.487 39.6695C31.1668 39.9888 30.9862 40.4211 30.9844 40.8725C30.9848 41.3242 31.165 41.7574 31.4855 42.0768C31.806 42.3962 32.2406 42.5758 32.6939 42.5762Z" fill="white"/>
</svg>
