<svg width="61" height="60" viewBox="0 0 61 60" fill="none" xmlns="http://www.w3.org/2000/svg">
<rect x="0.751953" width="60" height="60" rx="30" fill="#001689"/>
<g clip-path="url(#clip0_6006_32884)">
<path fill-rule="evenodd" clip-rule="evenodd" d="M9.75195 39.8937H30.0455V20.1172H9.75195V39.8937Z" fill="white"/>
<path fill-rule="evenodd" clip-rule="evenodd" d="M15.9127 26.5059C16.0626 26.8281 16.3074 27.1588 16.9786 27.6052C17.1273 27.705 17.293 27.9128 17.1676 28.2052C17.0402 28.4971 16.8047 28.9121 16.945 29.074C17.0874 29.2356 17.5927 29.3197 18.0035 29.159C18.0035 29.159 18.0898 29.4118 18.2405 29.5738C18.2405 29.5738 18.1694 29.7132 17.9327 29.6428C17.9327 29.6428 18.0189 29.8505 17.9001 30.0738C17.9001 30.0738 17.6244 30.0277 17.5063 29.7811C17.5063 29.7811 17.3952 29.9732 17.1745 30.0426C17.1745 30.0426 16.9929 29.9511 17.0333 29.5961C17.0333 29.5961 16.8984 29.9121 16.4889 29.9653C16.4889 29.9653 16.2516 29.6737 16.5592 29.2814C16.5592 29.2814 16.3381 29.4738 15.937 29.3813C15.937 29.3813 15.8732 29.1818 16.2356 28.9047C16.2356 28.9047 15.8252 28.8891 15.668 28.551C15.668 28.551 15.8413 28.343 16.2668 28.3895C16.2668 28.3895 15.8732 28.3043 15.786 27.8433C15.786 27.8433 16.0701 27.6664 16.5199 27.9507C16.5199 27.9507 16.44 27.805 16.2516 27.659C16.0626 27.5127 15.8333 27.1052 15.9127 26.5059Z" fill="#001689"/>
<path fill-rule="evenodd" clip-rule="evenodd" d="M17.5632 31.1451C17.5026 31.0675 17.4584 30.9903 17.4258 30.916C17.4963 31.4753 17.5208 31.8524 17.8311 32.2149C17.8311 32.2149 18.018 31.9725 17.8977 31.3836C17.8461 31.3689 17.7868 31.3446 17.7309 31.3076C17.7309 31.3076 17.8015 31.5468 17.7566 31.7872C17.7566 31.7872 17.6459 31.7083 17.5632 31.1451Z" fill="#001689"/>
<path fill-rule="evenodd" clip-rule="evenodd" d="M17.0283 31.0875C16.9913 31.0421 16.9199 30.9454 16.882 30.877C16.8566 31.2021 16.7681 32.0564 17.0623 32.3244C17.0623 32.3244 17.2639 32.1806 17.3345 30.9331C17.292 31.0031 17.2169 31.0775 17.1804 31.1183C17.1804 31.1183 17.2296 31.5138 17.0841 31.7932C17.0841 31.7932 16.9382 31.6852 17.0283 31.0875Z" fill="#001689"/>
<path fill-rule="evenodd" clip-rule="evenodd" d="M16.3267 31.7387C16.5729 31.4506 16.6475 30.5869 16.6475 30.5869C16.6817 30.5644 16.7156 30.5401 16.7512 30.5132C16.7636 30.5021 16.7779 30.4908 16.7909 30.4785C16.7909 30.5097 16.7922 30.5427 16.7954 30.5751C16.7596 31.0953 16.7176 31.6307 16.5508 31.8974C16.3881 32.1589 16.0875 32.2944 16.0875 32.2944C15.8067 31.8065 16.1462 31.1527 16.4317 30.6978C16.4659 30.6849 16.5014 30.6686 16.5379 30.6508C16.4382 31.0008 16.2479 31.4175 16.3267 31.7387Z" fill="#001689"/>
<path fill-rule="evenodd" clip-rule="evenodd" d="M15.6302 30.2407C15.6288 30.296 15.6394 30.3422 15.6473 30.3649C15.6499 30.3739 15.6541 30.3873 15.6603 30.4006C15.4246 30.6258 15.2498 30.8415 14.9009 31.3139C14.5513 31.7867 13.998 31.8056 13.998 31.8056C14.0517 31.4227 14.1581 31.1202 14.4547 30.7938C14.7506 30.4678 15.1297 30.1696 15.4076 29.9727C15.4787 30.0038 15.5726 30.0243 15.6902 30.0106C15.6993 30.01 15.709 30.0089 15.7174 30.0067C15.6804 30.0547 15.6576 30.1024 15.6463 30.1463C15.4348 30.2641 14.8233 30.566 14.5754 31.0538C14.5754 31.0538 14.9624 30.9346 15.6302 30.2407Z" fill="#001689"/>
<path fill-rule="evenodd" clip-rule="evenodd" d="M15.1918 29.7651L15.2145 29.7245C15.2234 29.7109 15.2303 29.6989 15.2396 29.6875C15.012 29.7734 14.2019 30.0713 13.9399 30.2034C13.6774 30.3365 13.298 30.6366 13.0918 31.2476C13.0918 31.2476 13.6385 31.2949 14.0898 30.9316C14.5412 30.5668 15.0671 30.0594 15.2917 29.8981C15.2691 29.878 15.2517 29.8582 15.2396 29.8416C15.2396 29.8416 14.6287 30.3683 13.9833 30.5963C13.9833 30.5963 14.1212 30.3517 14.3767 30.1746C14.6873 29.9597 14.9201 29.8874 15.1918 29.7651Z" fill="#001689"/>
<path fill-rule="evenodd" clip-rule="evenodd" d="M14.7267 29.4032C14.7358 29.3821 14.7447 29.3622 14.7539 29.3438C14.4863 29.3963 13.8188 29.4746 13.5197 29.5632C13.2215 29.6531 12.6816 29.8656 12.3613 30.4617C12.3613 30.4617 12.8314 30.6027 13.7186 30.1962C14.6057 29.789 14.8843 29.7043 15.0533 29.6605C14.9188 29.6511 14.8226 29.6067 14.7736 29.5768C14.4196 29.7306 13.9461 29.912 13.4764 29.9243C13.4764 29.9243 13.7074 29.765 13.9516 29.6644C14.2149 29.5574 14.5057 29.4593 14.7267 29.4032Z" fill="#001689"/>
<path fill-rule="evenodd" clip-rule="evenodd" d="M14.7496 28.9745C14.8362 29.014 14.9028 29.0338 15.0165 29.0452C14.9548 29.0845 14.8963 29.1338 14.8438 29.2006C14.5308 29.2885 13.9973 29.3842 13.1177 29.4462C12.2389 29.5072 11.7695 29.3505 11.7695 29.3505C12.0759 29.1678 12.5644 28.9825 12.8952 28.9203C13.2255 28.8579 14.0933 28.8652 14.4735 28.8145C14.4777 28.8188 14.5238 28.855 14.5988 28.8992C14.2789 28.927 13.597 28.9578 13.2457 29.1324C13.2457 29.1324 13.8945 29.2162 14.7496 28.9745Z" fill="#001689"/>
<path fill-rule="evenodd" clip-rule="evenodd" d="M14.6834 28.4828C14.728 28.4572 14.7814 28.4319 14.8471 28.4081C14.4014 28.2771 13.7907 28.0668 12.8702 28.0087C12.196 27.9656 11.7094 28.0033 11.457 28.0668C11.457 28.0668 12.0718 28.4883 12.7735 28.6369C13.4765 28.7862 14.0468 28.6921 14.4637 28.6957C14.4907 28.6557 14.5221 28.6102 14.5711 28.5652C14.0832 28.5684 13.2725 28.4451 12.9823 28.3507C12.9823 28.3507 13.6896 28.2073 14.6834 28.4828Z" fill="#001689"/>
<path fill-rule="evenodd" clip-rule="evenodd" d="M14.6805 27.9718C14.6829 27.9842 14.7354 28.2288 15.0263 28.3638C14.4008 28.0974 13.1698 27.9439 12.5073 27.6757C11.6129 27.3131 11.4492 26.8609 11.4492 26.8609C12.2238 26.8407 12.8498 27.0247 13.3325 27.1694C13.8973 27.3378 14.7576 27.6513 15.0586 27.7821C14.9468 27.7863 14.8221 27.8184 14.7179 27.8861C14.2978 27.7288 14.1018 27.6623 13.7203 27.5581C13.4183 27.4757 13.1962 27.4599 13.0076 27.4423C13.0076 27.4423 13.2726 27.6129 13.7092 27.7486C14.142 27.8839 14.3293 27.9063 14.6805 27.9718Z" fill="#001689"/>
<path fill-rule="evenodd" clip-rule="evenodd" d="M14.6347 27.3057C14.6596 27.3489 14.7333 27.4518 14.7628 27.4926C13.7743 27.3313 12.6873 26.6029 12.3512 26.1512C12.0152 25.6993 12.11 25.0254 12.11 25.0254C12.4361 25.089 13.1447 25.6847 13.3281 25.8641C13.5121 26.0426 14.0658 26.5685 14.4496 26.8616L14.569 27.2006C14.2403 26.9427 13.8504 26.6555 13.6077 26.477C13.4206 26.3398 13.1404 26.1445 12.8617 26.0523C12.8617 26.0523 13.1184 26.3777 13.3254 26.5368C13.5645 26.7207 13.8075 26.8804 14.0069 26.9871C14.1844 27.0821 14.2753 27.1357 14.6347 27.3057Z" fill="#001689"/>
<path fill-rule="evenodd" clip-rule="evenodd" d="M17.423 30.0031C17.4531 29.9771 17.4797 29.9521 17.5005 29.9297C17.5461 29.9853 17.6991 30.1707 17.7747 30.3561C17.831 30.5141 17.892 30.7292 17.9219 30.8525C17.9523 30.9748 18.0416 31.2314 18.0965 31.3191C18.0965 31.3191 17.856 31.3486 17.6776 31.1455C17.5024 30.9465 17.4438 30.7461 17.4159 30.5407C17.3931 30.3798 17.4015 30.1565 17.423 30.0031Z" fill="#001689"/>
<path fill-rule="evenodd" clip-rule="evenodd" d="M17.0435 30.0332C17.0882 30.0917 17.1312 30.1153 17.1353 30.118L17.1684 30.1341L17.2016 30.1227C17.2321 30.114 17.2594 30.1033 17.285 30.0906C17.3204 30.1854 17.335 30.2311 17.3432 30.3116C17.3542 30.419 17.3758 30.588 17.335 30.726C17.285 30.894 17.1809 30.9969 17.1241 31.0611C17.1241 31.0611 16.9664 30.892 16.9214 30.7532C16.8746 30.6072 16.8578 30.4375 16.916 30.2636C16.9478 30.1691 16.9981 30.0829 17.0435 30.0332Z" fill="#001689"/>
<path fill-rule="evenodd" clip-rule="evenodd" d="M16.5007 30.0494C16.6621 30.0286 16.7836 29.9718 16.8758 29.9062C16.8963 29.9615 16.928 30.0358 16.9052 30.1411C16.8804 30.2467 16.8056 30.3631 16.6986 30.4475C16.5349 30.5737 16.3184 30.6928 16.0781 30.6568C16.0781 30.6568 16.0229 30.4806 16.5007 30.0494Z" fill="#001689"/>
<path fill-rule="evenodd" clip-rule="evenodd" d="M16.3184 29.7559C16.3385 29.9123 16.4151 30.0105 16.4202 30.0183C16.3643 30.0835 16.1618 30.422 15.74 30.3659C15.74 30.3659 15.625 30.1348 15.9067 29.9512C16.0966 29.8269 16.1878 29.8016 16.3184 29.7559Z" fill="#001689"/>
<path fill-rule="evenodd" clip-rule="evenodd" d="M16.3542 29.466C16.2422 29.4936 16.0955 29.5046 15.9166 29.4633L15.8678 29.4523L15.8526 29.4062C15.6356 29.5786 15.3778 29.6078 15.2891 29.7642C15.2891 29.7642 15.3975 29.9585 15.6792 29.9267C15.9609 29.8937 16.1718 29.7651 16.3228 29.5809C16.3287 29.5536 16.3415 29.5014 16.3542 29.466Z" fill="#001689"/>
<path fill-rule="evenodd" clip-rule="evenodd" d="M15.8676 29.225C15.9067 29.167 15.9345 29.0774 16.0188 28.9865C15.833 28.9551 15.6647 28.9525 15.4463 28.994C15.1867 29.0411 14.9216 29.1008 14.7891 29.4865C14.7891 29.4865 14.9549 29.6246 15.2582 29.5648C15.5158 29.5129 15.7391 29.4055 15.8676 29.225Z" fill="#001689"/>
<path fill-rule="evenodd" clip-rule="evenodd" d="M15.7568 28.8073C15.6919 28.7518 15.631 28.6805 15.5882 28.5873L15.567 28.539C15.3417 28.4498 15.1075 28.404 14.8769 28.4868C14.6473 28.5711 14.5868 28.6668 14.5293 28.7508C14.5293 28.7508 14.7838 28.9585 15.0757 28.9656C15.3685 28.975 15.6391 28.8923 15.7568 28.8073Z" fill="#001689"/>
<path fill-rule="evenodd" clip-rule="evenodd" d="M15.8255 28.3569C15.8642 28.3426 15.9074 28.3293 15.9565 28.3196C15.8581 28.2342 15.759 28.1034 15.712 27.9088C15.6072 27.9325 15.362 27.9325 15.2543 27.8928C15.1455 27.8524 14.9333 27.8504 14.7676 27.9568C14.7676 27.9568 14.8226 28.2404 15.1971 28.3371C15.5511 28.4276 15.6814 28.4042 15.8255 28.3569Z" fill="#001689"/>
<path fill-rule="evenodd" clip-rule="evenodd" d="M15.6898 27.803L15.7392 27.7722C15.7461 27.768 15.83 27.7176 15.9729 27.7066C15.8525 27.6193 15.564 27.384 15.3615 27.2711C15.1384 27.1498 14.7696 26.9889 14.582 26.9648C14.582 26.9648 14.7581 27.415 14.9624 27.5969C15.1761 27.7858 15.3247 27.8555 15.6898 27.803Z" fill="#001689"/>
<path fill-rule="evenodd" clip-rule="evenodd" d="M16.0709 27.596C15.98 27.4824 15.9095 27.3254 15.8573 27.1398C15.8151 26.9892 15.7176 26.6151 15.6601 26.5184C15.6027 26.4211 15.3949 26.0824 14.9897 25.9766C14.9897 25.9766 14.8813 26.4191 15.0855 26.768C15.2609 27.0697 15.6222 27.3874 16.0709 27.596Z" fill="#001689"/>
<path fill-rule="evenodd" clip-rule="evenodd" d="M18.3205 29.6513C18.3704 29.7013 18.409 29.7282 18.4995 29.7726C18.4995 29.7726 18.6289 30.013 18.4719 30.3041C18.3147 30.5948 18.1828 30.8911 18.1197 31.0563C18.1197 31.0563 18.0356 31.0439 17.9418 30.589C17.8788 30.2807 17.7987 30.2035 17.7148 30.0977C17.806 30.1426 17.8795 30.1558 17.8859 30.1571L17.9486 30.1675L17.977 30.113C18.0329 30.0092 18.0502 29.9083 18.0502 29.8239C18.0502 29.7963 18.0481 29.7704 18.0449 29.7466C18.1906 29.7503 18.2681 29.6785 18.2983 29.6421C18.3003 29.6383 18.3032 29.6361 18.3045 29.6328L18.3205 29.6513Z" fill="#001689"/>
<path fill-rule="evenodd" clip-rule="evenodd" d="M14.8748 26.1628C14.8734 26.2056 14.8721 26.252 14.8734 26.3016L14.8817 26.4103C14.6418 26.1124 14.3556 25.754 14.0822 25.4223C13.8946 25.1956 13.7361 25.0583 13.5605 24.9477C13.7075 25.3679 13.9741 25.7034 14.162 25.8707C14.3492 26.0379 14.6225 26.3199 14.8875 26.4921L14.913 26.5774C14.9338 26.6553 14.9655 26.7358 15.0099 26.811C15.0711 26.9172 15.1528 27.022 15.2486 27.1233C15.1717 27.0859 15.0836 27.0457 14.994 27.009L14.9119 26.9759C14.1815 26.5983 13.4585 25.8165 13.1649 25.2728C12.8709 24.729 12.9938 24.0976 13.071 23.7598C13.4023 24.0336 13.8794 24.5722 14.0872 24.8659C14.3433 25.2253 14.6717 25.7351 14.8739 26.1501L14.8748 26.1628Z" fill="#001689"/>
<path fill-rule="evenodd" clip-rule="evenodd" d="M25.1139 28.4828C25.0698 28.4572 25.0167 28.4319 24.9512 28.4081C25.3958 28.2771 26.0075 28.0668 26.9271 28.0087C27.6017 27.9656 28.0896 28.0033 28.341 28.0668C28.341 28.0668 27.7269 28.4883 27.0241 28.6369C26.3217 28.7862 25.7512 28.6921 25.3343 28.6957C25.3071 28.6557 25.2755 28.6102 25.2267 28.5652C25.7147 28.5684 26.5264 28.4451 26.816 28.3507C26.816 28.3507 26.1084 28.2073 25.1139 28.4828Z" fill="#001689"/>
<path fill-rule="evenodd" clip-rule="evenodd" d="M25.1146 27.9718C25.1122 27.9842 25.06 28.2288 24.7689 28.3638C25.394 28.0974 26.6262 27.9439 27.2877 27.6757C28.1826 27.3131 28.3462 26.8609 28.3462 26.8609C27.5718 26.8407 26.9457 27.0247 26.4629 27.1694C25.8986 27.3378 25.0376 27.6513 24.7363 27.7821C24.8497 27.7863 24.9729 27.8184 25.0779 27.8861C25.4982 27.7288 25.6936 27.6623 26.0757 27.5581C26.3768 27.4757 26.5994 27.4599 26.7878 27.4423C26.7878 27.4423 26.523 27.6129 26.0862 27.7486C25.6528 27.8839 25.4658 27.9063 25.1146 27.9718Z" fill="#001689"/>
<path fill-rule="evenodd" clip-rule="evenodd" d="M25.1632 27.3057C25.1387 27.3489 25.0642 27.4518 25.0352 27.4926C26.0236 27.3313 27.1109 26.6029 27.4466 26.1512C27.7836 25.6993 27.6881 25.0254 27.6881 25.0254C27.3614 25.089 26.6531 25.6847 26.4696 25.8641C26.2862 26.0426 25.7322 26.5685 25.3481 26.8616L25.2286 27.2006C25.5571 26.9427 25.9471 26.6555 26.1908 26.477C26.3775 26.3398 26.657 26.1445 26.9358 26.0523C26.9358 26.0523 26.6795 26.3777 26.4722 26.5368C26.2343 26.7207 25.9911 26.8804 25.7908 26.9871C25.6136 27.0821 25.5229 27.1357 25.1632 27.3057Z" fill="#001689"/>
<path fill-rule="evenodd" clip-rule="evenodd" d="M24.9232 26.1628C24.9246 26.2056 24.9258 26.252 24.9237 26.3016L24.9153 26.4103C25.1548 26.1124 25.4423 25.754 25.7153 25.4223C25.903 25.1956 26.0619 25.0583 26.2375 24.9477C26.089 25.3679 25.824 25.7034 25.6355 25.8707C25.4478 26.0379 25.1762 26.3199 24.9105 26.4921L24.8845 26.5774C24.8638 26.6553 24.8324 26.7358 24.7882 26.811C24.726 26.9172 24.6457 27.022 24.5488 27.1233C24.6259 27.0859 24.714 27.0457 24.8032 27.009L24.8854 26.9759C25.616 26.5983 26.3398 25.8165 26.6326 25.2728C26.9248 24.729 26.8047 24.0976 26.7266 23.7598C26.395 24.0336 25.9179 24.5722 25.7097 24.8659C25.4537 25.2253 25.1264 25.7351 24.9232 26.1501V26.1628Z" fill="#001689"/>
<path fill-rule="evenodd" clip-rule="evenodd" d="M15.8075 30.4569C15.5067 30.7499 14.8725 31.408 14.9316 32.1215C14.9316 32.1215 15.5214 31.942 15.7637 31.5209C16.0069 31.1004 16.1568 30.8366 16.2583 30.7418C16.1928 30.7499 16.1273 30.7499 16.0638 30.7396L16.0107 30.7315C15.8608 30.9972 15.5646 31.431 15.2979 31.5825C15.2979 31.5825 15.2298 31.2308 16.0138 30.5176C16.0245 30.4884 16.0407 30.4546 16.0628 30.418C15.9913 30.4437 15.9092 30.4579 15.8176 30.4563" fill="#001689"/>
<path fill-rule="evenodd" clip-rule="evenodd" d="M23.8853 26.5059C23.7357 26.8281 23.4898 27.1588 22.8209 27.6052C22.6705 27.705 22.5053 27.9128 22.631 28.2052C22.7568 28.4971 22.9942 28.9121 22.8516 29.074C22.7101 29.2356 22.2054 29.3197 21.7942 29.159C21.7942 29.159 21.7085 29.4118 21.5586 29.5738C21.5586 29.5738 21.6288 29.7132 21.8661 29.6428C21.8661 29.6428 21.7795 29.8505 21.8975 30.0738C21.8975 30.0738 22.1736 30.0277 22.2912 29.7811C22.2912 29.7811 22.4018 29.9732 22.6236 30.0426C22.6236 30.0426 22.8057 29.9511 22.7655 29.5961C22.7655 29.5961 22.8989 29.9121 23.3102 29.9653C23.3102 29.9653 23.5468 29.6737 23.2382 29.2814C23.2382 29.2814 23.4595 29.4738 23.8618 29.3813C23.8618 29.3813 23.9249 29.1818 23.5611 28.9047C23.5611 28.9047 23.9728 28.8891 24.1307 28.551C24.1307 28.551 23.9568 28.343 23.5312 28.3895C23.5312 28.3895 23.9249 28.3043 24.0117 27.8433C24.0117 27.8433 23.7277 27.6664 23.2787 27.9507C23.2787 27.9507 23.3568 27.805 23.546 27.659C23.7357 27.5127 23.965 27.1052 23.8853 26.5059Z" fill="#001689"/>
<path fill-rule="evenodd" clip-rule="evenodd" d="M22.2328 31.1451C22.2925 31.0675 22.3365 30.9903 22.3709 30.916C22.3002 31.4753 22.2746 31.8524 21.9644 32.2149C21.9644 32.2149 21.7779 31.9725 21.8974 31.3836C21.9504 31.3689 22.0082 31.3446 22.0653 31.3076C22.0653 31.3076 21.9943 31.5468 22.0381 31.7872C22.0381 31.7872 22.1512 31.7083 22.2328 31.1451Z" fill="#001689"/>
<path fill-rule="evenodd" clip-rule="evenodd" d="M22.7701 31.0875C22.8074 31.0421 22.8794 30.9454 22.9161 30.877C22.9417 31.2021 23.0294 32.0564 22.7355 32.3244C22.7355 32.3244 22.5341 32.1806 22.4629 30.9331C22.506 31.0031 22.5807 31.0775 22.6163 31.1183C22.6163 31.1183 22.5682 31.5138 22.7138 31.7932C22.7138 31.7932 22.8596 31.6852 22.7701 31.0875Z" fill="#001689"/>
<path fill-rule="evenodd" clip-rule="evenodd" d="M23.4709 31.7387C23.2228 31.4506 23.1492 30.5869 23.1492 30.5869C23.1154 30.5644 23.0801 30.5401 23.0472 30.5132C23.0324 30.5021 23.0191 30.4908 23.006 30.4785C23.006 30.5097 23.0048 30.5427 23.002 30.5751C23.0366 31.0953 23.0801 31.6307 23.246 31.8974C23.4089 32.1589 23.7086 32.2944 23.7086 32.2944C23.9904 31.8065 23.6502 31.1527 23.3656 30.6978C23.3302 30.6849 23.2952 30.6686 23.2598 30.6508C23.3591 31.0008 23.5493 31.4175 23.4709 31.7387Z" fill="#001689"/>
<path fill-rule="evenodd" clip-rule="evenodd" d="M24.1667 30.2407C24.1693 30.296 24.1581 30.3422 24.1505 30.3649C24.1477 30.3739 24.1432 30.3873 24.1381 30.4006C24.3726 30.6258 24.5479 30.8415 24.8968 31.3139C25.2464 31.7867 25.7997 31.8056 25.7997 31.8056C25.7468 31.4227 25.6397 31.1202 25.3434 30.7938C25.0474 30.4678 24.6692 30.1696 24.3903 29.9727C24.3186 30.0038 24.2256 30.0243 24.1078 30.0106C24.0981 30.01 24.0888 30.0089 24.0801 30.0067C24.1169 30.0547 24.1394 30.1024 24.152 30.1463C24.3626 30.2641 24.9757 30.566 25.2226 31.0538C25.2226 31.0538 24.8351 30.9346 24.1667 30.2407Z" fill="#001689"/>
<path fill-rule="evenodd" clip-rule="evenodd" d="M24.6062 29.7651L24.5829 29.7245C24.5751 29.7109 24.5673 29.6989 24.5585 29.6875C24.7857 29.7734 25.5963 30.0713 25.8581 30.2034C26.12 30.3365 26.4987 30.6366 26.7044 31.2476C26.7044 31.2476 26.1587 31.2949 25.7072 30.9316C25.2563 30.5668 24.7296 30.0594 24.5059 29.8981C24.5283 29.878 24.5451 29.8582 24.5585 29.8416C24.5585 29.8416 25.1689 30.3683 25.8138 30.5963C25.8138 30.5963 25.6764 30.3517 25.422 30.1746C25.1103 29.9597 24.8783 29.8874 24.6062 29.7651Z" fill="#001689"/>
<path fill-rule="evenodd" clip-rule="evenodd" d="M25.0695 29.4032C25.0613 29.3821 25.0525 29.3622 25.0428 29.3438C25.3103 29.3963 25.9788 29.4746 26.2779 29.5632C26.5751 29.6531 27.1156 29.8656 27.436 30.4617C27.436 30.4617 26.9658 30.6027 26.0779 30.1962C25.1903 29.789 24.9133 29.7043 24.7441 29.6605C24.8781 29.6511 24.9741 29.6067 25.0241 29.5768C25.378 29.7306 25.8515 29.912 26.321 29.9243C26.321 29.9243 26.0889 29.765 25.8458 29.6644C25.5809 29.5574 25.2909 29.4593 25.0695 29.4032Z" fill="#001689"/>
<path fill-rule="evenodd" clip-rule="evenodd" d="M25.0484 28.9745C24.9611 29.014 24.8947 29.0338 24.7812 29.0452C24.8431 29.0845 24.9021 29.1338 24.955 29.2006C25.2676 29.2885 25.7996 29.3842 26.6797 29.4462C27.559 29.5072 28.0277 29.3505 28.0277 29.3505C27.7216 29.1678 27.2336 28.9825 26.9032 28.9203C26.572 28.8579 25.7043 28.8652 25.3236 28.8145C25.3194 28.8188 25.2726 28.855 25.1985 28.8992C25.519 28.927 26.2003 28.9578 26.5522 29.1324C26.5522 29.1324 25.9031 29.2162 25.0484 28.9745Z" fill="#001689"/>
<path fill-rule="evenodd" clip-rule="evenodd" d="M22.3751 30.0031C22.3451 29.9771 22.3195 29.9521 22.2966 29.9297C22.2518 29.9853 22.0993 30.1707 22.0248 30.3561C21.9675 30.5141 21.9065 30.7292 21.8772 30.8525C21.8458 30.9748 21.7559 31.2314 21.7012 31.3191C21.7012 31.3191 21.9424 31.3486 22.1209 31.1455C22.2961 30.9465 22.3552 30.7461 22.3836 30.5407C22.404 30.3798 22.3981 30.1565 22.3751 30.0031Z" fill="#001689"/>
<path fill-rule="evenodd" clip-rule="evenodd" d="M22.7543 30.0332C22.71 30.0917 22.6674 30.1153 22.663 30.118L22.6309 30.1341L22.5962 30.1227C22.5672 30.114 22.5399 30.1033 22.5136 30.0906C22.4783 30.1854 22.4649 30.2311 22.4556 30.3116C22.4436 30.419 22.4228 30.588 22.4632 30.726C22.514 30.894 22.6166 30.9969 22.6742 31.0611C22.6742 31.0611 22.8321 30.892 22.8774 30.7532C22.924 30.6072 22.941 30.4375 22.8837 30.2636C22.8514 30.1691 22.7995 30.0829 22.7543 30.0332Z" fill="#001689"/>
<path fill-rule="evenodd" clip-rule="evenodd" d="M23.297 30.0494C23.1354 30.0286 23.014 29.9718 22.9214 29.9062C22.9016 29.9615 22.8693 30.0358 22.8933 30.1411C22.9165 30.2467 22.9915 30.3631 23.1006 30.4475C23.2618 30.5737 23.4796 30.6928 23.7199 30.6568C23.7199 30.6568 23.7752 30.4806 23.297 30.0494Z" fill="#001689"/>
<path fill-rule="evenodd" clip-rule="evenodd" d="M23.4791 29.7559C23.46 29.9123 23.3832 30.0105 23.377 30.0183C23.4332 30.0835 23.6356 30.422 24.0601 30.3659C24.0601 30.3659 24.1729 30.1348 23.8929 29.9512C23.7008 29.8269 23.6105 29.8016 23.4791 29.7559Z" fill="#001689"/>
<path fill-rule="evenodd" clip-rule="evenodd" d="M23.4414 29.466C23.5542 29.4936 23.7013 29.5046 23.8807 29.4633L23.9295 29.4523L23.9436 29.4062C24.1611 29.5786 24.419 29.6078 24.5076 29.7642C24.5076 29.7642 24.3992 29.9585 24.1181 29.9267C23.8363 29.8937 23.6238 29.7651 23.4734 29.5809C23.468 29.5536 23.4558 29.5014 23.4414 29.466Z" fill="#001689"/>
<path fill-rule="evenodd" clip-rule="evenodd" d="M23.9297 29.225C23.8893 29.167 23.8609 29.0774 23.7773 28.9865C23.9649 28.9551 24.1322 28.9525 24.3502 28.994C24.6099 29.0411 24.8748 29.1008 25.008 29.4865C25.008 29.4865 24.8403 29.6246 24.5374 29.5648C24.2811 29.5129 24.0574 29.4055 23.9297 29.225Z" fill="#001689"/>
<path fill-rule="evenodd" clip-rule="evenodd" d="M24.041 28.8073C24.1064 28.7518 24.1664 28.6805 24.2099 28.5873L24.2311 28.539C24.4568 28.4498 24.6915 28.404 24.9203 28.4868C25.1508 28.5711 25.2108 28.6668 25.2701 28.7508C25.2701 28.7508 25.0152 28.9585 24.7218 28.9656C24.4293 28.975 24.1587 28.8923 24.041 28.8073Z" fill="#001689"/>
<path fill-rule="evenodd" clip-rule="evenodd" d="M23.9716 28.3569C23.9326 28.3426 23.8892 28.3293 23.8398 28.3196C23.94 28.2342 24.038 28.1034 24.0856 27.9088C24.1902 27.9325 24.4356 27.9325 24.5438 27.8928C24.6518 27.8524 24.8642 27.8504 25.0297 27.9568C25.0297 27.9568 24.9758 28.2404 24.5993 28.3371C24.2449 28.4276 24.115 28.4042 23.9716 28.3569Z" fill="#001689"/>
<path fill-rule="evenodd" clip-rule="evenodd" d="M24.1062 27.803L24.0573 27.7722C24.0502 27.768 23.9663 27.7176 23.8223 27.7066C23.944 27.6193 24.2307 27.384 24.4356 27.2711C24.6581 27.1498 25.0264 26.9889 25.2155 26.9648C25.2155 26.9648 25.0388 27.415 24.8332 27.5969C24.6207 27.7858 24.4716 27.8555 24.1062 27.803Z" fill="#001689"/>
<path fill-rule="evenodd" clip-rule="evenodd" d="M23.7266 27.596C23.8175 27.4824 23.8879 27.3254 23.9401 27.1398C23.9833 26.9892 24.0803 26.6151 24.1382 26.5184C24.1964 26.4211 24.4035 26.0824 24.8089 25.9766C24.8089 25.9766 24.9169 26.4191 24.7126 26.768C24.5361 27.0697 24.1763 27.3874 23.7266 27.596Z" fill="#001689"/>
<path fill-rule="evenodd" clip-rule="evenodd" d="M21.4788 29.6513C21.4264 29.7013 21.388 29.7282 21.2985 29.7726C21.2985 29.7726 21.1685 30.013 21.3259 30.3041C21.4822 30.5948 21.6144 30.8911 21.6784 31.0563C21.6784 31.0563 21.7627 31.0439 21.8559 30.589C21.9195 30.2807 21.9999 30.2035 22.0827 30.0977C21.9914 30.1426 21.919 30.1558 21.9122 30.1571L21.8499 30.1675L21.8209 30.113C21.7642 30.0092 21.7491 29.9083 21.7491 29.8239C21.7491 29.7963 21.7503 29.7704 21.7533 29.7466C21.6073 29.7503 21.5294 29.6785 21.5005 29.6421C21.4971 29.6383 21.4947 29.6361 21.4931 29.6328L21.4788 29.6513Z" fill="#001689"/>
<path fill-rule="evenodd" clip-rule="evenodd" d="M23.9898 30.4569C24.2904 30.7499 24.9251 31.408 24.8648 32.1215C24.8648 32.1215 24.2753 31.942 24.0335 31.5209C23.7902 31.1004 23.6412 30.8366 23.5391 30.7418C23.6035 30.7499 23.669 30.7499 23.7333 30.7396L23.7875 30.7315C23.9365 30.9972 24.2328 31.431 24.4997 31.5825C24.4997 31.5825 24.5673 31.2308 23.7837 30.5176C23.7727 30.4884 23.7561 30.4546 23.7345 30.418C23.8059 30.4437 23.8878 30.4579 23.9792 30.4563" fill="#001689"/>
<path fill-rule="evenodd" clip-rule="evenodd" d="M19.4375 24.766C19.4375 24.7134 19.6439 24.6699 19.8978 24.6699C20.1523 24.6699 20.3582 24.7134 20.3582 24.766C20.3582 24.8182 20.1523 24.8613 19.8978 24.8613C19.6439 24.8613 19.4375 24.8182 19.4375 24.766Z" fill="#001689"/>
<path fill-rule="evenodd" clip-rule="evenodd" d="M19.9878 24.9746C19.9878 25.0233 19.9482 25.0629 19.8979 25.0629C19.848 25.0629 19.8066 25.0233 19.8066 24.9746C19.8066 24.926 19.848 24.8867 19.8979 24.8867C19.9482 24.8867 19.9878 24.926 19.9878 24.9746Z" fill="#001689"/>
<path fill-rule="evenodd" clip-rule="evenodd" d="M19.4059 24.671C19.2536 24.3157 19.1506 24.0527 19.1544 23.965C19.157 23.9121 19.2222 23.8725 19.2839 23.8543C19.3441 23.8356 19.3982 23.832 19.4389 23.8622C19.5189 23.9218 19.5923 24.4021 19.6201 24.6016C19.5429 24.6158 19.496 24.6256 19.4059 24.671Z" fill="#001689"/>
<path fill-rule="evenodd" clip-rule="evenodd" d="M19.6861 24.5947C19.7245 24.5898 19.7645 24.5882 19.8048 24.5866C19.7808 24.3959 19.7126 24.0779 19.6733 23.9532C19.6332 23.8276 19.5824 23.7375 19.498 23.7148C19.498 23.7148 19.5636 23.8896 19.5998 24.0697C19.6354 24.2505 19.6626 24.4228 19.6861 24.5947Z" fill="#001689"/>
<path fill-rule="evenodd" clip-rule="evenodd" d="M19.2014 25.2308C19.3703 25.192 19.5432 25.016 19.5432 25.016C19.2703 25.0543 19.2014 25.2308 19.2014 25.2308ZM19.4543 25.2149C19.2188 25.3482 18.9551 25.3281 18.9551 25.3281C19.0061 25.237 19.0542 25.1527 19.2014 25.0504C19.3486 24.9475 19.589 24.922 19.6833 24.9346C19.6623 25.0031 19.5665 25.1507 19.4543 25.2149Z" fill="#001689"/>
<path fill-rule="evenodd" clip-rule="evenodd" d="M18.5747 25.5942V25.5758C18.3432 25.6046 18.0706 25.593 18.0706 25.593C18.0843 25.6767 18.1203 25.7403 18.1813 25.7791C18.1961 25.5962 18.5747 25.5942 18.5747 25.5942ZM17.8066 25.3525C17.8066 25.3525 18.0993 25.4583 18.3925 25.4449C18.6845 25.4304 19.2243 25.4245 19.398 25.3418C19.398 25.3418 19.3698 25.4489 19.2306 25.5105C19.2306 25.5105 19.304 25.5105 19.3754 25.5719C19.3754 25.5719 19.3333 25.6604 19.209 25.7071C19.209 25.7071 19.4321 25.9327 19.6713 25.9164C19.6713 25.9164 19.5613 26.0501 19.3166 25.9985C19.072 25.9473 18.9937 25.8139 18.9523 25.7626C18.9523 25.7626 18.9841 25.8902 18.9689 25.9417C18.9689 25.9417 18.8617 25.9353 18.778 25.8327C18.778 25.8327 18.8387 25.9353 18.8514 26.0219C18.8514 26.0219 18.784 26.0294 18.6631 25.9599C18.6631 25.9599 18.6884 26.0238 18.6931 26.0971C18.6931 26.0971 18.4105 26.0092 18.2737 25.884C18.2737 25.884 18.2719 25.9703 18.2787 26.0192C18.2787 26.0192 17.8403 25.9761 17.8066 25.3525Z" fill="#001689"/>
<path fill-rule="evenodd" clip-rule="evenodd" d="M17.7381 25.3937C17.7491 25.5287 17.7845 25.6618 17.8329 25.7562C17.8329 25.7562 17.6605 25.63 17.6185 25.5226C17.5754 25.4162 17.5653 25.3422 17.7381 25.3937Z" fill="#001689"/>
<path fill-rule="evenodd" clip-rule="evenodd" d="M17.3923 25.9069C17.4331 25.9069 17.4654 25.8761 17.4654 25.8371C17.4654 25.7982 17.4331 25.767 17.3923 25.767C17.3534 25.767 17.322 25.7982 17.322 25.8371C17.322 25.8761 17.3534 25.9069 17.3923 25.9069ZM17.8148 25.8248C17.9303 25.8761 18.033 25.9977 18.033 25.9977C17.8582 26.0367 17.7807 26.0854 17.7807 26.0854C17.4456 25.8553 17.1696 26.0867 17.1696 26.0867C16.9884 25.9874 16.9537 25.7427 17.0442 25.6137C17.1347 25.4838 17.3391 25.5066 17.436 25.5292C17.4974 25.7184 17.7109 25.779 17.8148 25.8248Z" fill="#001689"/>
<path fill-rule="evenodd" clip-rule="evenodd" d="M18.0719 26.041C18.0719 26.041 18.1936 26.1996 18.283 26.2694C18.283 26.2694 17.8323 26.2652 17.7187 26.6454C17.7187 26.6454 17.5624 26.4125 17.6764 26.2607C17.7994 26.0972 17.9118 26.0771 18.0719 26.041Z" fill="#001689"/>
<path fill-rule="evenodd" clip-rule="evenodd" d="M18.5664 26.1358C18.5664 26.1358 18.7121 26.1777 18.7608 26.19C18.7608 26.19 18.7621 26.1079 18.7593 26.0684C18.8031 26.0787 18.8575 26.0923 18.9044 26.0968C18.9044 26.0968 19.0494 26.4129 19.1631 26.5405C19.1631 26.5405 19.1697 26.6106 19.1063 26.717C19.1063 26.717 19.0239 26.53 18.8763 26.3801C18.793 26.2961 18.7395 26.2532 18.5664 26.1358Z" fill="#001689"/>
<path fill-rule="evenodd" clip-rule="evenodd" d="M18.1836 26.0684C18.2308 26.0807 18.4635 26.1517 18.575 26.2309C18.7166 26.3289 18.8137 26.4421 18.7981 26.6365C18.7981 26.6365 18.6847 26.4823 18.5587 26.4129C18.4593 26.3574 18.2789 26.2039 18.1836 26.0684Z" fill="#001689"/>
<path fill-rule="evenodd" clip-rule="evenodd" d="M18.1856 24.6387C18.2285 24.6387 18.3114 24.6588 18.3114 24.7256C18.3114 24.7938 18.2043 24.9566 18.175 25.0287H18.1723C18.1439 24.9566 18.0352 24.7938 18.0352 24.7256C18.0352 24.6588 18.1193 24.6387 18.162 24.6387H18.1856Z" fill="#001689"/>
<path fill-rule="evenodd" clip-rule="evenodd" d="M18.0925 25.1631C18.0726 25.0683 18.0339 24.8224 17.9744 24.7682C17.9177 24.716 17.833 24.7111 17.7918 24.7133C17.749 24.716 17.7052 24.7582 17.7227 24.813C17.7393 24.8698 17.926 25.1419 17.9504 25.1763C17.9938 25.1689 17.9856 25.1718 18.0925 25.1631Z" fill="#001689"/>
<path fill-rule="evenodd" clip-rule="evenodd" d="M18.2578 25.1631C18.2788 25.0683 18.3165 24.8224 18.3764 24.7682C18.4327 24.716 18.5177 24.7111 18.559 24.7133C18.6016 24.716 18.6462 24.7582 18.6291 24.813C18.6109 24.8698 18.4246 25.1419 18.3997 25.1763C18.3568 25.1689 18.365 25.1718 18.2578 25.1631Z" fill="#001689"/>
<path fill-rule="evenodd" clip-rule="evenodd" d="M18.3765 24.3068H18.2307V24.1504H18.1136V24.3068H17.9668V24.4057H18.1136V24.5893H18.2307V24.4057H18.3765V24.3068Z" fill="#001689"/>
<path fill-rule="evenodd" clip-rule="evenodd" d="M16.615 25.3201C16.615 25.2889 16.6165 25.259 16.6211 25.2291C16.6321 25.1526 16.6331 25.0877 16.6246 25.0332C16.5197 25.0727 16.4489 25.0972 16.3047 25.3243C16.3047 25.3243 16.5346 25.1861 16.615 25.3201Z" fill="#001689"/>
<path fill-rule="evenodd" clip-rule="evenodd" d="M16.8152 25.6779C16.8182 25.6217 16.8565 25.4436 16.9044 25.319C16.963 25.1643 16.9289 24.941 16.8579 24.8053C16.7898 24.6746 16.7527 24.5516 16.7639 24.416C16.7639 24.416 16.6288 24.4604 16.5499 24.5075C16.5375 24.6649 16.6316 24.8223 16.6764 24.9115C16.7293 25.0172 16.7183 25.1551 16.7067 25.2395C16.6863 25.3825 16.7163 25.5347 16.8152 25.6779Z" fill="#001689"/>
<path fill-rule="evenodd" clip-rule="evenodd" d="M16.8298 24.4759C16.8244 24.4577 16.8244 24.4081 16.8344 24.3883C16.8344 24.3883 17.0493 24.1848 17.2294 24.1505C17.3429 24.1274 17.4128 24.1767 17.447 24.204C17.447 24.204 17.384 24.1969 17.2877 24.2734C17.191 24.3494 17.0713 24.4409 16.982 24.4639C16.892 24.4869 16.8734 24.4802 16.8298 24.4759Z" fill="#001689"/>
<path fill-rule="evenodd" clip-rule="evenodd" d="M17.4649 24.2207C17.5447 24.2992 17.6135 24.3827 17.6117 24.4547C17.6106 24.5293 17.5213 24.7169 17.475 24.7881C17.4284 24.8593 17.3598 24.953 17.3675 25.0665C17.3718 25.123 17.4125 25.1812 17.4604 25.2294C17.4604 25.2294 17.1976 25.1688 17.1652 25.0107C17.1373 24.8693 17.1994 24.7707 17.2418 24.6924C17.2806 24.6185 17.4014 24.4472 17.4326 24.3758C17.4604 24.3109 17.475 24.257 17.4649 24.2207Z" fill="#001689"/>
<path fill-rule="evenodd" clip-rule="evenodd" d="M19 26C19.0519 26.1814 19.1414 26.3514 19.2294 26.4848C19.3086 26.6071 19.3588 26.8043 19.3514 26.8715C19.3514 26.8715 19.4699 26.6165 19.41 26.4364C19.3619 26.2965 19.2348 26.0876 19 26Z" fill="#001689"/>
<path fill-rule="evenodd" clip-rule="evenodd" d="M19.2949 26.0605C19.2949 26.0605 19.4753 26.0642 19.5593 26.118C19.6673 26.1874 19.7702 26.3396 19.8101 26.5219C19.8101 26.5219 19.6281 26.4911 19.5386 26.4039C19.4481 26.3162 19.3372 26.1854 19.2949 26.0605Z" fill="#001689"/>
<path fill-rule="evenodd" clip-rule="evenodd" d="M18.3635 26.377C18.3289 26.3795 18.2364 26.4003 18.1914 26.4136C18.1914 26.4136 18.3445 26.4571 18.4213 26.519C18.487 26.5713 18.5433 26.6522 18.5689 26.789C18.6068 26.9801 18.7215 27.1856 18.7559 27.2475L18.77 27.245C18.7492 27.1135 18.8326 26.8407 18.8553 26.801C18.8553 26.801 18.7331 26.7271 18.677 26.6499C18.6359 26.593 18.5639 26.4983 18.3635 26.377Z" fill="#001689"/>
<path fill-rule="evenodd" clip-rule="evenodd" d="M19.1609 26.7871C19.2051 26.8873 19.3244 27.0651 19.2687 27.2501C19.2132 27.4357 19.0886 27.5152 19.0121 27.6729C19.0121 27.6729 18.9522 27.3886 18.9646 27.17C18.9783 26.9506 19.0603 26.8663 19.1609 26.7871Z" fill="#001689"/>
<path fill-rule="evenodd" clip-rule="evenodd" d="M19.5052 26.793C19.5052 26.793 19.6843 27.1313 19.7167 27.2638C19.7479 27.3952 19.7189 27.4827 19.6576 27.563C19.598 27.642 19.4945 27.7281 19.3989 27.8952C19.3989 27.8952 19.2884 27.7527 19.2754 27.6784C19.2626 27.6041 19.2833 27.4263 19.3074 27.3524C19.3306 27.2768 19.4252 27.0373 19.5052 26.793Z" fill="#001689"/>
<path fill-rule="evenodd" clip-rule="evenodd" d="M19.5977 27.873C19.5588 27.9146 19.3495 28.1596 19.3215 28.231C19.2932 28.302 19.2449 28.4372 19.3093 28.5317C19.3749 28.6258 19.5243 28.775 19.6534 28.8386C19.6534 28.8386 19.5126 28.6235 19.5275 28.4473C19.5356 28.3344 19.6256 28.2339 19.6428 28.165C19.6598 28.0969 19.6491 27.9807 19.5977 27.873Z" fill="#001689"/>
<path fill-rule="evenodd" clip-rule="evenodd" d="M19.1887 27.7402C19.2208 27.7837 19.2767 27.8892 19.2846 27.9917C19.2924 28.0929 19.2753 28.1743 19.2184 28.3227C19.1475 28.5099 19.0361 28.7183 18.9844 28.8123C18.9844 28.8123 18.8864 28.6754 18.832 28.553C18.832 28.553 18.9855 28.3477 19.0515 28.2029C19.1269 28.0322 19.1584 27.8745 19.1887 27.7402Z" fill="#001689"/>
<path fill-rule="evenodd" clip-rule="evenodd" d="M19.1181 27.6582C19.1181 27.6582 19.0517 28.1401 18.7609 28.4973C18.5639 28.7393 18.4041 28.8237 18.298 28.8237C18.1385 28.8237 17.9778 28.6943 17.9246 28.5453C17.8702 28.3976 17.8881 28.1669 17.9914 28.0852C17.9914 28.0852 18.0865 28.3743 18.2914 28.3847C18.523 28.3976 18.8203 28.1446 19.1181 27.6582Z" fill="#001689"/>
<path fill-rule="evenodd" clip-rule="evenodd" d="M18.8794 27.459C18.9036 27.5449 18.9112 27.677 18.8794 27.8017C18.8553 27.8967 18.7963 28.0197 18.6825 28.0893C18.5842 28.1491 18.3514 28.1634 18.2637 27.9499C18.2637 27.9499 18.6875 27.9811 18.8794 27.459Z" fill="#001689"/>
<path fill-rule="evenodd" clip-rule="evenodd" d="M19.5719 29.4004C19.6295 29.5454 19.8362 29.7284 19.8357 29.8417C19.8325 30.1409 19.6974 30.3241 19.6659 30.4227C19.6659 30.4227 19.4198 30.2326 19.3759 30.0146C19.3534 29.9026 19.3796 29.5666 19.5719 29.4004Z" fill="#001689"/>
<path fill-rule="evenodd" clip-rule="evenodd" d="M19.297 29.613C19.3254 29.5351 19.4164 29.3232 19.5209 29.2495C19.5209 29.2495 19.6547 28.8657 19.2241 28.6289C19.2241 28.6289 19.0469 28.8576 19.0004 29.073C18.9531 29.2898 19.1873 29.4189 19.297 29.613Z" fill="#001689"/>
<path fill-rule="evenodd" clip-rule="evenodd" d="M18.7571 28.6406C18.6879 28.723 18.5898 28.8353 18.514 28.8704C18.514 28.8704 18.4882 29.042 18.5022 29.1562C18.5252 29.3256 18.6358 29.4982 18.6839 29.6247C18.6839 29.6247 18.8723 29.3849 18.8939 29.2441C18.9153 29.103 18.9126 28.9871 18.9197 28.9193C18.9197 28.9193 18.8147 28.7532 18.7571 28.6406Z" fill="#001689"/>
<path fill-rule="evenodd" clip-rule="evenodd" d="M18.2605 29.4662C18.2072 29.3864 18.0355 29.0963 18.0332 28.8848C18.0332 28.8848 18.2454 28.9948 18.4231 28.9136C18.4231 28.9136 18.446 29.1891 18.4125 29.2819C18.3835 29.3574 18.3474 29.4023 18.2605 29.4662Z" fill="#001689"/>
<path fill-rule="evenodd" clip-rule="evenodd" d="M18.3086 29.5243C18.343 29.4947 18.4278 29.4188 18.4632 29.3789C18.4632 29.3789 18.6039 29.6304 18.6279 29.704C18.6279 29.704 18.5573 29.7219 18.4796 29.667C18.4026 29.6122 18.3847 29.5973 18.3086 29.5243Z" fill="#001689"/>
<path fill-rule="evenodd" clip-rule="evenodd" d="M18.9617 29.377C18.945 29.4406 18.717 29.7488 18.6777 29.7867C18.6777 29.7867 18.6946 29.8983 18.7796 30.0594C18.8638 30.2193 18.9812 30.3322 19.0439 30.3889C19.0439 30.3889 19.1853 30.1499 19.227 30.0454C19.2735 29.925 19.2684 29.8066 19.2486 29.7622C19.2003 29.658 19.0355 29.5074 18.9617 29.377Z" fill="#001689"/>
<path fill-rule="evenodd" clip-rule="evenodd" d="M19.3043 30.1836C19.3547 30.2824 19.5066 30.4453 19.5302 30.5742C19.5492 30.6751 19.5326 30.7578 19.5042 30.8286C19.4755 30.8967 19.385 31.033 19.3241 31.1365C19.3241 31.1365 19.1158 30.9451 19.0703 30.8085C19.0355 30.7057 19.0486 30.5596 19.0984 30.4688C19.148 30.3772 19.2567 30.2782 19.3043 30.1836Z" fill="#001689"/>
<path fill-rule="evenodd" clip-rule="evenodd" d="M18.715 30.1543C18.7683 30.2695 18.8973 30.3837 18.9268 30.4839C18.961 30.6028 18.9725 30.6777 18.9136 30.8162C18.8611 30.9369 18.7979 31.008 18.777 31.082C18.777 31.082 18.6079 30.8685 18.5794 30.7799C18.5516 30.6913 18.5424 30.5453 18.5774 30.4531C18.6113 30.3594 18.673 30.2394 18.715 30.1543Z" fill="#001689"/>
<path fill-rule="evenodd" clip-rule="evenodd" d="M19.5484 30.9668C19.5484 30.9668 19.2571 31.3091 19.2638 31.4905C19.2726 31.7163 19.4265 31.8673 19.448 32.0061C19.448 32.0061 19.6001 31.838 19.6588 31.7251C19.724 31.5985 19.7733 31.4905 19.7574 31.3468C19.7389 31.2027 19.7003 31.1109 19.5484 30.9668Z" fill="#001689"/>
<path fill-rule="evenodd" clip-rule="evenodd" d="M19.0117 30.9336C19.0578 30.9991 19.1872 31.223 19.1508 31.3553C19.1143 31.4894 18.971 31.677 18.9226 31.7567C18.9226 31.7567 18.8079 31.5271 18.7815 31.4213C18.7561 31.3167 18.7796 31.1444 19.0117 30.9336Z" fill="#001689"/>
<path fill-rule="evenodd" clip-rule="evenodd" d="M19.902 24.3946C19.9218 24.2659 20.0749 23.9894 20.0749 23.8689C20.0749 23.7739 19.9961 23.6973 19.8992 23.6973C19.801 23.6973 19.7227 23.7739 19.7227 23.8689C19.7227 23.9894 19.8771 24.2659 19.8961 24.3946H19.902Z" fill="#001689"/>
<path fill-rule="evenodd" clip-rule="evenodd" d="M20.392 24.671C20.5456 24.3157 20.6474 24.0527 20.6434 23.965C20.641 23.9121 20.5761 23.8725 20.5156 23.8543C20.454 23.8356 20.3991 23.832 20.3591 23.8622C20.2796 23.9218 20.2049 24.4021 20.1777 24.6016C20.256 24.6158 20.3028 24.6256 20.392 24.671Z" fill="#001689"/>
<path fill-rule="evenodd" clip-rule="evenodd" d="M20.1124 24.5947C20.0736 24.5898 20.0336 24.5882 19.9941 24.5866C20.0186 24.3959 20.0857 24.0779 20.1256 23.9532C20.1649 23.8276 20.2155 23.7375 20.3008 23.7148C20.3008 23.7148 20.2348 23.8896 20.1989 24.0697C20.1635 24.2505 20.1358 24.4228 20.1124 24.5947Z" fill="#001689"/>
<path fill-rule="evenodd" clip-rule="evenodd" d="M20.2564 25.016C20.2564 25.016 20.4282 25.192 20.5981 25.2308C20.5981 25.2308 20.5284 25.0543 20.2564 25.016ZM20.1152 24.9346C20.2103 24.922 20.4504 24.9475 20.5981 25.0504C20.7456 25.1527 20.7932 25.237 20.8437 25.3282C20.8437 25.3282 20.58 25.3482 20.3446 25.2149C20.2331 25.1507 20.137 25.0031 20.1152 24.9346Z" fill="#001689"/>
<path fill-rule="evenodd" clip-rule="evenodd" d="M21.6164 25.7791C21.6779 25.7402 21.7128 25.6767 21.7278 25.5928C21.7278 25.5928 21.4545 25.6046 21.2219 25.5758V25.5942C21.2219 25.5942 21.6017 25.5961 21.6164 25.7791ZM21.5196 26.0192C21.5264 25.9703 21.5239 25.8839 21.5239 25.8839C21.3868 26.0092 21.1051 26.0971 21.1051 26.0971C21.1093 26.0238 21.1334 25.9599 21.1334 25.9599C21.0138 26.0294 20.9467 26.0218 20.9467 26.0218C20.9591 25.9352 21.0204 25.8326 21.0204 25.8326C20.936 25.9352 20.8285 25.9417 20.8285 25.9417C20.8137 25.8902 20.8456 25.7626 20.8456 25.7626C20.8041 25.8139 20.7263 25.9473 20.4812 25.9985C20.2359 26.0501 20.127 25.9164 20.127 25.9164C20.3657 25.9326 20.5886 25.7071 20.5886 25.7071C20.4646 25.6604 20.4226 25.5718 20.4226 25.5718C20.4948 25.5105 20.5677 25.5105 20.5677 25.5105C20.4279 25.4489 20.399 25.3418 20.399 25.3418C20.5742 25.4245 21.1131 25.4304 21.4063 25.4449C21.6989 25.4583 21.9903 25.3525 21.9903 25.3525C21.9573 25.9761 21.5196 26.0192 21.5196 26.0192Z" fill="#001689"/>
<path fill-rule="evenodd" clip-rule="evenodd" d="M22.0595 25.3937C22.0487 25.5287 22.0128 25.6618 21.9648 25.7562C21.9648 25.7562 22.1375 25.63 22.1788 25.5226C22.221 25.4162 22.2319 25.3422 22.0595 25.3937Z" fill="#001689"/>
<path fill-rule="evenodd" clip-rule="evenodd" d="M22.4764 25.8371C22.4764 25.7982 22.4433 25.767 22.4041 25.767C22.3649 25.767 22.3322 25.7982 22.3322 25.8371C22.3322 25.8761 22.3649 25.9069 22.4041 25.9069C22.4433 25.9069 22.4764 25.8761 22.4764 25.8371ZM22.3617 25.5292C22.4589 25.5066 22.6631 25.4838 22.7533 25.6137C22.8448 25.7427 22.8091 25.9874 22.6275 26.0867C22.6275 26.0867 22.351 25.8553 22.0169 26.0854C22.0169 26.0854 21.9385 26.0367 21.7637 25.9977C21.7637 25.9977 21.867 25.8761 21.9831 25.8248C22.086 25.779 22.3004 25.7184 22.3617 25.5292Z" fill="#001689"/>
<path fill-rule="evenodd" clip-rule="evenodd" d="M21.7261 26.041C21.7261 26.041 21.6051 26.1996 21.5156 26.2694C21.5156 26.2694 21.9661 26.2652 22.0798 26.6454C22.0798 26.6454 22.2361 26.4125 22.1216 26.2607C21.9993 26.0972 21.8867 26.0771 21.7261 26.041Z" fill="#001689"/>
<path fill-rule="evenodd" clip-rule="evenodd" d="M21.231 26.1358C21.231 26.1358 21.0853 26.1777 21.0369 26.19C21.0369 26.19 21.0342 26.1079 21.0392 26.0684C20.995 26.0787 20.9409 26.0923 20.8937 26.0968C20.8937 26.0968 20.748 26.4129 20.635 26.5405C20.635 26.5405 20.6281 26.6106 20.6913 26.717C20.6913 26.717 20.7736 26.53 20.9206 26.3801C21.0045 26.2961 21.0576 26.2532 21.231 26.1358Z" fill="#001689"/>
<path fill-rule="evenodd" clip-rule="evenodd" d="M21.6135 26.0684C21.5682 26.0807 21.3352 26.1517 21.2218 26.2309C21.0816 26.3289 20.9848 26.4421 20.9995 26.6365C20.9995 26.6365 21.1138 26.4823 21.2391 26.4129C21.3393 26.3574 21.5195 26.2039 21.6135 26.0684Z" fill="#001689"/>
<path fill-rule="evenodd" clip-rule="evenodd" d="M21.6106 24.6387C21.568 24.6387 21.4844 24.6588 21.4844 24.7256C21.4844 24.7938 21.5926 24.9566 21.6212 25.0287H21.6239C21.6526 24.9566 21.761 24.7938 21.761 24.7256C21.761 24.6588 21.6776 24.6387 21.6342 24.6387H21.6106Z" fill="#001689"/>
<path fill-rule="evenodd" clip-rule="evenodd" d="M21.707 25.1631C21.7268 25.0683 21.7643 24.8224 21.825 24.7682C21.882 24.716 21.966 24.7111 22.0082 24.7133C22.051 24.716 22.0953 24.7582 22.0762 24.813C22.0599 24.8698 21.8728 25.1419 21.8478 25.1763C21.8049 25.1689 21.8136 25.1718 21.707 25.1631Z" fill="#001689"/>
<path fill-rule="evenodd" clip-rule="evenodd" d="M21.5406 25.1631C21.52 25.0683 21.4819 24.8224 21.4219 24.7682C21.3646 24.716 21.2802 24.7111 21.2385 24.7133C21.1969 24.716 21.152 24.7582 21.1702 24.813C21.187 24.8698 21.373 25.1419 21.3985 25.1763C21.4416 25.1689 21.433 25.1718 21.5406 25.1631Z" fill="#001689"/>
<path fill-rule="evenodd" clip-rule="evenodd" d="M21.4219 24.3068H21.5668V24.1504H21.6838V24.3068H21.8298V24.4057H21.6838V24.5893H21.5668V24.4057H21.4219V24.3068Z" fill="#001689"/>
<path fill-rule="evenodd" clip-rule="evenodd" d="M19.6934 23.3794H19.8382V23.2227H19.9568V23.3794H20.1025V23.4777H19.9568V23.6623H19.8382V23.4777H19.6934V23.3794Z" fill="#001689"/>
<path fill-rule="evenodd" clip-rule="evenodd" d="M23.1842 25.3201C23.1828 25.2889 23.1809 25.259 23.1771 25.2291C23.1667 25.1526 23.1649 25.0877 23.1731 25.0332C23.2783 25.0727 23.3489 25.0972 23.4935 25.3243C23.4935 25.3243 23.2635 25.1861 23.1842 25.3201Z" fill="#001689"/>
<path fill-rule="evenodd" clip-rule="evenodd" d="M22.9817 25.6779C22.9785 25.6217 22.9411 25.4436 22.8938 25.319C22.8346 25.1643 22.868 24.941 22.9388 24.8053C23.007 24.6746 23.0454 24.5516 23.0328 24.416C23.0328 24.416 23.1687 24.4604 23.2468 24.5075C23.26 24.6649 23.1661 24.8223 23.1216 24.9115C23.0679 25.0172 23.0785 25.1551 23.0905 25.2395C23.1112 25.3825 23.0796 25.5347 22.9817 25.6779Z" fill="#001689"/>
<path fill-rule="evenodd" clip-rule="evenodd" d="M22.968 24.4759C22.9723 24.4577 22.9719 24.4081 22.9622 24.3883C22.9622 24.3883 22.7486 24.1848 22.5682 24.1505C22.4539 24.1274 22.3839 24.1767 22.3496 24.204C22.3496 24.204 22.4136 24.1969 22.5096 24.2734C22.6055 24.3494 22.7247 24.4409 22.8154 24.4639C22.9054 24.4869 22.9252 24.4802 22.968 24.4759Z" fill="#001689"/>
<path fill-rule="evenodd" clip-rule="evenodd" d="M22.3321 24.2207C22.2519 24.2992 22.1841 24.3827 22.1856 24.4547C22.1866 24.5293 22.2755 24.7169 22.3222 24.7881C22.3692 24.8593 22.4373 24.953 22.4287 25.0665C22.425 25.123 22.3844 25.1812 22.3373 25.2294C22.3373 25.2294 22.5996 25.1688 22.631 25.0107C22.66 24.8693 22.5986 24.7707 22.5559 24.6924C22.5168 24.6185 22.3953 24.4472 22.365 24.3758C22.3373 24.3109 22.3222 24.257 22.3321 24.2207Z" fill="#001689"/>
<path fill-rule="evenodd" clip-rule="evenodd" d="M20.7995 26C20.7463 26.1814 20.6576 26.3514 20.5698 26.4848C20.49 26.6071 20.4397 26.8043 20.4489 26.8715C20.4489 26.8715 20.3295 26.6165 20.3903 26.4364C20.4366 26.2965 20.5637 26.0876 20.7995 26Z" fill="#001689"/>
<path fill-rule="evenodd" clip-rule="evenodd" d="M20.5013 26.0605C20.5013 26.0605 20.322 26.0642 20.2381 26.118C20.1293 26.1874 20.0256 26.3396 19.9863 26.5219C19.9863 26.5219 20.1685 26.4911 20.2587 26.4039C20.3491 26.3162 20.4593 26.1854 20.5013 26.0605Z" fill="#001689"/>
<path fill-rule="evenodd" clip-rule="evenodd" d="M21.4345 26.377C21.4694 26.3795 21.5612 26.4003 21.6062 26.4136C21.6062 26.4136 21.4527 26.4571 21.3767 26.519C21.3115 26.5713 21.2537 26.6522 21.2283 26.789C21.1915 26.9801 21.0758 27.1856 21.0411 27.2475L21.0283 27.245C21.0494 27.1135 20.965 26.8407 20.9434 26.801C20.9434 26.801 21.0652 26.7271 21.1204 26.6499C21.1609 26.593 21.2343 26.4983 21.4345 26.377Z" fill="#001689"/>
<path fill-rule="evenodd" clip-rule="evenodd" d="M20.6361 26.7871C20.5924 26.8873 20.473 27.0651 20.5278 27.2501C20.584 27.4357 20.7089 27.5152 20.7847 27.6729C20.7847 27.6729 20.8456 27.3886 20.8322 27.17C20.8186 26.9506 20.7373 26.8663 20.6361 26.7871Z" fill="#001689"/>
<path fill-rule="evenodd" clip-rule="evenodd" d="M19.9011 27.3054C19.9095 27.1967 20.1673 26.9352 20.1544 26.7938C20.141 26.6517 19.9478 26.5521 19.9 26.5312H19.8975C19.8505 26.5521 19.6569 26.6517 19.6431 26.7938C19.6296 26.9352 19.888 27.1967 19.8958 27.3054H19.9011Z" fill="#001689"/>
<path fill-rule="evenodd" clip-rule="evenodd" d="M20.2908 26.793C20.2908 26.793 20.1117 27.1313 20.0792 27.2638C20.0476 27.3952 20.0772 27.4827 20.1382 27.563C20.1984 27.642 20.301 27.7281 20.3976 27.8952C20.3976 27.8952 20.5073 27.7527 20.5213 27.6784C20.5345 27.6041 20.5128 27.4263 20.4888 27.3524C20.4653 27.2768 20.37 27.0373 20.2908 26.793Z" fill="#001689"/>
<path fill-rule="evenodd" clip-rule="evenodd" d="M19.9015 28.1035C19.9829 28.0348 20.0559 27.9326 20.0794 27.8719C20.1016 27.8116 20.1076 27.7233 20.0532 27.6554C19.9882 27.5747 19.9067 27.4839 19.9015 27.4102H19.8974C19.8913 27.4839 19.8106 27.5747 19.7455 27.6554C19.6908 27.7233 19.6967 27.8116 19.7206 27.8719C19.7428 27.9326 19.8162 28.0348 19.8982 28.1035H19.9015Z" fill="#001689"/>
<path fill-rule="evenodd" clip-rule="evenodd" d="M20.1993 27.873C20.2385 27.9146 20.4477 28.1596 20.4757 28.231C20.5041 28.302 20.552 28.4372 20.4873 28.5317C20.422 28.6258 20.2734 28.775 20.1426 28.8386C20.1426 28.8386 20.284 28.6235 20.2697 28.4473C20.2602 28.3344 20.1706 28.2339 20.1537 28.165C20.1373 28.0969 20.1487 27.9807 20.1993 27.873Z" fill="#001689"/>
<path fill-rule="evenodd" clip-rule="evenodd" d="M20.6075 27.7402C20.5752 27.7837 20.5198 27.8892 20.5111 27.9917C20.5045 28.0929 20.5213 28.1743 20.5783 28.3227C20.6501 28.5099 20.7605 28.7183 20.8113 28.8123C20.8113 28.8123 20.9099 28.6754 20.9642 28.553C20.9642 28.553 20.8112 28.3477 20.7452 28.2029C20.6692 28.0322 20.6384 27.8745 20.6075 27.7402Z" fill="#001689"/>
<path fill-rule="evenodd" clip-rule="evenodd" d="M20.6797 27.6582C20.6797 27.6582 20.7457 28.1401 21.0364 28.4973C21.233 28.7393 21.3933 28.8237 21.4989 28.8237C21.6585 28.8237 21.8194 28.6943 21.8733 28.5453C21.9262 28.3976 21.9096 28.1669 21.8064 28.0852C21.8064 28.0852 21.7107 28.3743 21.506 28.3847C21.2753 28.3976 20.9775 28.1446 20.6797 27.6582Z" fill="#001689"/>
<path fill-rule="evenodd" clip-rule="evenodd" d="M20.9194 27.459C20.8951 27.5449 20.888 27.677 20.9194 27.8017C20.9439 27.8967 21.0034 28.0197 21.1171 28.0893C21.2153 28.1491 21.4463 28.1634 21.5353 27.9499C21.5353 27.9499 21.1121 27.9811 20.9194 27.459Z" fill="#001689"/>
<path fill-rule="evenodd" clip-rule="evenodd" d="M19.8986 28.8898C19.9585 28.8616 20.009 28.8409 20.0786 28.7386C20.1314 28.6582 20.1826 28.5095 20.1542 28.4034C20.1181 28.2726 20.046 28.2204 20.002 28.1387C19.9664 28.1711 19.9443 28.1965 19.9007 28.2208H19.8986C19.8542 28.1965 19.8318 28.1711 19.7954 28.1387C19.7508 28.2204 19.6797 28.2726 19.6428 28.4034C19.6146 28.5095 19.6654 28.6582 19.7188 28.7386C19.7875 28.8409 19.8386 28.8616 19.8986 28.8898Z" fill="#001689"/>
<path fill-rule="evenodd" clip-rule="evenodd" d="M19.899 29.6994C19.9278 29.5712 20.2024 29.3249 20.1765 29.1903C20.1389 28.9895 20.006 29.0319 19.9011 28.9473H19.899C19.7931 29.0319 19.6589 28.9895 19.6207 29.1903C19.5963 29.3249 19.869 29.5712 19.8976 29.6994H19.899Z" fill="#001689"/>
<path fill-rule="evenodd" clip-rule="evenodd" d="M20.2267 29.4004C20.1687 29.5454 19.9612 29.7284 19.9629 29.8417C19.9667 30.1409 20.1004 30.3241 20.1326 30.4227C20.1326 30.4227 20.3787 30.2326 20.4218 30.0146C20.4449 29.9026 20.4186 29.5666 20.2267 29.4004Z" fill="#001689"/>
<path fill-rule="evenodd" clip-rule="evenodd" d="M20.5011 29.613C20.4731 29.5351 20.3826 29.3232 20.2775 29.2495C20.2775 29.2495 20.1435 28.8657 20.5744 28.6289C20.5744 28.6289 20.7516 28.8576 20.7991 29.073C20.8459 29.2898 20.611 29.4189 20.5011 29.613Z" fill="#001689"/>
<path fill-rule="evenodd" clip-rule="evenodd" d="M21.0418 28.6406C21.1103 28.723 21.2073 28.8353 21.2841 28.8704C21.2841 28.8704 21.309 29.042 21.2956 29.1562C21.2727 29.3256 21.1615 29.4982 21.1144 29.6247C21.1144 29.6247 20.9256 29.3849 20.903 29.2441C20.8809 29.103 20.8858 28.9871 20.8789 28.9193C20.8789 28.9193 20.9828 28.7532 21.0418 28.6406Z" fill="#001689"/>
<path fill-rule="evenodd" clip-rule="evenodd" d="M21.5366 29.4662C21.5903 29.3864 21.7633 29.0963 21.7653 28.8848C21.7653 28.8848 21.5528 28.9948 21.3746 28.9136C21.3746 28.9136 21.3516 29.1891 21.3866 29.2819C21.4139 29.3574 21.4507 29.4023 21.5366 29.4662Z" fill="#001689"/>
<path fill-rule="evenodd" clip-rule="evenodd" d="M21.4881 29.5243C21.4534 29.4947 21.3686 29.4188 21.3349 29.3789C21.3349 29.3789 21.193 29.6304 21.1699 29.704C21.1699 29.704 21.2395 29.7219 21.317 29.667C21.3945 29.6122 21.4114 29.5973 21.4881 29.5243Z" fill="#001689"/>
<path fill-rule="evenodd" clip-rule="evenodd" d="M20.8345 29.377C20.8516 29.4406 21.0794 29.7488 21.1184 29.7867C21.1184 29.7867 21.1004 29.8983 21.0161 30.0594C20.9324 30.2193 20.8155 30.3322 20.7521 30.3889C20.7521 30.3889 20.6117 30.1499 20.5697 30.0454C20.522 29.925 20.5278 29.8066 20.549 29.7622C20.5957 29.658 20.7612 29.5074 20.8345 29.377Z" fill="#001689"/>
<path fill-rule="evenodd" clip-rule="evenodd" d="M19.902 31.2007C19.9236 31.1163 20.0554 31.0157 20.1093 30.8688C20.1421 30.7821 20.1408 30.6809 20.106 30.6114C20.0642 30.5304 19.9168 30.3321 19.8999 30.2754C19.8814 30.3321 19.7359 30.5304 19.6935 30.6114C19.6581 30.6809 19.6571 30.7821 19.6893 30.8688C19.7446 31.0157 19.8761 31.1163 19.8978 31.2007H19.902Z" fill="#001689"/>
<path fill-rule="evenodd" clip-rule="evenodd" d="M20.4933 30.1836C20.4436 30.2824 20.2918 30.4453 20.2677 30.5742C20.2488 30.6751 20.2662 30.7578 20.293 30.8286C20.3217 30.8967 20.414 31.033 20.4739 31.1365C20.4739 31.1365 20.6818 30.9451 20.7276 30.8085C20.7626 30.7057 20.7492 30.5596 20.6988 30.4688C20.6492 30.3772 20.5411 30.2782 20.4933 30.1836Z" fill="#001689"/>
<path fill-rule="evenodd" clip-rule="evenodd" d="M21.0831 30.1543C21.0292 30.2695 20.8997 30.3837 20.8706 30.4839C20.8356 30.6028 20.8246 30.6777 20.8832 30.8162C20.9364 30.9369 20.9982 31.008 21.0204 31.082C21.0204 31.082 21.1891 30.8685 21.2165 30.7799C21.2463 30.6913 21.2538 30.5453 21.2204 30.4531C21.1851 30.3594 21.1242 30.2394 21.0831 30.1543Z" fill="#001689"/>
<path fill-rule="evenodd" clip-rule="evenodd" d="M19.8992 32.8376C19.9099 32.7335 20.1311 32.4106 20.1413 32.0686C20.1467 31.897 19.9906 31.6296 19.9012 31.5273H19.8962C19.8079 31.6296 19.6512 31.897 19.6564 32.0686C19.6672 32.4106 19.8877 32.7335 19.8992 32.8376Z" fill="#001689"/>
<path fill-rule="evenodd" clip-rule="evenodd" d="M20.2508 30.9668C20.2508 30.9668 20.5415 31.3091 20.5349 31.4905C20.5266 31.7163 20.3708 31.8673 20.3504 32.0061C20.3504 32.0061 20.1976 31.838 20.1397 31.7251C20.0743 31.5985 20.0245 31.4905 20.043 31.3468C20.0593 31.2027 20.0974 31.1109 20.2508 30.9668Z" fill="#001689"/>
<path fill-rule="evenodd" clip-rule="evenodd" d="M20.7859 30.9336C20.7392 30.9991 20.6107 31.223 20.647 31.3553C20.6848 31.4894 20.8274 31.677 20.8749 31.7567C20.8749 31.7567 20.9894 31.5271 21.0159 31.4213C21.0418 31.3167 21.0172 31.1444 20.7859 30.9336Z" fill="#001689"/>
<path fill-rule="evenodd" clip-rule="evenodd" d="M20.0975 33.3866C20.1154 33.1209 20.2708 32.9612 20.2976 32.8232C20.3282 32.6709 20.3177 32.5251 20.1968 32.3496C20.0975 32.6771 19.9908 32.9167 19.9058 33.0802C19.9029 33.0841 19.9013 33.0894 19.8994 33.0941C19.8971 33.0894 19.8959 33.0841 19.8924 33.0802C19.8081 32.9167 19.7007 32.6771 19.6025 32.3496C19.4813 32.5251 19.4708 32.6709 19.5007 32.8232C19.5284 32.9612 19.683 33.1209 19.7007 33.3866C19.7176 33.6533 19.4102 33.7545 19.4102 33.7545C19.5135 33.7912 19.632 33.8077 19.8198 33.6341C19.8541 33.603 19.8797 33.5682 19.8994 33.5316C19.9192 33.5682 19.9451 33.603 19.9792 33.6341C20.1659 33.8077 20.2851 33.7912 20.3888 33.7545C20.3888 33.7545 20.0808 33.6533 20.0975 33.3866Z" fill="#001689"/>
<path fill-rule="evenodd" clip-rule="evenodd" d="M19.1297 31.6172C19.1615 31.7168 19.2572 31.901 19.2698 31.9572C19.2928 32.0627 19.2616 32.1906 19.0641 32.3261C19.0641 32.3261 18.9364 32.2386 18.8856 32.1246C18.8387 32.017 18.8659 31.9407 18.9148 31.8859C18.9645 31.8303 19.0807 31.7009 19.1297 31.6172Z" fill="#001689"/>
<path fill-rule="evenodd" clip-rule="evenodd" d="M19.5438 32.0117C19.5438 32.0652 19.5031 32.3664 19.4158 32.5166C19.2922 32.7265 19.1104 32.882 18.9517 32.882C18.8051 32.882 18.7735 32.7963 18.7012 32.7623C18.7012 32.7623 18.738 32.5795 18.9034 32.5322C19.1066 32.4724 19.4176 32.2352 19.5438 32.0117Z" fill="#001689"/>
<path fill-rule="evenodd" clip-rule="evenodd" d="M19.0142 32.3936C18.9803 32.3679 18.9503 32.3511 18.91 32.3047C18.91 32.3047 18.7536 32.3608 18.6246 32.4455C18.4953 32.5303 18.3688 32.6746 18.3008 32.7493C18.3008 32.7493 18.4938 32.7979 18.6165 32.7434C18.6165 32.7434 18.6606 32.5636 18.7986 32.4829C18.8291 32.4656 18.9253 32.4377 19.0142 32.3936Z" fill="#001689"/>
<path fill-rule="evenodd" clip-rule="evenodd" d="M18.8557 32.2409C18.8247 32.1955 18.7635 32.1119 18.7767 31.9805C18.7767 31.9805 18.5047 32.1492 18.4251 32.2117C18.3427 32.2772 18.1726 32.4477 18.1348 32.5038C18.1348 32.5038 18.3408 32.4597 18.4986 32.4078C18.6713 32.3522 18.7908 32.2772 18.8557 32.2409Z" fill="#001689"/>
<path fill-rule="evenodd" clip-rule="evenodd" d="M18.3937 32.5273C18.2481 32.5792 17.9183 32.6303 17.7813 32.6701C17.6433 32.7103 17.5435 32.7791 17.4121 32.9186C17.4121 32.9186 17.614 32.9742 17.7222 33.0069C17.7222 33.0069 17.8938 32.8933 18.0815 32.8229C18.2044 32.7769 18.2639 32.6522 18.3937 32.5273Z" fill="#001689"/>
<path fill-rule="evenodd" clip-rule="evenodd" d="M18.0879 33.474C18.1195 33.4396 18.1594 33.4007 18.1287 33.3212C18.1075 33.2622 17.9882 33.1989 17.9172 33.1654C17.7992 33.1103 17.4718 33.0246 17.3644 32.9941C17.3644 32.9941 17.3109 33.0545 17.2834 33.1187C17.2708 33.1433 17.2872 33.169 17.3335 33.177C17.4248 33.1924 17.6437 33.1524 17.6978 33.1862C17.7544 33.2229 17.7338 33.2716 17.7338 33.3212C17.7338 33.3212 17.8341 33.2608 17.8969 33.2745C17.9851 33.2925 18.0379 33.3332 18.0879 33.474Z" fill="#001689"/>
<path fill-rule="evenodd" clip-rule="evenodd" d="M17.7969 33.0299C17.8204 33.0377 17.9484 33.0753 18.0729 33.1522C18.0729 33.1522 18.1276 33.1314 18.1553 33.0821C18.1817 33.0348 18.2931 32.8735 18.3968 32.8517C18.3968 32.8517 18.3089 32.8436 18.2582 32.8281C18.2582 32.8281 18.1523 32.8546 18.0769 32.8849C18.0015 32.9148 17.9078 32.9601 17.7969 33.0299Z" fill="#001689"/>
<path fill-rule="evenodd" clip-rule="evenodd" d="M18.6402 32.8242C18.6209 32.8333 18.587 32.8493 18.5101 32.8525C18.5101 32.8525 18.2227 33.0465 18.1889 33.2412C18.1609 33.4064 18.2503 33.4862 18.2932 33.5067C18.3365 33.5284 18.5381 33.6089 18.6685 33.346C18.6685 33.346 18.4456 33.4171 18.385 33.3133C18.3248 33.2082 18.4235 33.0563 18.484 33.0128C18.5628 32.9543 18.7062 32.9157 18.7921 32.9304C18.7921 32.9304 18.7226 32.8655 18.6402 32.8242Z" fill="#001689"/>
<path fill-rule="evenodd" clip-rule="evenodd" d="M16.7555 35.0509C16.7903 34.9077 16.8294 34.7582 16.8962 34.6203C17.0263 34.3517 17.3451 33.6375 18.01 33.511C18.0728 33.4996 17.9381 33.3483 17.8792 33.3566C17.8191 33.363 17.7006 33.4383 17.6484 33.4727C17.6484 33.4727 17.6484 33.3198 17.6466 33.2923C17.645 33.2638 17.62 33.2553 17.5941 33.2559C17.5684 33.2562 17.408 33.2553 17.3566 33.3118C17.2054 33.4831 16.9492 33.9429 16.8044 34.2852C16.6593 34.6272 16.5607 34.733 16.4075 34.6801C16.2546 34.6272 16.1628 34.4562 15.8967 34.5081C15.804 34.5268 15.7012 34.5869 15.6211 34.6761C15.6433 34.718 15.6718 34.7689 15.7968 34.7689C15.9212 34.7689 16.1586 34.8196 16.2915 34.9104C16.4249 35.0009 16.5643 35.0304 16.7555 35.0509Z" fill="#001689"/>
<path fill-rule="evenodd" clip-rule="evenodd" d="M19.4106 32.8359C19.4258 32.9469 19.4806 33.0504 19.5415 33.1578C19.5415 33.1578 19.3385 34.0679 18.6074 34.1386C18.6074 34.1386 18.6216 33.9501 18.8383 33.8061C19.0551 33.6626 19.379 33.4391 19.3557 33.1009C19.3557 33.1009 19.2981 33.1123 19.1938 33.2395C19.0901 33.3662 18.8619 33.7324 18.5078 33.7352C18.5078 33.7352 18.5608 33.5637 18.7172 33.4647C18.8738 33.3662 19.0725 33.2395 19.1625 33.0866C19.253 32.9345 19.3478 32.8641 19.4106 32.8359Z" fill="#001689"/>
<path fill-rule="evenodd" clip-rule="evenodd" d="M19.0664 36.1527L19.5118 36.7605L19.8496 36.1754L19.7301 35.9668C19.6419 36.1203 19.5474 36.2863 19.4938 36.3774C19.4519 36.3214 19.3394 36.1677 19.192 35.9668L19.0664 36.1527Z" fill="#001689"/>
<path fill-rule="evenodd" clip-rule="evenodd" d="M18.9521 35.6379C18.5172 35.0458 17.9811 34.3126 17.9267 34.2383L18.0949 34.1201L17.5645 33.9219L17.5736 34.4862L17.7532 34.3599L18.8256 35.8248L18.9521 35.6379Z" fill="#001689"/>
<path fill-rule="evenodd" clip-rule="evenodd" d="M15.2894 32.3099C15.4202 32.1708 15.6419 32.2915 15.866 32.4926C16.0916 32.6939 16.2322 32.8998 16.1021 33.0388C15.98 33.1678 15.7492 33.0576 15.5231 32.857C15.2984 32.6555 15.157 32.4491 15.2894 32.3099Z" fill="#001689"/>
<path fill-rule="evenodd" clip-rule="evenodd" d="M15.6505 34.7853C15.6422 34.7791 15.6359 34.7739 15.6293 34.7679C15.51 34.6664 15.4421 34.5093 15.4421 34.3379C15.4421 34.0089 15.7162 33.7407 16.0548 33.7407C16.3927 33.7407 16.6662 34.0089 16.6662 34.3379C16.6662 34.3824 16.6575 34.4553 16.6575 34.4553C16.6855 34.4045 16.786 34.1764 16.8064 34.1341C16.715 33.8139 16.4118 33.578 16.0548 33.578C15.7465 33.578 15.4796 33.7525 15.3527 34.0057C15.4006 33.7043 15.5546 33.4336 15.6633 33.3333C15.7939 33.2139 16.0153 33.1753 16.0153 33.1753C15.87 33.1987 15.6781 33.1111 15.4639 32.9183C15.2603 32.7373 15.1562 32.5781 15.1498 32.4453C15.1622 32.6328 15.1562 32.738 15.1014 32.8904C15.0277 33.0981 14.8258 33.4819 14.8982 33.9152C14.9375 34.153 15.1145 34.5069 15.4107 34.7961C15.4735 34.8609 15.4967 34.9571 15.5045 35.0066C15.5045 35.0066 15.9403 35.0066 16.0437 35.0164C16.0437 35.0164 16.1476 35.0066 16.1461 34.944C16.1449 34.881 16.0871 34.865 16.0351 34.865C15.9834 34.865 15.7668 34.8701 15.6505 34.7853Z" fill="#001689"/>
<path fill-rule="evenodd" clip-rule="evenodd" d="M18.0641 34.9297C17.7832 35.0277 17.5033 35.0812 17.2379 35.1208C17.0643 35.1461 16.8963 35.1555 16.7337 35.1474C16.7362 35.1734 16.7362 35.2081 16.7207 35.2333C16.7207 35.2333 16.7535 35.2707 16.7535 35.3119C16.9177 35.3177 17.0888 35.3086 17.2634 35.282C17.5543 35.2385 17.859 35.1818 18.1661 35.0682L18.0641 34.9297Z" fill="#001689"/>
<path fill-rule="evenodd" clip-rule="evenodd" d="M18.5226 34.9082C18.8954 34.7107 19.2583 34.4044 19.5861 33.916L19.6447 33.8203C19.5551 33.8593 19.4409 33.8312 19.4409 33.8312C19.4341 33.8398 19.42 33.8618 19.4131 33.8747C19.1076 34.3142 18.7691 34.5909 18.4238 34.7719L18.5226 34.9082Z" fill="#001689"/>
<path fill-rule="evenodd" clip-rule="evenodd" d="M16.069 35.0646C16.0179 35.0564 15.8543 35.061 15.7564 35.0749C15.6489 35.0918 15.527 35.1126 15.5139 35.1706C15.502 35.2255 15.5407 35.2835 15.595 35.3667C15.6283 35.4178 15.7085 35.3883 15.7527 35.3721C15.7966 35.3566 16.0486 35.2248 16.0885 35.182C16.1294 35.1385 16.1464 35.0771 16.069 35.0646Z" fill="#001689"/>
<path fill-rule="evenodd" clip-rule="evenodd" d="M16.3241 35.2262C16.2972 35.2097 16.2316 35.1847 16.1633 35.21C16.0948 35.2347 15.8468 35.3771 15.8308 35.4449C15.8134 35.5114 15.8481 35.5442 15.8864 35.5595C15.9246 35.5743 15.971 35.5886 16.0057 35.5922C16.0678 35.5969 16.128 35.5618 16.1602 35.5239C16.1917 35.4855 16.3082 35.349 16.3241 35.3177C16.3408 35.2876 16.3497 35.2432 16.3241 35.2262Z" fill="#001689"/>
<path fill-rule="evenodd" clip-rule="evenodd" d="M16.355 35.3764C16.3184 35.4159 16.2185 35.534 16.2065 35.5538C16.1953 35.5732 16.2129 35.6042 16.2442 35.6002C16.2751 35.5971 16.4466 35.5801 16.5448 35.5152C16.6426 35.4496 16.7081 35.3231 16.6404 35.278C16.573 35.2323 16.4677 35.2537 16.355 35.3764Z" fill="#001689"/>
<path fill-rule="evenodd" clip-rule="evenodd" d="M16.4119 35.0124C16.3791 35.0052 16.2496 34.9738 16.2224 35.0149C16.1867 35.0666 16.2117 35.122 16.3121 35.1695C16.4119 35.2155 16.6008 35.2531 16.6391 35.2032C16.6751 35.1516 16.6239 35.0666 16.4119 35.0124Z" fill="#001689"/>
<path fill-rule="evenodd" clip-rule="evenodd" d="M20.6685 31.6172C20.6361 31.7168 20.5407 31.901 20.5278 31.9572C20.5054 32.0627 20.5358 32.1906 20.7336 32.3261C20.7336 32.3261 20.8611 32.2386 20.9119 32.1246C20.9597 32.017 20.9325 31.9407 20.8829 31.8859C20.8335 31.8303 20.7181 31.7009 20.6685 31.6172Z" fill="#001689"/>
<path fill-rule="evenodd" clip-rule="evenodd" d="M20.252 32.0117C20.252 32.0652 20.2924 32.3664 20.3812 32.5166C20.5047 32.7265 20.6857 32.882 20.8445 32.882C20.992 32.882 21.0236 32.7963 21.0952 32.7623C21.0952 32.7623 21.0582 32.5795 20.8923 32.5322C20.6903 32.4724 20.3787 32.2352 20.252 32.0117Z" fill="#001689"/>
<path fill-rule="evenodd" clip-rule="evenodd" d="M20.7832 32.3936C20.8173 32.3679 20.8457 32.3511 20.8865 32.3047C20.8865 32.3047 21.0443 32.3608 21.1733 32.4455C21.3014 32.5303 21.427 32.6746 21.4967 32.7493C21.4967 32.7493 21.3032 32.7979 21.1805 32.7434C21.1805 32.7434 21.1359 32.5636 20.998 32.4829C20.9685 32.4656 20.8722 32.4377 20.7832 32.3936Z" fill="#001689"/>
<path fill-rule="evenodd" clip-rule="evenodd" d="M20.9434 32.2409C20.9737 32.1955 21.0351 32.1119 21.0209 31.9805C21.0209 31.9805 21.2925 32.1492 21.374 32.2117C21.4561 32.2772 21.6257 32.4477 21.6638 32.5038C21.6638 32.5038 21.4577 32.4597 21.2998 32.4078C21.1271 32.3522 21.0078 32.2772 20.9434 32.2409Z" fill="#001689"/>
<path fill-rule="evenodd" clip-rule="evenodd" d="M21.4023 32.5273C21.5489 32.5792 21.8763 32.6303 22.0149 32.6701C22.1527 32.7103 22.2532 32.7791 22.3844 32.9186C22.3844 32.9186 22.1814 32.9742 22.0746 33.0069C22.0746 33.0069 21.9029 32.8933 21.7139 32.8229C21.5921 32.7769 21.5317 32.6522 21.4023 32.5273Z" fill="#001689"/>
<path fill-rule="evenodd" clip-rule="evenodd" d="M21.7081 33.474C21.6768 33.4396 21.6371 33.4007 21.6666 33.3212C21.6884 33.2622 21.8084 33.1989 21.8801 33.1654C21.9983 33.1103 22.3256 33.0246 22.4319 32.9941C22.4319 32.9941 22.485 33.0545 22.5135 33.1187C22.5256 33.1433 22.5083 33.169 22.4634 33.177C22.3715 33.1924 22.1526 33.1524 22.0985 33.1862C22.0415 33.2229 22.0617 33.2716 22.0617 33.3212C22.0617 33.3212 21.9626 33.2608 21.8981 33.2745C21.8118 33.2925 21.7575 33.3332 21.7081 33.474Z" fill="#001689"/>
<path fill-rule="evenodd" clip-rule="evenodd" d="M21.9998 33.0299C21.9757 33.0377 21.8485 33.0753 21.7241 33.1522C21.7241 33.1522 21.669 33.1314 21.6417 33.0821C21.6156 33.0348 21.5034 32.8735 21.4004 32.8517C21.4004 32.8517 21.488 32.8436 21.5377 32.8281C21.5377 32.8281 21.6444 32.8546 21.7209 32.8849C21.7962 32.9148 21.8902 32.9601 21.9998 33.0299Z" fill="#001689"/>
<path fill-rule="evenodd" clip-rule="evenodd" d="M21.1556 32.8242C21.1755 32.8333 21.2091 32.8493 21.2853 32.8525C21.2853 32.8525 21.5738 33.0465 21.6069 33.2412C21.637 33.4064 21.5469 33.4862 21.5031 33.5067C21.4593 33.5284 21.2588 33.6089 21.1284 33.346C21.1284 33.346 21.3506 33.4171 21.4115 33.3133C21.4718 33.2082 21.3738 33.0563 21.3133 33.0128C21.234 32.9543 21.0911 32.9157 21.0039 32.9304C21.0039 32.9304 21.0731 32.8655 21.1556 32.8242Z" fill="#001689"/>
<path fill-rule="evenodd" clip-rule="evenodd" d="M23.0408 35.0509C23.0058 34.9077 22.9677 34.7582 22.9003 34.6203C22.7708 34.3517 22.4519 33.6375 21.7856 33.511C21.7235 33.4996 21.8572 33.3483 21.9184 33.3566C21.9778 33.363 22.0963 33.4383 22.149 33.4727C22.149 33.4727 22.149 33.3198 22.1503 33.2923C22.152 33.2638 22.1765 33.2553 22.2015 33.2559C22.2277 33.2562 22.3883 33.2553 22.4388 33.3118C22.5913 33.4831 22.8469 33.9429 22.9922 34.2852C23.1375 34.6272 23.2364 34.733 23.3886 34.6801C23.5419 34.6272 23.6347 34.4562 23.9001 34.5081C23.993 34.5268 24.095 34.5869 24.1766 34.6761C24.1533 34.718 24.1245 34.7689 24.0007 34.7689C23.8748 34.7689 23.6372 34.8196 23.5052 34.9104C23.3716 35.0009 23.2326 35.0304 23.0408 35.0509Z" fill="#001689"/>
<path fill-rule="evenodd" clip-rule="evenodd" d="M20.385 32.8359C20.3712 32.9469 20.3159 33.0504 20.2559 33.1578C20.2559 33.1578 20.4582 34.0679 21.1907 34.1386C21.1907 34.1386 21.1752 33.9501 20.959 33.8061C20.7414 33.6626 20.4175 33.4391 20.4408 33.1009C20.4408 33.1009 20.4986 33.1123 20.6022 33.2395C20.7076 33.3662 20.9359 33.7324 21.2884 33.7352C21.2884 33.7352 21.2365 33.5637 21.0799 33.4647C20.9234 33.3662 20.7239 33.2395 20.6339 33.0866C20.5446 32.9345 20.4499 32.8641 20.385 32.8359Z" fill="#001689"/>
<path fill-rule="evenodd" clip-rule="evenodd" d="M19.9005 33.7188C19.9437 33.8394 20.2199 34.221 20.3409 34.3293C20.4631 34.4381 20.758 34.7262 20.916 34.8699C20.916 34.8699 20.4663 34.7613 20.2132 34.5377C20.2132 34.5377 20.0334 34.6396 19.9021 34.6396H19.8958C19.7642 34.6396 19.5842 34.5377 19.5842 34.5377C19.3317 34.7613 18.8828 34.8699 18.8828 34.8699C19.04 34.7262 19.3351 34.4381 19.4564 34.3293C19.5784 34.221 19.8556 33.8394 19.898 33.7188H19.9005Z" fill="#001689"/>
<path fill-rule="evenodd" clip-rule="evenodd" d="M19.9001 34.7306C19.9994 34.7306 20.0934 34.6924 20.1468 34.6699C20.0934 34.779 19.9936 34.9483 19.8978 35.0181H19.8965C19.8006 34.9483 19.7007 34.779 19.6484 34.6699C19.7007 34.6924 19.7946 34.7306 19.8944 34.7306H19.9001Z" fill="#001689"/>
<path fill-rule="evenodd" clip-rule="evenodd" d="M20.2863 36.7606L22.0442 34.3599L22.223 34.4861L22.2338 33.9219L21.7012 34.1201L21.8703 34.2383C21.7841 34.3559 20.4697 36.1513 20.3042 36.3775L19.5081 34.9714L19.4098 35.1178L18.7013 36.1614L18.5239 36.0458L18.5215 36.6006L19.0595 36.393L18.879 36.2765C18.9767 36.1325 19.3614 35.5672 19.4895 35.3771L20.2863 36.7606Z" fill="#001689"/>
<path fill-rule="evenodd" clip-rule="evenodd" d="M20.6055 35.817C20.4869 35.6427 20.3677 35.4665 20.3067 35.3763C20.2625 35.4573 20.172 35.6155 20.0711 35.7906L19.9453 35.5714L20.2874 34.9707L20.3868 35.117L20.7385 35.6355L20.6055 35.817Z" fill="#001689"/>
<path fill-rule="evenodd" clip-rule="evenodd" d="M20.9701 35.9746L21.0965 36.1622L21.2734 36.0466L21.2765 36.6015L20.7383 36.3938L20.918 36.2774C20.8995 36.2497 20.8723 36.2069 20.8365 36.1557L20.9701 35.9746Z" fill="#001689"/>
<path fill-rule="evenodd" clip-rule="evenodd" d="M24.5097 32.3099C24.3785 32.1708 24.1568 32.2915 23.9313 32.4926C23.7071 32.6939 23.5659 32.8998 23.6967 33.0388C23.8181 33.1678 24.0514 33.0576 24.276 32.857C24.4998 32.6555 24.6414 32.4491 24.5097 32.3099Z" fill="#001689"/>
<path fill-rule="evenodd" clip-rule="evenodd" d="M24.1463 34.7853C24.1541 34.7791 24.1599 34.7739 24.167 34.7679C24.2859 34.6664 24.3554 34.5093 24.3554 34.3379C24.3554 34.0089 24.0803 33.7407 23.7422 33.7407C23.4044 33.7407 23.1304 34.0089 23.1304 34.3379C23.1304 34.3824 23.1394 34.4553 23.1394 34.4553C23.1118 34.4045 23.0102 34.1764 22.9902 34.1341C23.0808 33.8139 23.3833 33.578 23.7422 33.578C24.0504 33.578 24.3173 33.7525 24.4434 34.0057C24.3954 33.7043 24.2431 33.4336 24.1333 33.3333C24.0031 33.2139 23.7813 33.1753 23.7813 33.1753C23.9263 33.1987 24.1181 33.1111 24.3328 32.9183C24.5362 32.7373 24.6417 32.5781 24.6468 32.4453C24.6344 32.6328 24.6399 32.738 24.694 32.8904C24.7684 33.0981 24.9708 33.4819 24.8993 33.9152C24.8595 34.153 24.6823 34.5069 24.3873 34.7961C24.3235 34.8609 24.2998 34.9571 24.2928 35.0066C24.2928 35.0066 23.8561 35.0066 23.7521 35.0164C23.7521 35.0164 23.6492 35.0066 23.651 34.944C23.6529 34.881 23.7096 34.865 23.762 34.865C23.8128 34.865 24.0306 34.8701 24.1463 34.7853Z" fill="#001689"/>
<path fill-rule="evenodd" clip-rule="evenodd" d="M21.2741 34.9076C20.9025 34.7091 20.5393 34.4045 20.2113 33.9161L20.1523 33.8203C20.2424 33.8593 20.3573 33.8314 20.3573 33.8314C20.3639 33.8398 20.3774 33.8619 20.3842 33.8748C20.6899 34.3136 21.0283 34.591 21.3736 34.7721L21.2741 34.9076Z" fill="#001689"/>
<path fill-rule="evenodd" clip-rule="evenodd" d="M21.7336 34.9297C22.0147 35.0284 22.2947 35.0819 22.5599 35.1214C22.7335 35.1468 22.9031 35.1562 23.0643 35.1481C23.062 35.1741 23.062 35.2086 23.0776 35.234C23.0776 35.234 23.0458 35.2714 23.0458 35.3126C22.8803 35.3184 22.7101 35.3093 22.5345 35.2827C22.2459 35.2392 21.939 35.1825 21.6328 35.0685L21.7336 34.9297Z" fill="#001689"/>
<path fill-rule="evenodd" clip-rule="evenodd" d="M23.7275 35.0646C23.7796 35.0564 23.9432 35.061 24.0406 35.0749C24.1478 35.0918 24.27 35.1126 24.2833 35.1706C24.295 35.2255 24.2563 35.2835 24.2026 35.3667C24.1676 35.4178 24.0879 35.3883 24.0449 35.3721C24.0002 35.3566 23.7481 35.2248 23.7071 35.182C23.6679 35.1385 23.6508 35.0771 23.7275 35.0646Z" fill="#001689"/>
<path fill-rule="evenodd" clip-rule="evenodd" d="M23.4701 35.2262C23.4977 35.2097 23.564 35.1847 23.6323 35.21C23.7001 35.2347 23.9478 35.3771 23.9651 35.4449C23.9812 35.5114 23.9471 35.5442 23.9086 35.5595C23.8709 35.5743 23.8238 35.5886 23.7894 35.5922C23.7279 35.5969 23.6679 35.5618 23.6356 35.5239C23.6033 35.4855 23.4884 35.349 23.4701 35.3177C23.4545 35.2876 23.446 35.2432 23.4701 35.2262Z" fill="#001689"/>
<path fill-rule="evenodd" clip-rule="evenodd" d="M23.4418 35.3764C23.4773 35.4159 23.5782 35.534 23.5895 35.5538C23.602 35.5732 23.5833 35.6042 23.5522 35.6002C23.5205 35.5971 23.3503 35.5801 23.2521 35.5152C23.1542 35.4496 23.089 35.3231 23.1568 35.278C23.2226 35.2323 23.3282 35.2537 23.4418 35.3764Z" fill="#001689"/>
<path fill-rule="evenodd" clip-rule="evenodd" d="M23.3862 35.0124C23.4185 35.0052 23.5478 34.9738 23.5756 35.0149C23.61 35.0666 23.5854 35.122 23.4852 35.1695C23.3862 35.2155 23.197 35.2531 23.1593 35.2032C23.1225 35.1516 23.1746 35.0666 23.3862 35.0124Z" fill="#001689"/>
<mask id="mask0_6006_32884" style="mask-type:alpha" maskUnits="userSpaceOnUse" x="9" y="20" width="43" height="20">
<path d="M9.75195 39.7863H51.6436V20.0098H9.75195V39.7863Z" fill="white"/>
</mask>
<g mask="url(#mask0_6006_32884)">
<path fill-rule="evenodd" clip-rule="evenodd" d="M31.3496 39.8937H51.6432V20.1172H31.3496V39.8937Z" fill="#CC003D"/>
<path fill-rule="evenodd" clip-rule="evenodd" d="M47.6968 26.3903C47.6986 26.3027 47.7153 25.6888 47.7167 25.6059H47.8701C48.463 25.6059 48.5625 25.708 48.6176 26.3903H47.6968ZM49.3837 26.0495C49.2907 25.286 48.9228 24.8887 48.0539 24.8887H46.949L46.7988 29.2017H47.604C47.604 29.2017 47.6783 27.2013 47.6826 27.1066C47.7708 27.1066 48.6163 27.1075 48.6999 27.1075C48.7092 27.1947 48.8615 29.2017 48.8615 29.2017H49.6928C49.6928 29.2017 49.4066 26.2388 49.3837 26.0495Z" fill="white"/>
<path fill-rule="evenodd" clip-rule="evenodd" d="M37.9274 32.3141C37.9292 32.2266 37.9459 31.6127 37.9473 31.5298L38.0916 31.521C38.6845 31.521 38.7929 31.6319 38.8482 32.3141H37.9274ZM39.6142 31.9733C39.5214 31.2099 39.1533 30.8125 38.2845 30.8125H37.1795L37.0293 35.1255H37.8345C37.8345 35.1255 37.9088 33.1252 37.9132 33.0304C38.0015 33.0304 38.8469 33.0313 38.9305 33.0313C38.9398 33.1185 39.092 35.1255 39.092 35.1255H39.9232C39.9232 35.1255 39.6372 32.1627 39.6142 31.9733Z" fill="white"/>
<path fill-rule="evenodd" clip-rule="evenodd" d="M33.5723 24.8887V29.2006H34.386V25.6058H35.3945V29.2006H36.2096V24.8887H33.5723Z" fill="white"/>
<path fill-rule="evenodd" clip-rule="evenodd" d="M42.1812 26.3904H41.7382C41.555 26.3904 41.4191 26.3505 41.3325 26.27C41.2714 26.214 41.2414 26.1382 41.2414 26.0394V24.8887H40.4258V26.1198C40.4258 26.4037 40.541 26.6437 40.7685 26.8344C40.9927 27.0232 41.2672 27.1183 41.5858 27.1183H42.1812V29.2008H42.9957V24.8887H42.1812V26.3904Z" fill="white"/>
<path fill-rule="evenodd" clip-rule="evenodd" d="M43.8984 24.8887V25.6058H44.5747V29.2006H44.5848H45.3885H45.3985V25.6058H46.0748V24.8887H43.8984Z" fill="white"/>
<path fill-rule="evenodd" clip-rule="evenodd" d="M42.7031 30.8125V32.1909H41.5859V30.8125H40.7734V35.1263H41.5859V32.908H42.7031V35.1263H43.5155V30.8125H42.7031Z" fill="white"/>
<path fill-rule="evenodd" clip-rule="evenodd" d="M34.664 34.4566C34.5849 34.4566 34.386 34.4388 34.386 34.4388V33.5969V33.5087V32.9207C34.386 32.9207 34.45 32.906 34.5199 32.906C34.9327 32.906 35.4206 32.8825 35.4206 33.6805C35.4206 34.4122 34.8845 34.4566 34.664 34.4566ZM34.7626 32.2218C34.6224 32.2218 34.4978 32.2251 34.386 32.2301V31.5276H35.8465V30.8105H33.5723V31.5276V35.1226H33.6274H34.8074C36.0389 35.1226 36.2297 34.0559 36.2297 33.661C36.2297 33.1937 36.04 32.2218 34.7626 32.2218Z" fill="white"/>
<path fill-rule="evenodd" clip-rule="evenodd" d="M37.7872 27.0525V27.0521C37.794 25.8849 38.09 25.5008 38.4021 25.4951C38.7143 25.5008 39.0103 25.8849 39.0171 27.0521V27.0525C39.0103 28.1925 38.7143 28.5818 38.4021 28.5877C38.09 28.5818 37.7941 28.1925 37.7872 27.0525ZM39.8277 26.8926C39.8137 26.2757 39.705 25.8337 39.5366 25.5198C39.2712 24.9832 38.8485 24.7828 38.412 24.7777C38.4111 24.7777 38.4102 24.7773 38.4093 24.7773C38.4069 24.7773 38.4045 24.7775 38.4021 24.7775C38.3997 24.7775 38.3974 24.7773 38.395 24.7773C38.394 24.7773 38.3932 24.7777 38.3922 24.7777C37.9558 24.7828 37.5331 24.9832 37.2677 25.5198C37.0992 25.8337 36.9906 26.2757 36.9765 26.8926C36.9764 26.8935 36.9746 27.0311 36.9746 27.0321L36.9747 27.032C36.9752 27.4163 37.0191 27.789 37.1049 28.0891C37.3284 28.9727 37.8448 29.2852 38.3839 29.2947C38.3876 29.2948 38.3915 29.2951 38.395 29.2951C38.3974 29.2951 38.3997 29.295 38.4021 29.295C38.4045 29.295 38.4069 29.2951 38.4093 29.2951C38.4129 29.2951 38.4168 29.2948 38.4204 29.2947C38.9595 29.2852 39.4759 28.9727 39.6994 28.0891C39.7853 27.789 39.8292 27.4163 39.8295 27.032L39.8297 27.0321C39.8297 27.0311 39.8277 26.8935 39.8277 26.8926Z" fill="white"/>
<path fill-rule="evenodd" clip-rule="evenodd" d="M47.5704 35.1251L46.5909 32.5974C46.7942 32.4498 46.9526 32.1672 47.023 31.8856C47.0912 31.612 47.1811 30.8125 47.1811 30.8125H46.38C46.3751 30.8939 46.3578 31.1675 46.3327 31.4456C46.2956 31.858 46.171 32.2383 45.7383 32.2383H45.4043C45.4037 32.2038 45.4043 30.8125 45.4043 30.8125H44.5898V35.1263H45.4043V32.9361C45.4043 32.9361 45.8352 32.9367 45.896 32.9362L46.696 35.1251H47.5704Z" fill="white"/>
</g>
</g>
<defs>
<clipPath id="clip0_6006_32884">
<rect width="42" height="20" fill="white" transform="translate(9.75195 20)"/>
</clipPath>
</defs>
</svg>
