<svg width="60" height="61" viewBox="0 0 60 61" fill="none" xmlns="http://www.w3.org/2000/svg">
<g clip-path="url(#clip0_6006_33416)">
<rect y="0.175781" width="60" height="60" rx="29.7656" fill="#FE5000"/>
<g clip-path="url(#clip1_6006_33416)">
<path d="M38.9085 16.2305H20.888C18.4137 16.2305 16.4062 18.3054 16.4062 20.8628V39.4887C16.4062 42.0462 18.4137 44.1211 20.888 44.1211H38.8618C41.3361 44.1211 43.3435 42.0462 43.3435 39.4887V20.8628C43.3902 18.3054 41.3828 16.2305 38.9085 16.2305ZM41.9897 39.0062C41.943 39.0545 41.8496 39.1027 41.8029 39.0545C38.3482 36.883 34.2399 35.6284 29.8982 35.6284C25.5565 35.6284 21.4482 36.883 17.9935 39.0545C17.9469 39.1027 17.8535 39.0545 17.8068 39.0062C17.7601 38.9097 17.8068 38.8614 17.8535 38.8132C21.0281 36.304 23.7358 33.1193 25.8366 29.3555C27.9375 25.5917 29.2446 21.5384 29.7582 17.4851C29.7582 17.4368 29.8049 17.3403 29.8982 17.3403C29.9916 17.3403 30.0383 17.3886 30.0383 17.4851C30.5518 21.5384 31.859 25.5917 33.9598 29.3555C36.0607 33.1193 38.8151 36.304 41.943 38.7649C42.0364 38.8614 42.0364 38.9097 41.9897 39.0062Z" fill="white"/>
</g>
</g>
<defs>
<clipPath id="clip0_6006_33416">
<rect width="60" height="60" fill="white" transform="translate(0 0.175781)"/>
</clipPath>
<clipPath id="clip1_6006_33416">
<rect width="27.8906" height="27.8906" fill="white" transform="translate(16.4062 16.2305)"/>
</clipPath>
</defs>
</svg>
