<svg width="60" height="60" viewBox="0 0 60 60" fill="none" xmlns="http://www.w3.org/2000/svg">
<rect width="60" height="60" rx="30" fill="#FAEB00"/>
<g clip-path="url(#clip0_6006_33523)">
<path d="M42.4676 16.2031H17.4609V43.625H42.4676V16.2031Z" fill="#FAEB00"/>
<path d="M17.461 16.2047H42.4677V43.6266H17.461V16.2047ZM16.5762 44.5969H43.3525V15.2344H16.5762V44.5969Z" fill="black"/>
<path d="M29.9642 33.2488L22.2698 41.6863L19.2306 38.3535L26.9249 29.916L25.3091 28.1441V24.6848L24.1934 23.4613V26.4988L23.2316 27.5535L19.3075 23.2926L18.3457 24.3473C18.3457 23.5457 18.4996 21.2254 20.2693 19.3269C22.1929 17.3019 24.2704 18.2301 25.0013 18.9894L28.9254 23.2504L27.9252 24.3473L29.9642 26.5832L32.0032 24.3473L31.0029 23.2504L34.927 18.9473C35.658 18.1879 37.7355 17.2598 39.6591 19.2848C41.4288 21.2254 41.5826 23.5035 41.5826 24.3051L40.6208 23.2504L36.6967 27.5535L35.7349 26.4988V23.4613L34.6193 24.6848V28.1441L33.0034 29.916L40.6978 38.3535L37.6585 41.6863L29.9642 33.2488Z" fill="black"/>
</g>
<defs>
<clipPath id="clip0_6006_33523">
<rect width="29.5312" height="29.5312" fill="white" transform="translate(15.2344 15.2344)"/>
</clipPath>
</defs>
</svg>
