<svg width="61" height="60" viewBox="0 0 61 60" fill="none" xmlns="http://www.w3.org/2000/svg">
<rect x="0.751953" width="60" height="60" rx="30" fill="#E61C41"/>
<path fill-rule="evenodd" clip-rule="evenodd" d="M19.8851 17V24.0909H18.0626V21.4317H15.0593V24.0909H13.2266V17H15.0593V19.8471H18.0626V17H19.8851Z" fill="white"/>
<path fill-rule="evenodd" clip-rule="evenodd" d="M39.8598 24.0909H38.1071V20.5355L36.5417 22.9646V22.975H35.5674V22.9646L33.9919 20.5142L34.002 24.0909H32.25V17H33.5561L36.0549 20.7856L38.5533 17H39.8598V24.0909Z" fill="white"/>
<path fill-rule="evenodd" clip-rule="evenodd" d="M43.0068 18.5329V19.8262H46.0814V21.3279H43.0068V22.558H46.5188V24.0909H41.2871V17H46.5188V18.5329H43.0068Z" fill="white"/>
<path fill-rule="evenodd" clip-rule="evenodd" d="M25.8305 17C23.0722 17 20.8359 19.0739 20.8359 21.6337C20.8359 22.5362 21.1145 23.3788 21.5954 24.0909H24.0045C23.2729 23.552 22.7983 22.6997 22.7983 21.7376C22.7983 20.1068 24.1557 18.7849 25.8298 18.7849C27.5047 18.7849 28.8621 20.1068 28.8621 21.7376C28.8621 22.6997 28.3874 23.552 27.6559 24.0909H30.065C30.5462 23.3788 30.8237 22.5362 30.8237 21.6337C30.8237 19.0739 28.5889 17 25.8305 17Z" fill="white"/>
<path fill-rule="evenodd" clip-rule="evenodd" d="M24.166 22.1992C24.4049 23.0248 25.0595 23.6174 25.8308 23.6174C26.6021 23.6174 27.2571 23.0248 27.4953 22.1992H24.166Z" fill="white"/>
<path fill-rule="evenodd" clip-rule="evenodd" d="M22.1673 29.9068H23.5009C24.1948 29.9068 24.7389 29.5314 24.7389 28.9471C24.7389 28.3737 24.1948 28.0088 23.5009 28.0088H22.1673V29.9068ZM24.9201 33.546L23.5442 31.4912H23.5327H22.1673V33.546H20.3633V26.4551H23.5327C25.3363 26.4551 26.5415 27.4147 26.5415 28.9471C26.5415 29.8757 26.083 30.6255 25.3153 31.0637L27.0218 33.546H24.9201Z" fill="white"/>
<path fill-rule="evenodd" clip-rule="evenodd" d="M29.6929 27.9882V29.2811H32.7668V30.7828H29.6929V32.0128H33.2044V33.546H27.9727V26.4551H33.2044V27.9882H29.6929Z" fill="white"/>
<path fill-rule="evenodd" clip-rule="evenodd" d="M39.0355 29.9801C39.0355 28.8846 38.1514 28.0405 36.9971 28.0405H35.9146V31.9606H36.9971C38.1514 31.9606 39.0355 31.106 39.0355 29.9801ZM40.8148 29.9801C40.8148 32.0859 39.2234 33.546 36.9971 33.546H34.1562V26.4551H36.9971C39.2234 26.4551 40.8148 27.9043 40.8148 29.9801Z" fill="white"/>
<path fill-rule="evenodd" clip-rule="evenodd" d="M42.2402 33.546H44.1427V26.4551H42.2402V33.546Z" fill="white"/>
<path fill-rule="evenodd" clip-rule="evenodd" d="M50.8011 28.0298H48.8064V33.546H47.088V28.0298H45.0938V26.4551H50.8011V28.0298Z" fill="white"/>
<path fill-rule="evenodd" clip-rule="evenodd" d="M17.5726 30.9576C17.3046 31.587 16.7456 31.9593 15.9651 31.9593C14.8251 31.9593 14.0337 31.1362 14.0337 30.001C14.0337 28.8655 14.8251 28.0424 15.9651 28.0424C16.7456 28.0424 17.3046 28.4154 17.5726 29.0442H19.4115C19.0505 27.4842 17.7384 26.4551 15.9761 26.4551C13.8692 26.4551 12.2773 27.9418 12.2773 30.001C12.2773 32.0599 13.8692 33.546 15.9761 33.546C17.7391 33.546 19.0505 32.5175 19.4115 30.9576H17.5726Z" fill="white"/>
<path fill-rule="evenodd" clip-rule="evenodd" d="M17.1932 40.799C17.1932 40.3607 16.8246 40.1104 16.1602 40.1104H14.5345V41.5392H16.1283C16.8669 41.5392 17.1932 41.216 17.1932 40.799ZM14.5345 37.3475V38.828H15.8753C16.5502 38.828 16.9192 38.4946 16.9192 38.0358C16.9192 37.5871 16.5606 37.3475 15.8753 37.3475H14.5345ZM18.9349 41.0284C18.9349 42.2066 17.9741 42.9991 16.3609 42.9991H12.752V35.9082H16.1492C17.7107 35.9082 18.6181 36.638 18.6181 37.7956C18.6181 38.4525 18.2481 39.1306 17.6265 39.3492C18.5021 39.5368 18.9349 40.2666 18.9349 41.0284Z" fill="white"/>
<path fill-rule="evenodd" clip-rule="evenodd" d="M24.1268 40.3084L23.2098 37.9207L22.2933 40.3084H24.1268ZM24.6928 41.7788H21.7273L21.2631 42.9991H19.4102L22.3856 35.9082H24.0545L27.0199 42.9991H25.1665L24.6928 41.7788Z" fill="white"/>
<path fill-rule="evenodd" clip-rule="evenodd" d="M34.1546 35.9082V42.9991H32.7687L29.2963 39.1094V42.9991H27.4961V35.9082H28.8701L32.3654 39.9019V35.9082H34.1546Z" fill="white"/>
<path fill-rule="evenodd" clip-rule="evenodd" d="M38.4813 40.3509L37.4036 41.5595V42.9991H35.582V35.9082H37.4036V39.1616L40.3239 35.9082H42.4793L39.6884 39.0159L42.7162 42.9991H40.4432L38.4813 40.3509Z" fill="white"/>
</svg>
