<svg width="61" height="60" viewBox="0 0 61 60" fill="none" xmlns="http://www.w3.org/2000/svg">
<rect x="0.751953" width="60" height="60" rx="30" fill="#FFDD2D"/>
<path d="M42.7699 22.5327C42.703 22.464 42.6637 22.4013 42.6083 22.314C42.5794 22.2698 42.5482 22.2221 42.5136 22.1709C42.6094 22.0592 42.6902 21.9301 42.7514 21.7882L42.9962 21.2263L42.3936 21.139C42.292 21.1239 42.128 21.0809 41.9364 21.0297C41.567 20.9319 41.0925 20.8063 40.5753 20.7516C40.7519 20.6737 40.902 20.533 41.007 20.3422L41.1063 20.1619C41.1063 20.1619 41.0798 19.9094 40.9828 19.8303C41.0198 19.7523 41.0486 19.6663 41.0683 19.572L41.1502 19.1695L40.7646 19.0369C40.7046 19.016 40.6446 19.0009 40.5857 18.9916C40.5637 18.9183 40.5314 18.8403 40.4876 18.7577L40.259 18.3354L39.8468 18.5786C39.7441 18.6391 39.6575 18.7089 39.5871 18.7868C39.5259 18.7752 39.4601 18.7694 39.3908 18.7694C39.3908 18.7694 39.1553 18.7426 38.8956 18.838L38.5631 18.4902L38.1694 18.0667C37.8011 17.67 37.3024 17.5526 36.7945 17.748C36.6005 17.5526 36.298 17.3908 35.8282 17.3908C35.6689 17.3908 35.5292 17.4106 35.4472 17.4211C35.4472 17.4211 34.8007 17.5397 34.4371 17.8876L33.9961 17.6759C33.7006 18.1447 33.1949 18.2936 33.1949 18.2936C33.1603 18.1563 33.1014 18.0283 33.0171 17.9108L33.046 17.7456C33.046 17.741 33.1452 17.1814 33.4477 16.7068L33.9741 15.8808L33.2284 15.9657C33.2307 15.8913 33.2273 15.8029 33.2168 15.6982L33.1499 15.056L32.5657 15.3224C32.5011 15.3515 32.4468 15.3806 32.396 15.4074L32.2806 15.1596L32.0128 15.2992C31.9862 15.2329 31.9515 15.1573 31.9042 15.07L31.596 14.5L31.1585 14.9758C31.1134 15.0246 31.0753 15.07 31.043 15.113L30.7775 14.8466L30.5097 15.1142C30.4761 15.0712 30.4392 15.0258 30.3942 14.9769L29.9521 14.5L29.6427 15.0723C29.5953 15.1596 29.5619 15.234 29.5353 15.3004L29.2686 15.1607L29.1532 15.4085C29.1024 15.3818 29.0481 15.3527 28.9835 15.3224L28.397 15.0572L28.3324 15.7017C28.3219 15.8052 28.3185 15.8925 28.3208 15.9669L27.5739 15.882L28.1015 16.708C28.4051 17.1814 28.5021 17.741 28.5021 17.7456L28.5298 17.9108C28.4455 18.0295 28.3855 18.1575 28.352 18.2947C28.352 18.2947 27.874 18.0888 27.5543 17.6759L27.104 17.8922C26.5903 17.5432 26.2717 17.4071 25.7175 17.3908C25.2477 17.378 24.9452 17.5526 24.7512 17.748C24.2421 17.5537 23.7446 17.6712 23.3775 18.0679C23.3775 18.0679 23.1362 18.3319 22.9838 18.4914C22.8314 18.6519 22.6063 18.7845 22.6063 18.7845C22.6063 18.7845 22.2865 18.7124 21.9575 18.788C21.8871 18.71 21.7993 18.6402 21.6954 18.5786L21.2821 18.3354L21.0547 18.7601C21.0109 18.8415 20.9797 18.9183 20.9589 18.9916C20.9 19.0009 20.84 19.016 20.78 19.0369L20.3967 19.1719L20.4764 19.572C20.496 19.6686 20.5237 19.7547 20.5617 19.8327C20.5398 19.8757 20.5202 19.9211 20.5041 19.9688L20.4394 20.163L20.5375 20.3433C20.6414 20.533 20.7904 20.6749 20.9681 20.7528C20.4498 20.8075 19.9765 20.9331 19.6059 21.0309C19.4154 21.0809 19.2515 21.1251 19.1499 21.1402L18.545 21.2286L18.6823 21.5427L18.792 21.7928C18.8543 21.9324 18.9363 22.0615 19.031 22.1732C18.9952 22.2244 18.8428 22.4652 18.7747 22.5339L18.4688 22.8468L18.762 23.1725C18.7989 23.2121 19.128 23.5599 19.6601 23.5611C19.8056 23.5611 19.9499 23.5355 20.093 23.4843C20.235 23.7077 20.4036 23.9345 20.5571 24.0461C20.2743 24.3812 19.9522 24.6721 19.4939 24.8919L19.1106 25.0757L19.2757 25.5166C19.3831 25.783 19.592 26.075 19.9961 26.1867C19.9095 26.4473 19.8679 26.6939 19.831 26.9138C19.7444 27.4361 19.7075 27.6525 19.2515 27.8142L18.8416 27.9585L18.9594 28.3796C19.0541 28.7227 19.1961 28.9496 19.3496 29.0997L19.0772 29.4021C19.0772 29.4021 19.7237 29.8907 20.3574 29.95C20.3667 29.9512 20.9069 29.9861 21.1494 29.6744C21.2464 30.0279 21.3999 30.3537 21.5396 30.6492C21.8259 31.2565 21.9783 31.6159 21.7866 31.9439L21.3537 32.6838L22.2046 32.6478C22.5763 32.6326 22.9215 32.6094 23.2205 32.5349C23.2205 32.5512 23.2193 32.5664 23.2181 32.5815L23.1489 33.2166L23.8946 33.0584C23.9732 33.0351 24.047 33.0037 24.114 32.9677C24.5758 33.5121 25.3608 33.9368 26.4183 33.9368H26.4795L25.2638 34.4393L26.1493 34.9035C26.7323 35.2094 27.38 35.4653 28.1188 35.6829L28.016 36.04L28.4605 36.1715C28.7168 36.2471 29.6438 36.4949 30.7729 36.4949C31.9019 36.4949 32.8278 36.2471 33.0852 36.1715L33.5285 36.04L33.4257 35.6841C34.1658 35.4665 34.8135 35.2105 35.3964 34.9046L36.2819 34.4404L35.0651 33.9379H35.1263C36.1838 33.9379 36.9676 33.5133 37.4295 32.9689C37.4964 33.0049 37.5703 33.0363 37.6488 33.0596L38.3945 33.2178L38.3264 32.5838C38.3253 32.5687 38.3241 32.5524 38.3241 32.5361C38.622 32.6105 38.9683 32.6326 39.3389 32.6489L40.1897 32.685L39.7591 31.9463C39.5663 31.6183 39.7198 31.2588 40.005 30.6516C40.1447 30.356 40.2982 30.0303 40.3952 29.6767C40.5591 29.8023 40.7358 29.8779 40.9112 29.9175C40.9112 29.9175 41.0475 29.9582 41.1779 29.9617C41.5542 29.9733 41.7425 29.8652 42.001 29.7011L42.4709 29.4032L42.1961 29.1008C42.3497 28.9519 42.4917 28.7251 42.5863 28.383L42.7053 27.9608L42.2943 27.8165C41.8371 27.6548 41.8013 27.4384 41.7148 26.9161C41.6778 26.6962 41.6374 26.4484 41.5496 26.189C41.9537 26.0762 42.1615 25.7842 42.2689 25.5189L42.4328 25.0769L42.0495 24.8931C41.5912 24.6732 41.2691 24.3824 40.9851 24.0473C41.1398 23.9357 41.3084 23.7088 41.4515 23.4855C41.5935 23.5366 41.7378 23.5611 41.8845 23.5623C42.4166 23.5623 42.7468 23.2144 42.7826 23.1749L43.0758 22.8491L42.7699 22.5327Z" fill="white"/>
<path fill-rule="evenodd" clip-rule="evenodd" d="M27.0203 28.2665V24.7183C27.0203 24.388 26.9257 24.0576 26.8125 23.7539H29.5451C29.7956 24.1006 30.2505 24.3332 30.7723 24.3332C31.2918 24.3332 31.7466 24.1006 31.9983 23.7539H34.7309C34.6154 24.0587 34.5219 24.388 34.5219 24.7183V28.2665H27.0203ZM30.7711 33.1152C30.389 32.7325 30.1165 32.6906 29.0868 32.6906C27.8561 32.6906 27.0203 31.9635 27.0203 30.8013V28.4747H34.5208V30.8013C34.5208 31.9635 33.6861 32.6906 32.4531 32.6906C31.4245 32.6894 31.1521 32.7325 30.7711 33.1152Z" fill="#FFDD2D"/>
<path d="M27.4564 33.5527V34.2612L26.8457 34.509C27.3617 34.7451 28.0025 34.9801 28.7551 35.1534L29.1015 34.0169C28.3626 33.8645 27.8477 33.7051 27.4564 33.5527Z" fill="white"/>
<path d="M30.7711 34.5123C30.0496 34.5123 29.4423 34.4367 29.1999 34.3809L28.834 35.5733C29.4089 35.7152 30.0819 35.8199 30.7711 35.8199C31.458 35.8199 32.1311 35.7164 32.7083 35.5733L32.3412 34.3809C32.0987 34.4378 31.4938 34.5123 30.7711 34.5123Z" fill="white"/>
<path d="M34.0865 33.5527C33.694 33.7051 33.1802 33.8633 32.4414 34.0181L32.7889 35.1546C33.5428 34.9813 34.1811 34.7463 34.6972 34.5101L34.0877 34.2623V33.5527H34.0865Z" fill="white"/>
<path d="M26.176 22.1231C27.1319 21.603 29.4685 20.4583 27.8846 19.224C27.6687 19.0565 27.4309 18.9053 27.2311 18.718C26.9841 18.9099 27.3235 19.3869 27.4089 19.5614C27.4089 19.5614 26.8813 19.6149 26.7555 19.6149C25.9405 19.6115 25.0862 19.1252 25.5191 18.1934C25.1947 18.2608 25.1554 18.5749 25.0562 18.8436C24.8484 18.7017 24.487 18.3969 24.2088 18.44C24.4351 19.1694 25.3875 19.8266 26.1263 19.9756C25.3794 20.385 23.9941 20.6898 23.2656 19.808C22.7542 20.805 23.4665 21.2215 24.165 21.7438C21.5063 22.9664 21.8988 24.338 20.1544 25.4176C20.3807 25.5246 21.3896 25.3094 21.4797 25.2966C21.101 25.791 20.9244 26.0004 20.8136 26.2412C20.7074 26.4669 20.6601 26.7217 20.555 27.2707C20.473 27.7046 20.3229 28.1374 19.7988 28.4248C20.0043 28.7993 20.4603 28.5062 20.6508 28.4562C20.6254 28.4957 20.5607 28.9471 20.3899 29.1646C21.2858 29.1064 20.8713 27.2033 21.7672 27.6616C22.02 27.7896 22.0962 28.0897 21.9795 28.3352C21.3908 29.559 22.7288 30.6374 22.656 31.71C22.9851 31.7077 23.3257 31.6983 23.5404 31.2504C23.6524 31.4738 23.8255 31.7879 23.9225 32.0904L24.1904 31.6309C24.3554 32.3916 25.0597 33.0943 26.0109 33.1571C25.5572 32.4335 26.101 31.4459 24.9985 30.3954C25.1358 30.2837 25.4533 30.0685 25.5665 29.9219C24.2135 30.0825 22.8015 29.0041 23.4423 28.4922C23.8613 28.1583 24.0449 28.8517 24.6914 28.7354L24.4386 28.5155C24.5274 28.4271 24.629 28.3119 24.7341 28.2247C24.4593 28.1909 24.1592 28.0141 24.1592 28.0141L24.3231 27.7407C22.7381 27.7384 22.6976 26.5169 23.3418 26.468C23.6443 26.4459 24.0357 27.0078 25.0112 26.8903C24.8865 26.7391 24.8369 26.51 24.7779 26.3413C25.0135 26.3192 25.2906 26.3215 25.5134 26.2121C25.0366 26.1505 24.9165 25.9887 24.5194 25.6863L24.98 25.5165C24.3115 25.1803 24.352 24.5951 24.3312 23.9855C24.681 24.1879 25.092 24.502 25.5306 24.3566C25.6346 24.3217 25.7015 24.2728 25.7038 24.1635C25.0781 23.911 24.6764 22.9397 26.176 22.1231ZM25.0343 22.2184C24.1973 23.12 24.5597 23.6598 24.7283 23.8262C24.4166 23.7586 23.9514 23.3585 24.0576 22.9711C23.9583 23.0909 23.8567 23.2212 23.7528 23.355C23.545 23.6342 23.3592 23.9076 23.1941 24.1728C22.9401 24.9336 23.4053 25.7189 24.1973 26.0667C23.3176 25.9364 22.9228 25.1477 22.9251 24.6451C22.5049 25.4455 22.304 26.1761 22.3224 26.7891C22.3305 27.0171 22.3501 27.23 22.3802 27.4313C22.5822 27.8175 22.9066 27.9594 23.485 28.0304C22.9597 28.0642 22.6814 28.0397 22.4529 27.7977C22.8108 29.3484 24.4847 30.6909 25.1658 31.8403C24.4836 30.9469 23.0717 29.616 22.5776 28.6539C22.5395 29.0018 22.6318 29.8928 23.0613 30.4408C22.4286 29.8138 22.379 28.8645 22.4206 28.3084C22.2602 27.9082 22.1585 27.4615 22.1447 26.9532C22.132 26.4855 22.1643 26.0795 22.2347 25.7154C21.8352 26.2877 21.2581 26.5088 20.974 27.3801C21.0295 26.2563 21.8619 26.2388 22.4853 24.8743C22.7265 24.2775 23.0774 23.7622 23.4654 23.1782C22.9724 23.341 22.603 23.4574 22.0326 24.0867C22.4379 23.1212 24.7791 22.0358 25.8516 20.9853C25.5295 21.0539 24.2146 21.0877 23.6685 20.7201C24.6579 20.99 26.8594 20.6817 27.6906 20.1093C27.1169 20.9411 25.8678 20.9888 24.3474 22.643C24.5413 22.4872 24.7999 22.3301 25.0343 22.2184Z" fill="white"/>
<path d="M40.9864 27.2703C40.8814 26.7213 40.8352 26.4665 40.729 26.2408C40.6193 26 40.4415 25.7906 40.0617 25.2962C40.1518 25.3089 41.1631 25.5242 41.3882 25.4172C39.6438 24.3376 40.0363 22.9661 37.3765 21.7434C38.0749 21.2211 38.7872 20.8046 38.2758 19.8065C37.5474 20.6894 36.162 20.3847 35.4151 19.974C36.1551 19.8251 37.1063 19.1689 37.3326 18.4384C37.0532 18.3954 36.6919 18.7002 36.4841 18.8409C36.3848 18.5722 36.3467 18.2581 36.0223 18.1895C36.4552 19.1224 35.5998 19.6087 34.7836 19.6122C34.6589 19.6122 34.1325 19.5586 34.1325 19.5586C34.2168 19.3842 34.5562 18.9072 34.3079 18.7153C34.1082 18.9037 33.8727 19.0538 33.6557 19.2213C32.0707 20.4556 34.4095 21.6015 35.3655 22.1203C36.8628 22.937 36.4645 23.9083 35.8376 24.1573C35.8399 24.2667 35.9069 24.3155 36.0119 24.3504C36.4483 24.497 36.8616 24.1829 37.2091 23.9793C37.1894 24.5889 37.231 25.1752 36.5626 25.5102L37.022 25.6801C36.6249 25.9826 36.506 26.1443 36.0292 26.2059C36.2509 26.3152 36.5303 26.3129 36.7646 26.3351C36.7046 26.5037 36.6527 26.7329 36.5303 26.8841C37.5069 27.0004 37.8995 26.4397 38.1996 26.4618C38.8415 26.5107 38.8034 27.7322 37.2171 27.7345L37.3811 28.0079C37.3811 28.0079 37.0809 28.1847 36.805 28.2184C36.9101 28.3045 37.0128 28.4208 37.1017 28.5093L36.8489 28.7291C37.4943 28.8455 37.6789 28.1521 38.098 28.486C38.7387 28.9978 37.328 30.0763 35.9738 29.9157C36.0881 30.0623 36.4056 30.2787 36.543 30.3904C35.4393 31.4397 35.9819 32.4285 35.5305 33.1532C36.4795 33.0893 37.1837 32.3866 37.3511 31.6258L37.6189 32.0853C37.7147 31.7829 37.8902 31.4687 37.9999 31.2454C38.2134 31.6933 38.5563 31.7026 38.8865 31.7049C38.8114 30.6323 40.1483 29.5539 39.5618 28.3301C39.4441 28.0858 39.5203 27.7857 39.7731 27.6565C40.6713 27.1982 40.2545 29.1014 41.1515 29.1595C40.9795 28.942 40.916 28.4907 40.8918 28.4511C41.0811 28.5011 41.536 28.7943 41.7414 28.4185C41.2208 28.137 41.0707 27.7043 40.9864 27.2703ZM39.309 25.7138C39.3795 26.0791 39.4152 26.4839 39.3991 26.9516C39.3841 27.4599 39.2836 27.9067 39.1231 28.3068C39.1635 28.8629 39.1151 29.8122 38.4824 30.4392C38.9107 29.8901 39.0043 29.0002 38.9662 28.6524C38.4697 29.6145 37.059 30.9452 36.3756 31.8387C37.0578 30.6893 38.7318 29.3457 39.0908 27.7962C38.8599 28.037 38.584 28.0626 38.0576 28.0288C38.6348 27.9579 38.9592 27.8159 39.1612 27.4297C39.1913 27.2296 39.2109 27.0156 39.219 26.7876C39.2386 26.1745 39.0366 25.4439 38.6163 24.6436C38.6198 25.1461 38.225 25.9349 37.3442 26.0651C38.1338 25.7161 38.6002 24.9309 38.3474 24.1712C38.1834 23.906 37.9987 23.6315 37.7886 23.3534C37.6847 23.2196 37.5831 23.0894 37.4827 22.9695C37.5889 23.3569 37.1237 23.7571 36.8119 23.8246C36.9817 23.6582 37.343 23.1185 36.5072 22.2169C36.7415 22.3286 37.0001 22.4856 37.1952 22.6391C35.6748 20.9849 34.4269 20.9384 33.8508 20.1054C34.6831 20.6778 36.8847 20.9872 37.8729 20.7162C37.328 21.0838 36.0119 21.0501 35.6898 20.9814C36.7623 22.0319 39.1058 23.1173 39.5099 24.0828C38.9396 23.4535 38.569 23.3372 38.0784 23.1743C38.4674 23.7594 38.8161 24.2736 39.0574 24.8704C39.6819 26.235 40.5154 26.2513 40.5697 27.3762C40.2857 26.5071 39.7096 26.2861 39.309 25.7138Z" fill="white"/>
<path d="M31.9971 23.752C31.7465 24.0986 31.2906 24.3313 30.7722 24.3313C30.651 24.3313 30.5343 24.3173 30.4235 24.2964C30.4547 24.4395 30.5274 24.5872 30.6787 24.714C30.6175 25.1294 30.7953 25.5179 31.2375 25.6191C31.2848 25.8308 31.414 25.9902 31.6334 26.0658L31.3251 26.4241C31.2062 26.5614 31.0516 26.6056 30.9269 26.5893L29.5508 26.4322C29.6108 26.2787 29.4515 26.1007 29.0151 26.1764L29.5554 24.6524L29.2264 23.9462L28.6018 24.4837L28.5556 26.0821L28.2867 25.9506C27.9403 25.7994 27.8376 26.4357 28.1678 26.4381L28.3005 26.4392C28.2913 26.5044 28.3121 26.5765 28.364 26.5998C28.3017 26.6254 28.2832 26.7429 28.3606 26.7847C28.2821 26.8231 28.2705 26.9441 28.334 26.9964C28.2659 27.114 28.2531 27.3687 28.4945 27.4327C28.693 27.4851 28.8177 27.271 28.8581 27.1465L30.9996 27.8143C31.3009 27.9016 31.518 27.8527 31.7696 27.6304L32.3284 27.1384C32.2579 27.4607 32.3722 27.7503 32.6158 27.8469C32.6158 27.8469 32.5777 28.1424 32.5928 28.2645L33.342 28.2657H34.5218V24.7175C34.5218 24.3871 34.6154 24.0568 34.7308 23.752H33.342H31.9971Z" fill="white"/>
<path d="M28.7912 29.7217L28.8328 29.774C28.8905 29.8461 28.9251 29.8287 28.9909 29.7903L29.0879 29.738C29.1491 29.6914 29.5474 29.845 29.5693 29.5111C29.6132 29.7601 29.3188 30.2847 29.4966 30.5779L29.7356 30.9722L28.9551 30.9839C28.8697 30.9839 28.8247 31.0362 28.8016 31.0827L28.5973 31.5097C28.5441 31.6225 28.5476 31.7389 28.6146 31.8168L28.7531 31.9739C28.7531 31.9739 28.8663 31.8773 28.9032 31.7505L28.842 31.6865C28.7912 31.6377 28.7912 31.5911 28.8189 31.5307L28.9447 31.2677C28.9933 31.1642 29.0429 31.1421 29.1537 31.1688L29.7852 31.3061C29.8314 31.3178 29.9064 31.3399 29.9514 31.2619C30.0288 31.1235 30.165 31.1142 30.3036 31.1363C30.6498 31.1886 31.4499 31.2724 31.7351 30.9362C32.0698 31.384 32.7244 31.384 32.6817 31.619L32.5432 32.3891H32.7509L32.878 31.6016C32.8918 31.5097 32.9484 31.384 32.8503 31.3131C32.8099 31.2817 32.7914 31.2654 32.7001 31.1072C32.5813 30.8978 32.5871 30.5837 32.4727 30.3127C32.5813 30.1835 32.699 30.1393 32.8018 30.1637C33.0327 30.2207 33.095 30.6221 33.4229 30.949C33.386 30.8036 33.3698 30.6442 33.2924 30.5058C33.2924 30.5058 33.5198 30.6838 33.5787 30.892C33.6157 31.0223 33.6538 31.1177 33.7703 31.1781C33.8477 31.2061 33.9401 31.1688 34.0325 31.0572C34.0325 31.0572 33.8165 30.7477 33.6584 30.5453C33.4413 30.2673 33.1515 29.9881 32.7568 30.0206C32.6321 30.0311 32.512 30.0881 32.3977 30.1568C31.9486 29.9031 31.6 30.1719 31.4615 30.1719L30.621 30.1219C30.456 30.1114 30.3255 29.9183 30.3255 29.9183C30.3047 29.2017 29.7333 28.9166 29.5359 28.9166C29.5359 28.9166 29.5543 28.7875 29.5024 28.7422L29.3269 28.9643L28.8397 28.7852L29.2218 29.1004L28.8074 29.5856C28.7647 29.6333 28.7705 29.696 28.7912 29.7217Z" fill="white"/>
<path d="M28.2404 30.7287C28.1227 30.8206 28.1284 30.9486 28.1989 31.0917L28.2693 31.2242L28.4528 31.0835L28.4113 30.9927C28.3812 30.9288 28.3824 30.8637 28.4343 30.8229L28.6976 30.6228C28.7715 30.5682 28.7946 30.5623 28.8731 30.574L29.4283 30.6915C29.4283 30.6915 29.3441 30.5682 29.3163 30.4425L28.7934 30.3727C28.7195 30.3634 28.6745 30.3948 28.6098 30.4448L28.2404 30.7287Z" fill="white"/>
<path d="M31.791 32.3909H32.0011L32.3382 31.5545C32.3498 31.5254 32.3659 31.5126 32.3787 31.4882C32.2274 31.4277 32.1385 31.3858 32.0127 31.3125C32.0969 31.4265 32.1627 31.4753 32.1281 31.5812L31.791 32.3909Z" fill="white"/>
<path d="M31.9699 21.0756L32.3589 18.8223L30.8848 19.3272V21.6503L31.9699 21.0756ZM31.1341 19.5552L32.1119 19.1922C32.1119 19.1922 31.9214 19.3481 31.694 19.5051C31.492 19.6459 31.1341 19.796 31.1341 19.796V19.5552ZM31.1341 20.1008L32.0288 19.7785C32.0288 19.7785 31.9214 19.8925 31.6951 20.0496C31.4931 20.1892 31.1353 20.3393 31.1353 20.3393V20.1008H31.1341ZM31.1341 20.6801L31.9214 20.3753C31.9214 20.3753 31.9214 20.4718 31.694 20.6278C31.492 20.7685 31.1341 20.9186 31.1341 20.9186V20.6801Z" fill="white"/>
<path d="M29.3464 23.0693L29.3787 23.1216H29.6823L29.6858 23.1752C29.6893 23.2264 29.7008 23.2787 29.7181 23.3322C29.7655 23.4776 29.859 23.63 30.009 23.7534C30.1833 23.8952 30.435 23.9976 30.7698 23.9976C31.496 23.9976 31.8238 23.5242 31.855 23.1752L31.8573 23.1216H32.162L32.1944 23.0693C32.4807 22.6179 32.8305 22.1165 33.2369 22.0444L32.1286 21.3965L30.7698 22.1409L29.4098 21.3965L28.3027 22.0444C28.7091 22.1154 29.0589 22.6179 29.3464 23.0693Z" fill="white"/>
<path d="M30.6575 21.6503V19.3272L29.1855 18.8223L29.5723 21.0756L30.6575 21.6503ZM30.4093 20.9209C30.4093 20.9209 30.0513 20.7697 29.8493 20.6301C29.6219 20.4742 29.6219 20.3765 29.6219 20.3765L30.4104 20.6812V20.9209H30.4093ZM30.4093 19.5552V19.796C30.4093 19.796 30.0513 19.6459 29.8493 19.5051C29.6207 19.3481 29.4291 19.1922 29.4291 19.1922L30.4093 19.5552ZM30.4093 20.1008V20.3404C30.4093 20.3404 30.0513 20.1903 29.8493 20.0507C29.6207 19.8937 29.5146 19.7797 29.5146 19.7797L30.4093 20.1008Z" fill="white"/>
<path d="M30.7707 17.8301C29.929 17.8301 29.2976 18.1081 29.1602 18.4339L30.7707 19.0749L32.3788 18.4339C32.2426 18.1081 31.6122 17.8301 30.7707 17.8301Z" fill="white"/>
<path d="M30.7725 16.8996C31.3924 16.8996 32.0135 17.0892 32.4314 17.3347C32.4996 17.1078 32.5722 16.9461 32.6716 16.7612L32.2906 16.8205L31.9823 16.1574L31.4063 16.4657L30.7725 15.834L30.1375 16.4657L29.5626 16.1574L29.2521 16.8205L28.8711 16.7612C28.9704 16.9461 29.0419 17.1078 29.1124 17.3347C29.5315 17.0892 30.1503 16.8996 30.7725 16.8996Z" fill="white"/>
<path d="M41.2766 22.0051C41.4844 21.9783 41.6518 21.9085 41.8561 21.755C41.4163 21.6374 40.495 21.3012 39.7089 21.4525C39.4491 21.4874 39.3048 21.5933 39.3971 21.6537C39.8197 21.9364 40.3415 22.5914 40.7213 23.3557C41.0549 22.938 40.9153 22.3901 40.8448 22.233C41.5098 22.6367 41.6841 22.8333 41.9924 22.7565C41.8273 22.5017 41.5952 22.2726 41.2766 22.0051Z" fill="white"/>
<path d="M20.8218 23.3552C21.2017 22.5909 21.7234 21.936 22.1471 21.6533C22.2418 21.5928 22.0952 21.4869 21.8377 21.4521C21.0504 21.302 20.1269 21.637 19.687 21.7545C19.8937 21.9081 20.0576 21.9779 20.2677 22.0046C19.9479 22.2733 19.7159 22.5014 19.5508 22.7562C19.8613 22.8329 20.0345 22.6363 20.6983 22.2327C20.6302 22.3909 20.4893 22.9376 20.8218 23.3552Z" fill="white"/>
<path fill-rule="evenodd" clip-rule="evenodd" d="M25.4306 30.4505C25.7365 30.2062 25.9904 30.0841 25.9777 29.4919C25.5182 29.7292 24.2149 29.7164 23.67 28.9603C23.5165 28.745 23.6804 28.6369 23.8293 28.8067C24.2022 29.2325 24.8925 29.0394 25.1442 28.9172C25.1038 28.7707 24.9918 28.5799 24.8983 28.4985C24.993 28.4054 25.2597 28.2658 25.3139 28.0261C25.172 27.9482 24.6189 27.8923 24.6189 27.8923C24.7078 27.8062 24.8187 27.6864 24.7518 27.3665C24.1872 27.5411 23.4887 27.3037 23.3306 27.0931C23.1747 26.8861 23.3341 26.6918 23.4656 26.8291C23.7474 27.1269 25.135 27.4677 25.651 26.9501C25.4594 26.8965 25.2481 26.7243 25.21 26.6173C25.688 26.5685 26.0689 26.2846 26.1001 25.931C25.8357 25.931 25.337 25.9112 25.1662 25.7832C25.3948 25.6983 25.5402 25.6146 25.6129 25.3563C24.739 25.3028 24.6697 24.649 24.6651 24.5408C25.2343 24.8712 26.2363 24.7246 25.9766 23.9103C25.5033 23.8847 25.0265 23.1135 26.3275 22.405C27.5109 21.7593 28.8558 21.0637 28.7369 19.9178C28.6595 19.1849 27.4624 18.6847 27.31 18.3136C26.8101 18.5532 26.7097 18.8313 26.9348 19.2977C26.9348 19.2977 25.8207 19.4094 25.733 18.7184C25.6949 18.409 25.9004 18.1193 26.1209 17.8971C25.9962 17.8971 25.1569 17.6703 24.9041 18.3589C24.4342 18.0355 24.0313 18.0472 23.715 18.3892C24.2207 18.6916 24.5335 19.7293 25.3694 20.0353C24.7748 20.3598 23.8131 20.2237 23.2521 19.2256C22.721 20.0318 22.4151 20.8298 23.5546 21.6825C21.4823 22.633 21.4973 24.4501 19.6941 25.3156C19.8765 25.81 20.262 25.81 20.7539 25.7332C19.9746 26.7534 20.6384 27.8214 19.4043 28.2576C19.5197 28.6741 19.7518 29.0068 20.2067 28.8847C20.0773 29.0882 19.9919 29.0836 19.791 29.307C20.4652 29.735 21.2653 29.4256 21.4465 28.0517C21.4789 27.8062 21.8136 27.9598 21.6982 28.2006C20.9293 29.8025 22.8735 31.0077 22.1854 32.1827C22.7914 32.1571 23.2544 32.1094 23.5061 31.9035C23.6296 32.1501 23.7047 32.3944 23.677 32.6352C24.0117 32.5666 24.1341 32.3676 24.1572 32.1373C24.3765 32.783 25.1615 33.4728 26.4176 33.4728C25.7514 32.5142 26.3714 31.5428 25.4306 30.4505ZM24.1906 31.6313L23.9228 32.0907C23.827 31.7883 23.6527 31.4742 23.5407 31.2509C23.3248 31.6987 22.9843 31.708 22.6564 31.7104C22.7291 30.6378 21.3911 29.5594 21.9799 28.3356C22.0976 28.0913 22.0203 27.7912 21.7674 27.662C20.8704 27.2037 21.286 29.1069 20.3902 29.165C20.5611 28.9475 20.6257 28.4961 20.6511 28.4566C20.4606 28.5066 20.0046 28.7998 19.7991 28.4252C20.3233 28.1378 20.4733 27.705 20.5553 27.2711C20.6592 26.722 20.7077 26.4673 20.8127 26.2416C20.9235 26.0008 21.1002 25.7914 21.4789 25.297C21.3888 25.3098 20.381 25.525 20.1536 25.418C21.8979 24.3384 21.5054 22.9668 24.1641 21.7442C23.4668 21.2219 22.7545 20.8054 23.2648 19.8084C23.9932 20.6902 25.3775 20.3854 26.1255 19.9759C25.3867 19.8271 24.4342 19.1709 24.2091 18.4404C24.4873 18.3973 24.8487 18.7021 25.0554 18.844C25.1557 18.5742 25.195 18.2612 25.5194 18.1937C25.0865 19.1256 25.9408 19.6118 26.7558 19.6153C26.8828 19.6153 27.4093 19.5618 27.4093 19.5618C27.325 19.3873 26.9844 18.9104 27.2315 18.7184C27.4312 18.9069 27.669 19.0569 27.8849 19.2244C29.4699 20.4599 27.1322 21.6046 26.1763 22.1246C24.6767 22.9413 25.0784 23.9138 25.7041 24.1616C25.7018 24.2709 25.6349 24.3198 25.531 24.3547C25.0923 24.5013 24.6813 24.186 24.3315 23.9836C24.3523 24.5932 24.3107 25.1795 24.9803 25.5145L24.5196 25.6832C24.9156 25.9869 25.0369 26.1474 25.5136 26.2102C25.2908 26.3195 25.0149 26.3172 24.7783 26.3393C24.8383 26.508 24.8868 26.7371 25.0115 26.8884C24.036 27.0048 23.6446 26.444 23.3421 26.4661C22.698 26.5149 22.7383 27.7365 24.3234 27.7388L24.1595 28.0122C24.1595 28.0122 24.4596 28.189 24.7356 28.2227C24.6305 28.3089 24.5289 28.4252 24.44 28.5136L24.6928 28.7334C24.0452 28.8498 23.8628 28.1565 23.4425 28.4903C22.8018 29.0022 24.2137 30.0806 25.5667 29.92C25.4536 30.0666 25.135 30.283 24.9988 30.3946C26.1013 31.444 25.5575 32.4328 26.0112 33.1576C25.06 33.0947 24.3558 32.3909 24.1906 31.6313Z" fill="black"/>
<path fill-rule="evenodd" clip-rule="evenodd" d="M22.4523 27.797C22.682 28.0378 22.9591 28.0634 23.4844 28.0296C22.906 27.9587 22.5816 27.8168 22.3796 27.4305C22.3507 27.2304 22.3311 27.0164 22.323 26.7884C22.3046 26.1753 22.5055 25.4447 22.9257 24.6444C22.9233 25.1458 23.317 25.9345 24.1978 26.0659C23.4059 25.717 22.9407 24.9317 23.1946 24.172C23.3598 23.9069 23.5456 23.6323 23.7534 23.3542C23.8573 23.2205 23.9588 23.0902 24.0582 22.9703C23.9519 23.3577 24.4172 23.7579 24.7289 23.8254C24.5603 23.659 24.1978 23.1205 25.0349 22.2189C24.8016 22.3305 24.543 22.4876 24.3468 22.6412C25.8661 20.9869 27.1163 20.9404 27.6901 20.1074C26.8588 20.6798 24.6573 20.9892 23.668 20.7182C24.214 21.0858 25.5289 21.0521 25.851 20.9834C24.7797 22.0339 22.4385 23.1193 22.0321 24.0848C22.6024 23.4543 22.9718 23.3391 23.4659 23.1774C23.0769 23.7626 22.7271 24.2768 22.4858 24.8736C21.8624 26.237 21.0289 26.2544 20.9746 27.3782C21.2587 26.5069 21.8358 26.2858 22.2353 25.7134C22.1649 26.0787 22.1314 26.4836 22.1441 26.9513C22.1579 27.4597 22.2595 27.9063 22.42 28.3065C22.3796 28.8626 22.428 29.8119 23.0607 30.4389C22.6312 29.891 22.5389 28.9998 22.577 28.652C23.0723 29.6141 24.4842 30.945 25.1664 31.8384C24.4842 30.6902 22.8114 29.3477 22.4523 27.797Z" fill="black"/>
<path fill-rule="evenodd" clip-rule="evenodd" d="M38.0792 23.1782C38.5698 23.3411 38.9404 23.4563 39.5107 24.0867C39.1066 23.1212 36.762 22.0359 35.6906 20.9854C36.0127 21.0528 37.3288 21.0877 37.8737 20.7201C36.8855 20.9911 34.684 20.6817 33.8516 20.1094C34.4265 20.9423 35.6756 20.9888 37.196 22.6431C37.0009 22.4896 36.7423 22.3325 36.508 22.2208C37.3438 23.1224 36.9825 23.6621 36.8128 23.8285C37.1245 23.7611 37.5897 23.3609 37.4835 22.9735C37.5839 23.0933 37.6855 23.2236 37.7894 23.3574C37.9984 23.6366 38.1831 23.91 38.3482 24.1752C38.6022 24.936 38.1358 25.7212 37.3461 26.0691C38.2269 25.9388 38.6218 25.1489 38.6172 24.6475C39.0385 25.4479 39.2394 26.1784 39.2209 26.7915C39.2129 27.0195 39.1932 27.2324 39.1632 27.4337C38.9601 27.8199 38.6357 27.9618 38.0584 28.0327C38.5849 28.0653 38.8608 28.0409 39.0916 27.8001C38.7326 29.3508 37.0598 30.6933 36.3763 31.8427C37.0598 30.9492 38.4694 29.6184 38.967 28.6563C39.0051 29.0041 38.9127 29.8953 38.4832 30.4432C39.1159 29.8161 39.1644 28.8668 39.1239 28.3108C39.2833 27.9106 39.3837 27.4639 39.3999 26.9555C39.4149 26.4879 39.3791 26.0819 39.3098 25.7178C39.7104 26.2901 40.2865 26.5111 40.5716 27.3825C40.5174 26.2575 39.6839 26.2401 39.0593 24.8767C38.8169 24.2764 38.4682 23.7622 38.0792 23.1782Z" fill="black"/>
<path fill-rule="evenodd" clip-rule="evenodd" d="M40.7905 25.7301C41.2811 25.808 41.6667 25.808 41.8503 25.3137C40.047 24.4481 40.062 22.6322 37.9898 21.6806C39.1292 20.829 38.8222 20.0298 38.2922 19.2236C37.7323 20.2218 36.7672 20.3579 36.175 20.0333C37.0085 19.7274 37.3237 18.6897 37.8293 18.3872C37.513 18.0452 37.109 18.0336 36.639 18.357C36.3851 17.6683 35.547 17.8952 35.4211 17.8952C35.6405 18.1162 35.8483 18.4059 35.8091 18.7164C35.7225 19.4075 34.6084 19.2958 34.6084 19.2958C34.8335 18.8293 34.733 18.5513 34.2332 18.3116C34.0808 18.6827 32.8848 19.183 32.8063 19.9159C32.6863 21.0617 34.0335 21.7574 35.2157 22.403C36.5167 23.1115 36.04 23.8839 35.5677 23.9084C35.3057 24.7227 36.3077 24.8692 36.878 24.5389C36.8757 24.6471 36.803 25.3009 35.9291 25.3544C36.003 25.6126 36.1473 25.6964 36.3759 25.7813C36.205 25.9104 35.7063 25.9291 35.4431 25.9291C35.4742 26.2827 35.8564 26.5677 36.3343 26.6154C36.2962 26.7225 36.0838 26.8946 35.8933 26.9481C36.4093 27.4658 37.797 27.125 38.0787 26.8272C38.208 26.6899 38.3662 26.8842 38.2114 27.0912C38.0521 27.3029 37.3548 27.5402 36.7891 27.3646C36.7245 27.6833 36.833 27.8044 36.9219 27.8904C36.9219 27.8904 36.3689 27.9462 36.2258 28.0242C36.28 28.2638 36.5479 28.4023 36.6414 28.4965C36.5467 28.5779 36.4347 28.7687 36.3943 28.9153C36.6483 29.0386 37.3387 29.2305 37.7092 28.8048C37.8593 28.6361 38.0233 28.7431 37.8697 28.9583C37.3248 29.7145 36.0214 29.7261 35.5608 29.4899C35.5481 30.0821 35.8021 30.2042 36.108 30.4485C35.166 31.5409 35.7882 32.5123 35.1221 33.4685C36.377 33.4685 37.162 32.7787 37.3814 32.133C37.4068 32.3622 37.5268 32.5623 37.8605 32.6309C37.8351 32.3901 37.9089 32.1458 38.0313 31.8992C38.2853 32.1051 38.7482 32.1528 39.3543 32.1784C38.6674 31.0034 40.6115 29.7983 39.8404 28.1964C39.7261 27.9555 40.0609 27.802 40.0932 28.0475C40.2733 29.4213 41.0744 29.7308 41.7498 29.3027C41.5467 29.0793 41.4623 29.084 41.3331 28.8804C41.7879 29.0026 42.0188 28.6698 42.1354 28.2534C40.9071 27.8183 41.5709 26.7504 40.7905 25.7301ZM40.8944 28.457C40.9186 28.4965 40.9821 28.9479 41.1541 29.1654C40.2571 29.1072 40.6727 27.204 39.7757 27.6624C39.5229 27.7903 39.4479 28.0905 39.5644 28.3359C40.1509 29.5598 38.8141 30.6381 38.8891 31.7107C38.5589 31.7084 38.2161 31.6991 38.0025 31.2512C37.8928 31.4746 37.7162 31.7887 37.6204 32.0912L37.3525 31.6316C37.1863 32.3924 36.4821 33.0951 35.5331 33.159C35.9845 32.4355 35.4419 31.4467 36.5456 30.3962C36.407 30.2845 36.0896 30.0681 35.9753 29.9216C37.3294 30.0821 38.7401 29.0037 38.0995 28.4918C37.6804 28.1579 37.4957 28.8513 36.8503 28.735L37.1032 28.5151C37.0143 28.4267 36.9115 28.3115 36.8064 28.2243C37.0824 28.1905 37.3825 28.0137 37.3825 28.0137L37.2186 27.7403C38.8037 27.738 38.8418 26.5165 38.201 26.4677C37.8997 26.4456 37.5072 27.0074 36.5317 26.8899C36.6553 26.7387 36.706 26.5096 36.7661 26.3409C36.5305 26.3188 36.2523 26.3211 36.0307 26.2117C36.5075 26.1501 36.6275 25.9884 37.0235 25.686L36.564 25.5161C37.2324 25.1799 37.1897 24.5947 37.2105 23.9851C36.8618 24.1875 36.4486 24.5017 36.0133 24.3563C35.9095 24.3214 35.8414 24.2725 35.8391 24.1632C36.4659 23.9142 36.8653 22.9428 35.3669 22.1261C34.4122 21.6061 32.0732 20.4615 33.6571 19.2272C33.8742 19.0596 34.1096 18.9084 34.3082 18.7211C34.5565 18.9131 34.2171 19.39 34.1328 19.5645C34.1328 19.5645 34.6592 19.618 34.7839 19.618C35.6001 19.6145 36.4555 19.1283 36.0226 18.1953C36.347 18.2628 36.3851 18.578 36.4844 18.8468C36.6922 18.7048 37.0524 18.4012 37.3329 18.4442C37.1055 19.1736 36.1553 19.8309 35.4154 19.9798C36.1623 20.3893 37.5476 20.6941 38.2761 19.8123C38.7864 20.8093 38.0752 21.2257 37.3768 21.7481C40.0366 22.9696 39.643 24.3423 41.3885 25.4218C41.1634 25.5289 40.1521 25.3137 40.062 25.3009C40.4429 25.7953 40.6208 26.0047 40.7293 26.2455C40.8355 26.4712 40.8817 26.7248 40.9867 27.275C41.0698 27.7089 41.2211 28.1417 41.7429 28.429C41.5386 28.8001 41.0837 28.507 40.8944 28.457Z" fill="black"/>
<path fill-rule="evenodd" clip-rule="evenodd" d="M28.2289 31.4592L28.6087 31.1347L28.551 31.0183C28.5094 30.9346 28.5313 30.9299 28.5752 30.8973L28.7761 30.7473C28.8222 30.7089 28.8707 30.7135 28.9273 30.7275L29.5287 30.8694H28.8938C28.7472 30.8787 28.7045 30.9358 28.6514 31.0451L28.6075 31.1347L28.4448 31.472C28.3894 31.5884 28.3605 31.7431 28.5059 31.9176L28.6214 32.056L28.3882 32.5318H28.5845L28.7461 32.2014C28.7588 32.1898 28.9977 31.9699 29.0485 31.7431C28.9793 31.6861 28.9307 31.6465 28.9689 31.5674L29.0416 31.4092C29.0659 31.3569 29.0739 31.3359 29.1432 31.3487L29.7735 31.486C29.852 31.5081 29.9675 31.543 30.0517 31.415C30.1383 31.2824 30.1499 31.2964 30.3507 31.3162L30.6728 31.351C31.1127 31.3929 31.5525 31.2824 31.7234 31.1452C31.7834 31.2824 31.9023 31.3883 31.9578 31.4953C31.9785 31.5348 31.9439 31.5907 31.9174 31.6605L31.556 32.5306H32.1136L32.4287 31.7373C32.4576 31.6616 32.5003 31.6011 32.5326 31.5709L32.3514 32.5318H32.8929L33.036 31.5814C33.0672 31.3697 33.0487 31.3022 32.9483 31.215C32.7231 31.023 32.7277 30.6205 32.655 30.3762C32.6931 30.3541 32.7381 30.3425 32.7913 30.3495C32.909 30.3599 32.9979 30.6635 33.1364 30.859C33.4135 31.251 33.791 31.6838 34.2239 31.0742C34.1823 31.0044 34.1373 30.9416 34.0842 30.8811L33.963 30.738C33.8926 30.6589 33.5578 30.2726 33.4181 30.1342C33.1006 29.812 32.6135 29.8608 32.4195 30.0179C31.9797 29.7853 31.5156 30.0295 31.4059 30.0202L30.6486 29.9737C30.6139 29.9713 30.562 29.9597 30.5251 29.9004L30.6659 29.8539C30.5343 29.3013 30.203 28.8394 29.6246 28.7591C29.6246 28.7591 29.5911 28.5846 29.5022 28.5509L29.329 28.7557C29.2806 28.7627 29.2275 28.7777 29.1836 28.7964L28.4448 28.5195L28.9989 29.0837C28.9989 29.0837 28.7114 29.4944 28.6295 29.5781C28.5752 29.6549 28.5798 29.7142 28.641 29.7876L28.7484 29.9294C28.8038 30.0028 28.865 30.0004 28.9538 29.9551L29.0751 29.8911C29.1282 29.8469 29.306 29.9341 29.3821 29.8643C29.3337 30.0249 29.3094 30.1796 29.2979 30.3017L28.8003 30.2412C28.6918 30.2261 28.6422 30.2412 28.5764 30.2936L28.1515 30.6228C28.013 30.7298 27.9703 30.9148 28.0557 31.0951L28.2289 31.4592ZM32.3387 31.5535L32.0016 32.391H31.7915L32.1286 31.5802C32.1633 31.4755 32.0974 31.4267 32.0132 31.3127C32.1379 31.3836 32.2279 31.4301 32.3791 31.4884C32.3664 31.5116 32.3503 31.5244 32.3387 31.5535ZM29.0878 29.7398L28.992 29.791C28.925 29.8294 28.8915 29.8469 28.8338 29.7748L28.7923 29.7212C28.7715 29.6956 28.7646 29.634 28.8073 29.5851L29.2205 29.1L28.8396 28.7847L29.3244 28.9651L29.5022 28.7417C29.5541 28.7859 29.5357 28.9151 29.5357 28.9151C29.7319 28.9151 30.3034 29.2013 30.3253 29.9178C30.3253 29.9178 30.4547 30.1098 30.6197 30.1202L31.4613 30.1714C31.601 30.1714 31.9497 29.9039 32.3976 30.1563C32.5107 30.0877 32.6319 30.033 32.7566 30.019C33.1514 29.99 33.4424 30.2668 33.6583 30.546C33.8164 30.7484 34.0335 31.0579 34.0335 31.0579C33.9399 31.1696 33.8487 31.2068 33.7714 31.1789C33.6548 31.1184 33.6167 31.0242 33.5797 30.8927C33.5209 30.6844 33.2935 30.5065 33.2935 30.5065C33.3708 30.6461 33.3869 30.8043 33.4239 30.9497C33.0949 30.6216 33.0325 30.2214 32.8028 30.1656C32.7012 30.1401 32.5823 30.1842 32.4726 30.3122C32.5881 30.5833 32.5823 30.8973 32.7012 31.1079C32.7913 31.265 32.8109 31.2789 32.8513 31.3138C32.9483 31.3836 32.894 31.5105 32.879 31.6023L32.7543 32.3899H32.5442L32.6827 31.6198C32.7254 31.3848 32.0709 31.3848 31.7361 30.9369C31.4509 31.2731 30.6509 31.1893 30.3046 31.137C30.1649 31.1161 30.0287 31.1254 29.9524 31.2638C29.9074 31.3417 29.8324 31.3185 29.7862 31.3069L29.1547 31.1696C29.0439 31.144 28.9954 31.1661 28.9469 31.2684L28.8211 31.5314C28.7934 31.593 28.7946 31.6384 28.8453 31.6884L28.9053 31.7524C28.8696 31.878 28.7553 31.9746 28.7553 31.9746L28.6179 31.8187C28.551 31.7396 28.5475 31.6256 28.6006 31.5139L28.8049 31.0835C28.8292 31.0358 28.873 30.9846 28.9584 30.9846L29.7389 30.973L29.4999 30.581C29.3221 30.2866 29.6177 29.762 29.5726 29.5141C29.5484 29.8457 29.1501 29.6945 29.0878 29.7398ZM28.2404 30.7287L28.6099 30.4448C28.6756 30.3948 28.7195 30.3622 28.7946 30.3715L29.3164 30.4413C29.3452 30.567 29.4283 30.6903 29.4283 30.6903L28.873 30.5728C28.7946 30.5635 28.7715 30.567 28.6976 30.6205L28.4344 30.8206C28.3824 30.8613 28.3801 30.9265 28.4101 30.9904L28.4528 31.0823L28.2693 31.2219L28.1988 31.0893C28.1273 30.9485 28.1227 30.8194 28.2404 30.7287Z" fill="black"/>
<path fill-rule="evenodd" clip-rule="evenodd" d="M29.8497 20.6294C30.0517 20.7702 30.4096 20.9202 30.4096 20.9202V20.6806L29.6211 20.377C29.6211 20.377 29.6211 20.4747 29.8497 20.6294Z" fill="black"/>
<path fill-rule="evenodd" clip-rule="evenodd" d="M30.4083 20.3412V20.1016L29.5137 19.7793C29.5137 19.7793 29.6199 19.8933 29.8485 20.0504C30.0505 20.19 30.4083 20.3412 30.4083 20.3412Z" fill="black"/>
<path fill-rule="evenodd" clip-rule="evenodd" d="M30.4079 19.7971V19.5563L29.4277 19.1934C29.4277 19.1934 29.6194 19.3493 29.848 19.5063C30.05 19.6471 30.4079 19.7971 30.4079 19.7971Z" fill="black"/>
<path fill-rule="evenodd" clip-rule="evenodd" d="M33.1602 23.0698H34.1622C34.1207 22.9231 33.9648 22.7754 33.6727 22.7754C33.3957 22.7754 33.2295 22.936 33.1602 23.0698Z" fill="black"/>
<path fill-rule="evenodd" clip-rule="evenodd" d="M32.1125 19.1934L31.1348 19.5563V19.7971C31.1348 19.7971 31.4926 19.6471 31.6947 19.5063C31.9221 19.3493 32.1125 19.1934 32.1125 19.1934Z" fill="black"/>
<path fill-rule="evenodd" clip-rule="evenodd" d="M31.9221 20.377L31.1348 20.6818V20.9214C31.1348 20.9214 31.4926 20.7701 31.6947 20.6306C31.9221 20.4747 31.9221 20.377 31.9221 20.377Z" fill="black"/>
<path fill-rule="evenodd" clip-rule="evenodd" d="M32.0295 19.7793L31.1348 20.1016V20.3412C31.1348 20.3412 31.4938 20.1911 31.6947 20.0516C31.9232 19.8933 32.0295 19.7793 32.0295 19.7793Z" fill="black"/>
<path fill-rule="evenodd" clip-rule="evenodd" d="M27.8664 22.7754C27.5744 22.7754 27.4185 22.9231 27.377 23.0698H28.3802C28.3086 22.936 28.1447 22.7754 27.8664 22.7754Z" fill="black"/>
<path fill-rule="evenodd" clip-rule="evenodd" d="M32.761 18.5468C32.761 17.9791 31.8143 17.4707 30.7695 17.4707C29.7247 17.4707 28.7781 17.9791 28.7781 18.5468L28.8001 18.6864L29.2156 21.0979L27.2415 22.2577C27.0314 22.3822 26.7682 22.7243 26.7348 23.0686H27.0949C27.155 22.7243 27.4239 22.3427 27.9285 22.366C28.3845 22.3904 28.6546 22.6695 28.9224 23.0686L28.9917 23.1733L29.091 23.3304H26.1875C26.4011 23.7619 26.6031 24.2203 26.6031 24.717V30.8001C26.6031 32.3647 27.7957 33.1104 29.0875 33.1104C30.085 33.1104 30.22 33.065 30.7707 33.6199C31.319 33.065 31.4541 33.1104 32.4539 33.1104C33.7445 33.1104 34.9383 32.3647 34.9383 30.8001V24.7182C34.9383 24.2214 35.1403 23.7631 35.3538 23.3315H32.4481L32.5486 23.1745L32.6178 23.0698C32.8845 22.6707 33.1558 22.3915 33.6118 22.3671C34.114 22.3439 34.3853 22.7254 34.4441 23.0698H34.8031C34.7709 22.7254 34.5065 22.3822 34.2975 22.2589L32.3234 21.0991L32.7402 18.6876L32.761 18.5468ZM29.1822 18.8236L30.6553 19.3285V21.6517L29.57 21.077L29.1822 18.8236ZM29.5447 23.7526C29.7386 24.0202 30.0526 24.218 30.4244 24.2947C30.4556 24.4355 30.5317 24.5902 30.6795 24.7147C30.6183 25.13 30.7949 25.5174 31.2382 25.6198C31.2844 25.8315 31.4149 25.9909 31.6331 26.0665L31.3248 26.4248C31.2071 26.5621 31.0536 26.6063 30.9265 26.59L29.5504 26.4329C29.6105 26.2794 29.4512 26.1014 29.0159 26.177L29.5574 24.6531L29.2272 23.9469L28.6015 24.4844L28.5553 26.0828L28.2898 25.9513C27.94 25.8001 27.8384 26.4364 28.1709 26.4388L28.3024 26.4399C28.2944 26.505 28.314 26.5772 28.3648 26.5993C28.3024 26.626 28.284 26.7447 28.3625 26.7866C28.2828 26.8238 28.2724 26.9448 28.336 26.9971C28.2667 27.1146 28.2563 27.3694 28.4975 27.4334C28.695 27.4857 28.8185 27.2717 28.8589 27.1472L30.9992 27.8149C31.3029 27.9022 31.5176 27.8533 31.7693 27.6311L32.3281 27.1391C32.2576 27.4613 32.3731 27.751 32.6167 27.8475C32.6167 27.8475 32.582 28.1372 32.5924 28.2663H27.0199V24.7182C27.0199 24.3878 26.9252 24.0574 26.8121 23.7526H29.5447ZM31.8466 25.0986C31.7289 25.3254 31.7404 25.5861 31.8789 25.8222L31.7866 25.9129C31.3849 25.8629 31.2267 25.2592 31.2267 25.2592C31.2186 25.3138 31.214 25.3662 31.2152 25.4197C30.9808 25.3324 30.833 25.123 30.8446 24.8357C30.9335 24.8857 31.0327 24.9206 31.139 24.9392L31.1667 24.7624C30.8862 24.7136 30.7222 24.5367 30.6599 24.3273C30.646 24.3261 30.6345 24.3227 30.6217 24.3215C30.6714 24.325 30.721 24.3297 30.7718 24.3297C30.9381 24.3297 31.0962 24.3041 31.244 24.2599C31.3606 24.4274 31.5673 24.5472 31.7751 24.5705C31.7416 24.71 31.7578 24.8834 31.8466 25.0986ZM32.4412 26.6946C32.4008 26.7494 32.3684 26.8122 32.3477 26.8808L32.1237 27.0878C32.1687 26.7575 31.9482 26.3678 31.7474 26.2084L31.9852 25.9734L32.0325 26.0223C31.9529 26.2328 32.1087 26.6458 32.4412 26.6946ZM31.3595 26.5912L31.5442 26.4085C31.7312 26.5737 31.9783 26.9425 31.9009 27.2938L31.7 27.4799C31.6584 27.5207 31.6158 27.5498 31.5719 27.5765C31.6977 27.2635 31.5373 26.7819 31.3595 26.5912ZM30.9623 26.7459H30.9681C31.035 26.7563 31.1067 26.7447 31.1713 26.7179C31.3121 26.9204 31.4218 27.381 31.2532 27.6684C31.1574 27.6707 31.0639 27.6532 30.9762 27.6277L30.9069 27.6067C31.0489 27.3845 31.0293 26.9913 30.9623 26.7459ZM30.4971 26.6877L30.7568 26.7203C30.7984 26.9378 30.7707 27.3136 30.6333 27.5276L30.3309 27.4392C30.4636 27.2577 30.5259 26.8843 30.4971 26.6877ZM29.9556 26.6214L30.2708 26.6586C30.302 26.8331 30.2431 27.2042 30.1242 27.381L29.8033 27.2879C29.9314 27.1169 29.9776 26.8157 29.9556 26.6214ZM28.68 26.5365C28.5334 26.5842 28.4687 26.4771 28.4745 26.3864C28.762 26.2805 28.8901 26.3491 28.9744 26.4027C29.0517 26.4515 29.1164 26.5912 29.2203 26.6784C29.203 26.797 29.1672 26.9692 29.1244 27.0844C28.8301 27.0088 28.8151 26.747 28.9247 26.5877C28.8635 26.5155 28.7989 26.4969 28.68 26.5365ZM28.4745 27.1146C28.4745 27.1146 28.5622 27.1519 28.673 27.16C28.6604 27.2217 28.613 27.2798 28.538 27.2635C28.4756 27.2496 28.4479 27.1728 28.4745 27.1146ZM28.1847 26.2654C28.112 26.2166 28.1443 26.1095 28.2251 26.1095C28.314 26.1118 28.4318 26.2131 28.5484 26.2631C28.5484 26.2631 28.2424 26.305 28.1847 26.2654ZM28.4837 26.882C28.5472 26.9437 28.7377 26.9204 28.7377 26.9204L28.7446 26.9588C28.6615 27.0704 28.4306 27.0204 28.4837 26.882ZM28.74 26.7552C28.6038 26.8098 28.4641 26.7354 28.5068 26.647C28.5703 26.7051 28.747 26.676 28.747 26.676L28.74 26.7552ZM28.9409 25.1579L28.68 26.1153L28.7689 24.5705L29.173 24.2226L29.3785 24.6775L28.8589 26.1782L28.9963 25.1684C29.009 25.0963 28.9525 25.0882 28.9409 25.1579ZM28.9594 26.3189C28.9594 26.3189 29.2503 26.305 29.3322 26.3364C29.3923 26.362 29.3518 26.4643 29.2734 26.4527C29.1914 26.4422 28.9594 26.3189 28.9594 26.3189ZM29.4154 26.5516L29.7317 26.5912C29.7559 26.7657 29.7109 27.0611 29.5978 27.2263L29.2918 27.1368C29.3727 26.9425 29.3923 26.7598 29.4154 26.5516ZM34.5215 30.8012C34.5215 31.5411 34.1821 32.1029 33.6176 32.4147L33.8196 32.0006H33.6233L33.3636 32.5311C33.0946 32.6334 32.7898 32.6904 32.4527 32.6904C31.4229 32.6904 31.1505 32.7323 30.7695 33.1151C30.3874 32.7323 30.115 32.6904 29.0864 32.6904C28.7516 32.6904 28.4468 32.6357 28.179 32.5334H28.1859L28.4456 32.0006H28.2505L28.0231 32.4671C27.9688 32.4415 27.9157 32.4135 27.8649 32.3833L28.0519 32.0006H27.858L27.7195 32.2856C27.2785 31.9587 27.0187 31.4468 27.0187 30.8012V28.4745H34.5192V30.8012H34.5215ZM34.7304 23.7526C34.6138 24.0574 34.5203 24.3878 34.5203 24.7182V28.2663H34.1105C33.9246 28.0849 33.7676 27.4799 33.7676 27.4799C33.6661 27.6975 33.7826 28.1384 33.8912 28.2663H33.3636C33.2332 28.0884 33.12 27.4578 33.12 27.4578C32.9619 27.6393 33.0623 28.129 33.1604 28.2663H32.8095C32.7875 28.0139 32.8591 27.7394 32.8591 27.7394C32.6755 27.7056 32.4804 27.6079 32.4816 27.4031C32.5739 27.4903 32.6121 27.4892 32.7402 27.4869L32.8891 27.3683C32.395 27.3845 32.3719 26.8377 32.7644 26.5819C32.3731 26.5946 32.081 26.3597 32.223 25.9408C31.9448 25.7955 31.8466 25.3208 32.0521 25.1125C31.9032 24.9497 31.8789 24.6298 31.9736 24.4122C31.7762 24.4122 31.5546 24.3331 31.431 24.197C31.4218 24.2017 31.4103 24.2052 31.3998 24.2087C31.6469 24.1075 31.8559 23.9492 31.9967 23.7538H34.7304V23.7526ZM33.2366 22.0449C32.8302 22.1159 32.4804 22.6172 32.1941 23.0698L32.1618 23.1222H31.8559L31.8547 23.1756C31.8235 23.5247 31.4945 23.9981 30.7695 23.9981C30.4348 23.9981 30.1819 23.8946 30.0088 23.7538C29.8587 23.6305 29.764 23.4781 29.7178 23.3327C29.7005 23.2803 29.6901 23.2268 29.6855 23.1756L29.6832 23.1222H29.3796L29.3472 23.0698C29.0598 22.6184 28.71 22.117 28.3048 22.0449L29.4119 21.3969L30.7718 22.1415L32.1295 21.3969L33.2366 22.0449ZM31.969 21.077L30.885 21.6517V19.3285L32.3581 18.8236L31.969 21.077ZM30.7707 19.0749L29.1603 18.4339C29.2964 18.1082 29.9279 17.8302 30.7707 17.8302C31.6123 17.8302 32.2426 18.1082 32.3789 18.4339L30.7707 19.0749Z" fill="black"/>
<path fill-rule="evenodd" clip-rule="evenodd" d="M34.3496 26.0451L34.353 25.867C33.8116 25.8543 33.6869 25.2109 33.6869 25.2109C33.5287 25.6844 33.942 26.0381 34.3496 26.0451Z" fill="black"/>
<path fill-rule="evenodd" clip-rule="evenodd" d="M33.6657 27.1352L33.6115 26.9665C33.1497 27.0851 32.9107 26.3477 32.9107 26.3477C32.7629 26.8839 33.2778 27.2632 33.6657 27.1352Z" fill="black"/>
<path fill-rule="evenodd" clip-rule="evenodd" d="M33.9872 26.4509C33.4354 26.5394 33.2092 25.8926 33.2092 25.8926C33.148 26.2451 33.3743 26.6022 33.7402 26.6394C33.6571 27.0989 34.0808 27.3351 34.4479 27.1711L34.3948 27.0105C34.0761 27.1187 33.7772 26.8011 33.9872 26.4509Z" fill="black"/>
<path fill-rule="evenodd" clip-rule="evenodd" d="M33.6577 24.6056L33.6623 24.4276C32.9338 24.2763 32.995 23.7715 32.995 23.7715C32.8381 24.2472 33.2513 24.5986 33.6577 24.6056Z" fill="black"/>
<path fill-rule="evenodd" clip-rule="evenodd" d="M29.0421 32L28.7812 32.5327H28.9775L29.2373 32H29.0421Z" fill="black"/>
<path fill-rule="evenodd" clip-rule="evenodd" d="M29.4356 32L29.1758 32.5327H29.3732L29.6306 32H29.4356Z" fill="black"/>
<path fill-rule="evenodd" clip-rule="evenodd" d="M31.0117 32L30.752 32.5327H30.947L31.2079 32H31.0117Z" fill="black"/>
<path fill-rule="evenodd" clip-rule="evenodd" d="M31.4066 32L31.1445 32.5327H31.3419L31.6005 32H31.4066Z" fill="black"/>
<path fill-rule="evenodd" clip-rule="evenodd" d="M30.6183 32L30.3574 32.5327H30.5536L30.8134 32H30.6183Z" fill="black"/>
<path fill-rule="evenodd" clip-rule="evenodd" d="M32.9219 32.5327H33.1181L33.3779 32H33.1816L32.9219 32.5327Z" fill="black"/>
<path fill-rule="evenodd" clip-rule="evenodd" d="M29.83 32L29.5703 32.5327H29.7665L30.0263 32H29.83Z" fill="black"/>
<path fill-rule="evenodd" clip-rule="evenodd" d="M30.2226 32L29.9629 32.5327H30.1603L30.42 32H30.2226Z" fill="black"/>
<path fill-rule="evenodd" clip-rule="evenodd" d="M29.3326 29.1367C29.2968 29.1367 29.2656 29.1716 29.2656 29.217C29.2656 29.2612 29.2968 29.2973 29.3326 29.2973C29.3696 29.2973 29.4019 29.2612 29.4019 29.217C29.4007 29.1716 29.3696 29.1367 29.3326 29.1367Z" fill="black"/>
<path fill-rule="evenodd" clip-rule="evenodd" d="M30.7718 17.1101C31.5799 17.1101 32.2275 17.38 32.5842 17.6696C32.5842 17.6696 32.6917 17.0229 33.053 16.4551L32.4019 16.5284L32.0613 15.7979L31.4067 16.1411L30.7718 15.5059L30.1369 16.1411L29.48 15.7979L29.1394 16.5284L28.4883 16.4551C28.8508 17.0229 28.957 17.6696 28.957 17.6696C29.3149 17.38 29.9637 17.1101 30.7718 17.1101ZM29.2514 16.8193L29.5619 16.1562L30.1369 16.4644L30.7718 15.8328L31.4067 16.4644L31.9817 16.1562L32.2887 16.8193L32.6709 16.7599C32.5727 16.9449 32.4988 17.1066 32.4307 17.3334C32.0129 17.088 31.3917 16.8984 30.7718 16.8984C30.1495 16.8984 29.5296 17.088 29.1117 17.3334C29.0424 17.1066 28.9697 16.9449 28.8704 16.7599L29.2514 16.8193Z" fill="black"/>
<path fill-rule="evenodd" clip-rule="evenodd" d="M41.8367 22.1025C42.0642 22.021 42.2396 21.8023 42.3273 21.5999C41.749 21.5162 40.2124 20.8658 38.9494 21.3952C39.4228 20.9426 39.8476 20.8845 39.888 20.233C40.0842 20.3749 40.4156 20.4552 40.6026 20.1167C40.4722 19.7293 40.1431 20.0434 40.097 19.9364C40.0323 19.7874 40.5114 19.9817 40.6142 19.478C40.2413 19.3489 40.1304 19.656 40.0635 19.585C40.0023 19.5176 40.3001 19.3884 40.0808 18.9824C39.6929 19.2116 39.8949 19.4687 39.813 19.4978C39.7136 19.5373 39.7922 19.2221 39.3627 19.2372C39.32 19.7014 39.7657 19.7165 39.6929 19.7898C39.604 19.8793 39.4885 19.5233 39.1642 19.7037C39.1699 20.0782 39.4712 20.2842 39.7818 20.1958C39.731 20.9077 39.0822 20.7751 38.5996 21.5778C39.6225 22.106 40.0854 23.0273 40.7146 23.6648C40.9224 23.5159 41.2779 22.8551 41.2779 22.8551C41.9591 23.3867 42.4381 22.8575 42.4381 22.8575C42.2038 22.6155 42.1946 22.4317 41.8367 22.1025ZM40.8439 22.2316C40.9143 22.3886 41.054 22.9366 40.7204 23.3542C40.3405 22.5899 39.8187 21.9349 39.3962 21.6523C39.3038 21.5917 39.447 21.4859 39.7079 21.451C40.4941 21.3009 41.4165 21.636 41.8552 21.7534C41.6508 21.907 41.4846 21.9768 41.2756 22.0024C41.5943 22.2723 41.8275 22.5003 41.9914 22.7539C41.6832 22.8319 41.5088 22.6353 40.8439 22.2316Z" fill="black"/>
<path fill-rule="evenodd" clip-rule="evenodd" d="M34.2762 34.1142V33.2441C33.609 33.5524 32.7604 33.8025 31.6683 33.9014L31.6187 34.212C31.711 34.2248 31.8287 34.2364 31.9858 34.2469C31.5817 34.3027 31.0588 34.3295 30.7724 34.3295C30.485 34.3295 29.9632 34.3027 29.558 34.2469C29.7138 34.2364 29.8316 34.2248 29.9239 34.212L29.8743 33.9014C28.7822 33.8025 27.9325 33.5524 27.2664 33.2441V34.1142L26.3613 34.4888C27.0321 34.8402 27.8032 35.1264 28.6945 35.3579L28.5882 35.722C29.0985 35.8732 29.9147 36.0268 30.7701 36.0268C31.6256 36.0268 32.4406 35.8721 32.9521 35.722L32.847 35.3579C33.7371 35.1264 34.5106 34.8402 35.1813 34.4888L34.2762 34.1142ZM26.845 34.5086L27.4558 34.2609V33.5524C27.8483 33.7048 28.3631 33.863 29.102 34.0177L28.7557 35.1543C28.0018 34.9798 27.3611 34.7448 26.845 34.5086ZM30.7713 35.8185C30.0821 35.8185 29.4091 35.715 28.8341 35.5719L29.2001 34.3795C29.4425 34.4365 30.0498 34.511 30.7713 34.511C31.494 34.511 32.0978 34.4354 32.3413 34.3795L32.7085 35.5719C32.1313 35.715 31.4594 35.8185 30.7713 35.8185ZM32.7881 35.1543L32.4418 34.0177C33.1807 33.8641 33.6955 33.7048 34.0881 33.5524V34.2609L34.6976 34.5086C34.1816 34.7448 33.5431 34.9798 32.7881 35.1543Z" fill="black"/>
<path fill-rule="evenodd" clip-rule="evenodd" d="M20.2657 22.8551C20.2657 22.8551 20.6213 23.5159 20.828 23.6648C21.4583 23.0285 21.9223 22.1071 22.944 21.5778C22.4603 20.7751 21.8115 20.9101 21.763 20.1958C22.0735 20.2842 22.3737 20.0771 22.3807 19.7037C22.0551 19.5233 21.9397 19.8817 21.8519 19.7898C21.7792 19.7141 22.2236 19.7014 22.1821 19.2372C21.7526 19.2232 21.8311 19.5373 21.7307 19.4978C21.6498 19.4687 21.8519 19.2105 21.4629 18.9824C21.2447 19.3896 21.5437 19.5176 21.4814 19.585C21.4155 19.656 21.3024 19.3501 20.9307 19.478C21.0311 19.9817 21.5125 19.7874 21.4478 19.9364C21.4017 20.0434 21.0738 19.7293 20.9445 20.1167C21.1292 20.4564 21.4617 20.3761 21.6568 20.2342C21.6984 20.8868 22.1221 20.9415 22.5965 21.3952C21.3324 20.8658 19.7958 21.5162 19.2151 21.601C19.304 21.8023 19.4795 22.021 19.707 22.1001C19.3491 22.4328 19.3398 22.6166 19.1055 22.8575C19.1055 22.8575 19.5834 23.3867 20.2657 22.8551ZM19.5499 22.7551C19.715 22.5015 19.947 22.2723 20.268 22.0035C20.0579 21.9768 19.8928 21.907 19.6873 21.7534C20.1271 21.636 21.0508 21.2998 21.8381 21.451C22.0967 21.4859 22.2421 21.5917 22.1474 21.6523C21.7249 21.9349 21.2019 22.5899 20.8221 23.3542C20.4897 22.9366 20.6305 22.3898 20.6986 22.2327C20.0348 22.6353 19.8617 22.8319 19.5499 22.7551Z" fill="black"/>
<path fill-rule="evenodd" clip-rule="evenodd" d="M30.2188 22.3711V22.7538C30.3492 22.5944 30.6032 22.6259 30.6032 22.6259V23.1784C30.6032 23.1784 30.594 23.4507 30.4993 23.567H30.7728H31.0465C30.9506 23.4507 30.9425 23.1784 30.9425 23.1784V22.627C30.9425 22.627 31.1954 22.5956 31.3259 22.755V22.3722H30.7728H30.2188V22.3711Z" fill="black"/>
<path d="M18.1787 45.375V42.4854H19.8722V41.4338H15.252V42.4854H16.9455V45.375H18.1787ZM21.5989 41.4338H20.3658V45.375H21.5989V41.4338ZM22.5013 41.4338V45.375H23.6358V43.1974L25.7487 45.375H26.801V41.4338H25.6665V43.5948L23.6029 41.4338H22.5013ZM29.2247 43.8846L30.6469 45.375H32.2336L30.2523 43.3216L32.1596 41.4338H30.6634L29.2247 42.9159H28.8958V41.4338H27.7038V45.375H28.8958V43.8846H29.2247ZM34.6865 41.3262C33.0833 41.3262 32.1215 42.237 32.1215 43.4127C32.1215 44.5884 33.0833 45.4992 34.6865 45.4992C36.2814 45.4992 37.2433 44.5884 37.2433 43.4127C37.2433 42.237 36.2814 41.3262 34.6865 41.3262ZM34.6865 44.5387C33.889 44.5387 33.3793 44.0585 33.3793 43.4127C33.3793 42.7669 33.889 42.2949 34.6865 42.2949C35.4757 42.2949 35.9936 42.7669 35.9936 43.4127C35.9936 44.0585 35.4757 44.5387 34.6865 44.5387ZM41.764 41.4338H37.8097V45.375H39.0017V44.0005H41.5914V43.1312H39.0017V42.4357H41.764V41.4338ZM46.252 41.4338H42.2976V45.375H43.4897V44.0005H46.0793V43.1312H43.4897V42.4357H46.252V41.4338Z" fill="black"/>
</svg>
