<svg width="25" height="24" viewBox="0 0 25 24" fill="none" xmlns="http://www.w3.org/2000/svg">
<circle cx="12.248" cy="12" r="10" stroke="#AEB5D1" stroke-width="2"/>
<path fill-rule="evenodd" clip-rule="evenodd" d="M12.2404 12.1924C10.4713 12.1924 9.0326 10.8037 9.0326 9.09664C9.0326 7.38899 10.4713 6 12.2404 6C14.0099 6 15.4482 7.38899 15.4482 9.09664C15.4482 10.8037 14.0099 12.1924 12.2404 12.1924ZM12.2398 7.8137C12.9723 7.8137 13.568 8.3886 13.568 9.0956C13.568 9.80204 12.9723 10.3773 12.2398 10.3773C11.508 10.3773 10.9117 9.80204 10.9117 9.0956C10.9117 8.3886 11.508 7.8137 12.2398 7.8137ZM15.4195 16.4954L13.5802 14.8133C14.2499 14.6738 14.8959 14.4315 15.4908 14.0899C15.941 13.8303 16.0767 13.2861 15.793 12.8744C15.5095 12.4618 14.9148 12.3376 14.4637 12.5972C13.116 13.3721 11.3808 13.372 10.0339 12.5972C9.58285 12.3376 8.98792 12.4618 8.70503 12.8744C8.42134 13.2864 8.55659 13.8303 9.00682 14.0899C9.60175 14.4312 10.2477 14.6738 10.9174 14.8133L9.07789 16.4954C8.70188 16.8396 8.70188 17.3977 9.07829 17.7419C9.26669 17.9138 9.51316 17.9998 9.75964 17.9998C10.0065 17.9998 10.2534 17.9138 10.4418 17.7419L12.2486 16.0889L14.057 17.7419C14.433 18.086 15.0431 18.086 15.4195 17.7419C15.7963 17.3977 15.7963 16.8393 15.4195 16.4954Z" fill="#AEB5D1"/>
</svg>
