<svg width="73" height="72" viewBox="0 0 73 72" fill="none" xmlns="http://www.w3.org/2000/svg">
<g clip-path="url(#clip0_6006_32746)">
<path d="M70.334 14.0625H22.8027C21.2277 14.0625 19.9902 15.3 19.9902 16.875V17.7188H65.0465C67.5215 17.7188 69.5465 19.7437 69.5465 22.2188V46.0125H70.3902C71.9652 46.0125 73.2027 44.775 73.2027 43.2V16.875C73.1465 15.3 71.8527 14.0625 70.334 14.0625Z" fill="#4563FF"/>
<path d="M64.9902 51.8621H17.459C15.6027 51.8621 14.084 50.3434 14.084 48.4871V22.1621C14.084 20.3059 15.6027 18.7871 17.459 18.7871H64.9902C66.8465 18.7871 68.3652 20.3059 68.3652 22.1621V48.4309C68.3652 50.3434 66.8465 51.8621 64.9902 51.8621ZM17.459 19.9121C16.2215 19.9121 15.209 20.9246 15.209 22.1621V48.4309C15.209 49.6684 16.2215 50.6809 17.459 50.6809H64.9902C66.2277 50.6809 67.2402 49.6684 67.2402 48.4309V22.1621C67.2402 20.9246 66.2277 19.9121 64.9902 19.9121H17.459Z" fill="#4563FF"/>
<path d="M47.834 25.875C49.409 25.875 50.6465 27.1125 50.6465 28.6875C50.6465 30.2625 49.409 31.5 47.834 31.5C46.259 31.5 45.0215 30.2625 45.0215 28.6875C45.0215 27.1125 46.3152 25.875 47.834 25.875ZM47.834 24.75C45.6402 24.75 43.8965 26.4937 43.8965 28.6875C43.8965 30.8813 45.6402 32.625 47.834 32.625C50.0277 32.625 51.7715 30.8813 51.7715 28.6875C51.7715 26.4937 50.0277 24.75 47.834 24.75Z" fill="#4563FF"/>
<path d="M58.5215 32.625C60.6961 32.625 62.459 30.8621 62.459 28.6875C62.459 26.5129 60.6961 24.75 58.5215 24.75C56.3469 24.75 54.584 26.5129 54.584 28.6875C54.584 30.8621 56.3469 32.625 58.5215 32.625Z" fill="#FF0029"/>
<path d="M16.8965 61.8184C13.7465 61.8184 10.7652 60.5809 8.57149 58.3309C8.34649 58.1059 8.34649 57.7684 8.57149 57.5434C8.79649 57.3184 9.13397 57.3184 9.35897 57.5434C11.384 59.5684 14.084 60.6934 16.8965 60.6934C22.8027 60.6934 27.584 55.9121 27.584 50.0059C27.584 44.0996 22.8027 39.3184 16.8965 39.3184C10.9902 39.3184 6.20898 44.0996 6.20898 50.0059V51.6934C6.20898 52.0309 5.98398 52.2559 5.64648 52.2559C5.30898 52.2559 5.08398 52.0309 5.08398 51.6934V50.0059C5.08398 43.4809 10.3715 38.1934 16.8965 38.1934C23.4215 38.1934 28.709 43.4809 28.709 50.0059C28.709 56.5309 23.3652 61.8184 16.8965 61.8184Z" fill="#4563FF"/>
<path d="M5.64649 53.0434L0.752734 48.1496C0.527734 47.9246 0.527734 47.5871 0.752734 47.3621C0.977734 47.1371 1.31523 47.1371 1.54023 47.3621L5.64649 51.4684L9.75273 47.3621C9.97773 47.1371 10.3152 47.1371 10.5402 47.3621C10.7652 47.5871 10.7652 47.9246 10.5402 48.1496L5.64649 53.0434Z" fill="#4563FF"/>
</g>
<defs>
<clipPath id="clip0_6006_32746">
<rect width="72" height="72" fill="white" transform="translate(0.751953)"/>
</clipPath>
</defs>
</svg>
