<svg width="73" height="72" viewBox="0 0 73 72" fill="none" xmlns="http://www.w3.org/2000/svg">
<path d="M34.277 61.8195C31.127 61.8195 28.5395 59.232 28.5395 56.082V13.332H18.752C16.5582 13.332 14.8145 15.0758 14.8145 17.2695V64.1258C14.8145 66.2633 16.5582 68.0633 18.752 68.0633H38.102C40.2395 68.0633 42.0395 66.3195 42.0395 64.1258V61.8195H34.277Z" fill="#4563FF"/>
<path d="M53.6277 4.5H34.2777C31.6902 4.5 29.5527 6.6375 29.5527 9.225V56.0812C29.5527 58.6687 31.634 60.8062 34.2777 60.8062H53.6277C56.2152 60.8062 58.3527 58.6687 58.3527 56.0812V9.225C58.3527 6.58125 56.2152 4.5 53.6277 4.5ZM57.284 56.025C57.284 58.05 55.6527 59.6812 53.6277 59.6812H34.2777C32.2527 59.6812 30.6215 58.05 30.6215 56.025V9.225C30.6215 7.2 32.2527 5.56875 34.2777 5.56875H37.0902V7.875C37.0902 8.83125 37.8215 9.5625 38.7777 9.5625H48.9027C49.859 9.5625 50.5902 8.83125 50.5902 7.875V5.5125H53.6277C55.6527 5.5125 57.284 7.14375 57.284 9.16875V56.025Z" fill="#4563FF"/>
<path d="M55.0894 20.1934C55.0894 18.9559 54.077 17.9434 52.8395 17.9434C51.602 17.9434 50.5895 18.9559 50.5895 20.1934C50.5895 21.0371 51.0957 21.7684 51.7707 22.1621L48.5645 35.4934L42.4332 30.0934C42.602 29.6434 42.7145 29.1934 42.7145 28.6871C42.7145 26.4934 40.9707 24.7496 38.777 24.7496C36.5832 24.7496 34.8395 26.4934 34.8395 28.6871C34.8395 30.4871 36.0207 31.9496 37.652 32.4559L34.7832 43.6496C33.5457 43.6496 32.5332 44.6621 32.5332 45.8996C32.5332 47.1371 33.5457 48.1496 34.7832 48.1496C36.0207 48.1496 37.0332 47.1371 37.0332 45.8996C37.0332 45.0559 36.5832 44.3246 35.852 43.9309L38.777 32.6246C40.0145 32.6246 41.1395 32.0059 41.8707 31.1059L49.2395 37.5746L52.8957 22.4434C54.1332 22.4434 55.0894 21.4309 55.0894 20.1934ZM38.777 31.4434C37.202 31.4434 35.9645 30.2059 35.9645 28.6309C35.9645 27.0559 37.202 25.8184 38.777 25.8184C40.352 25.8184 41.5895 27.0559 41.5895 28.6309C41.5895 30.2059 40.352 31.4434 38.777 31.4434Z" fill="#4563FF"/>
<path d="M48.3398 39.8809C50.5145 39.8809 52.2773 38.118 52.2773 35.9434C52.2773 33.7687 50.5145 32.0059 48.3398 32.0059C46.1652 32.0059 44.4023 33.7687 44.4023 35.9434C44.4023 38.118 46.1652 39.8809 48.3398 39.8809Z" fill="#FF0026"/>
</svg>
